<?xml version="1.0" encoding="iso-8859-1"?>
<!-- Generator: Adobe Illustrator 19.0.0, SVG Export Plug-In . SVG Version: 6.00 Build 0)  -->
<svg version="1.1" id="Capa_1" xmlns="http://www.w3.org/2000/svg" xmlns:xlink="http://www.w3.org/1999/xlink" x="0px" y="0px"
	 viewBox="0 0 463 463" style="enable-background:new 0 0 463 463;" xml:space="preserve">
<g>
	<path d="M375.5,416H335v-16.5c0-8.547-6.953-15.5-15.5-15.5H279v-9.909c13.759-3.374,24-15.806,24-30.591
		c0-15.349-21.59-40.186-25.918-45.009c-1.423-1.585-3.452-2.491-5.582-2.491s-4.159,0.906-5.582,2.491
		C261.59,303.314,240,328.151,240,343.5c0,14.785,10.241,27.216,24,30.591V384h-40.5c-8.547,0-15.5,6.953-15.5,15.5V416h-73V247
		h65.236c17.503,19.622,42.963,32,71.264,32s53.761-12.378,71.264-32H367.5c4.143,0,7.5-3.358,7.5-7.5s-3.357-7.5-7.5-7.5h-13.764
		C362.157,217.776,367,201.194,367,183.5c0-40.561-26.044-76.818-64-90.092V63h8.5c4.143,0,7.5-3.358,7.5-7.5s-3.357-7.5-7.5-7.5
		H303V15h0.5c4.143,0,7.5-3.358,7.5-7.5S307.643,0,303.5,0h-64c-4.143,0-7.5,3.358-7.5,7.5s3.357,7.5,7.5,7.5h0.5v33H135V7.5
		c0-4.142-3.357-7.5-7.5-7.5h-32C91.357,0,88,3.358,88,7.5V48h-9v-8.5c0-4.142-3.357-7.5-7.5-7.5S64,35.358,64,39.5v32
		c0,4.142,3.357,7.5,7.5,7.5s7.5-3.358,7.5-7.5V63h9v169h-9v-8.5c0-4.142-3.357-7.5-7.5-7.5s-7.5,3.358-7.5,7.5v32
		c0,4.142,3.357,7.5,7.5,7.5s7.5-3.358,7.5-7.5V247h9v169h-0.5C70.131,416,56,430.131,56,447.5v8c0,4.142,3.357,7.5,7.5,7.5h336
		c4.143,0,7.5-3.358,7.5-7.5v-8C407,430.131,392.869,416,375.5,416z M255,343.5c0-5.282,7.814-17.62,16.517-28.429
		C281.83,327.796,288,339.231,288,343.5c0,6.396-3.666,11.941-9,14.678V351.5c0-4.142-3.357-7.5-7.5-7.5s-7.5,3.358-7.5,7.5v6.678
		C258.666,355.441,255,349.896,255,343.5z M223,399.5c0-0.276,0.225-0.5,0.5-0.5h96c0.275,0,0.5,0.224,0.5,0.5V416h-97V399.5z
		 M271.5,264c-18.605,0-35.741-6.361-49.389-17h98.777C307.241,257.639,290.105,264,271.5,264z M207.301,232
		c-8.802-11.622-14.519-25.696-15.94-41h160.277c-1.421,15.304-7.138,29.378-15.94,41H207.301z M288,15v83.899
		c0,3.355,2.229,6.302,5.456,7.216c32.041,9.075,55.086,37.212,58.177,69.885H191.367c3.091-32.672,26.137-60.81,58.177-69.885
		c3.228-0.915,5.456-3.861,5.456-7.216V15H288z M240,63v30.408c-37.956,13.274-64,49.531-64,90.092
		c0,17.694,4.843,34.276,13.264,48.5H135V63H240z M103,15h17v33h-17V15z M103,63h17v169h-17V63z M103,247h17v169h-17V247z M392,448
		H71v-0.5c0-9.098,7.402-16.5,16.5-16.5h288c9.098,0,16.5,7.402,16.5,16.5V448z"/>
	<path d="M231.5,208c-1.98,0-3.91,0.8-5.3,2.2c-1.4,1.39-2.2,3.32-2.2,5.3s0.8,3.91,2.2,5.3c1.39,1.4,3.319,2.2,5.3,2.2
		c1.979,0,3.91-0.8,5.3-2.2c1.4-1.39,2.2-3.33,2.2-5.3c0-1.97-0.8-3.91-2.2-5.3C235.41,208.8,233.479,208,231.5,208z"/>
	<path d="M300.8,202.2c-1.4-1.4-3.33-2.2-5.3-2.2s-3.91,0.8-5.3,2.2c-1.4,1.39-2.2,3.33-2.2,5.3c0,1.97,0.8,3.9,2.2,5.3
		c1.39,1.4,3.319,2.2,5.3,2.2c1.979,0,3.91-0.8,5.3-2.2c1.4-1.39,2.2-3.33,2.2-5.3C303,205.53,302.2,203.59,300.8,202.2z"/>
	<path d="M287.5,159c1.97,0,3.91-0.8,5.3-2.2c1.4-1.39,2.2-3.32,2.2-5.3s-0.8-3.91-2.2-5.3c-1.39-1.4-3.32-2.2-5.3-2.2
		c-1.98,0-3.91,0.8-5.3,2.2c-1.4,1.39-2.2,3.33-2.2,5.3c0,1.97,0.8,3.91,2.2,5.3C283.59,158.2,285.52,159,287.5,159z"/>
	<path d="M263.5,135c1.97,0,3.91-0.8,5.3-2.2c1.4-1.39,2.2-3.33,2.2-5.3c0-1.97-0.8-3.91-2.2-5.3c-1.39-1.4-3.32-2.2-5.3-2.2
		c-1.98,0-3.91,0.8-5.3,2.2c-1.4,1.39-2.2,3.33-2.2,5.3c0,1.97,0.8,3.91,2.2,5.3C259.59,134.2,261.53,135,263.5,135z"/>
</g>
<g>
</g>
<g>
</g>
<g>
</g>
<g>
</g>
<g>
</g>
<g>
</g>
<g>
</g>
<g>
</g>
<g>
</g>
<g>
</g>
<g>
</g>
<g>
</g>
<g>
</g>
<g>
</g>
<g>
</g>
</svg>
