<?xml version="1.0" encoding="iso-8859-1"?>
<!-- Generator: Adobe Illustrator 19.0.0, SVG Export Plug-In . SVG Version: 6.00 Build 0)  -->
<svg version="1.1" id="Capa_1" xmlns="http://www.w3.org/2000/svg" xmlns:xlink="http://www.w3.org/1999/xlink" x="0px" y="0px"
	 viewBox="0 0 463 463" style="enable-background:new 0 0 463 463;" xml:space="preserve">
<g>
	<path d="M239,96.166V78.277c18.205-3.515,32-19.561,32-38.777C271,17.72,253.28,0,231.5,0S192,17.72,192,39.5
		c0,19.216,13.795,35.262,32,38.777v17.889C126.283,100.115,48,180.831,48,279.5C48,380.682,130.318,463,231.5,463
		S415,380.682,415,279.5C415,180.831,336.717,100.115,239,96.166z M207,39.5c0-13.509,10.991-24.5,24.5-24.5S256,25.991,256,39.5
		c0,10.894-7.149,20.146-17,23.321V55.5c0-4.142-3.358-7.5-7.5-7.5s-7.5,3.358-7.5,7.5v7.321C214.149,59.646,207,50.394,207,39.5z
		 M231.5,448C138.589,448,63,372.411,63,279.5S138.589,111,231.5,111S400,186.589,400,279.5S324.411,448,231.5,448z"/>
	<path d="M231.5,128C147.962,128,80,195.962,80,279.5S147.962,431,231.5,431S383,363.038,383,279.5S315.038,128,231.5,128z
		 M231.5,416C156.234,416,95,354.766,95,279.5S156.234,143,231.5,143S368,204.234,368,279.5S306.766,416,231.5,416z"/>
	<path d="M208,279.5c0,12.958,10.542,23.5,23.5,23.5s23.5-10.542,23.5-23.5S244.458,256,231.5,256S208,266.542,208,279.5z
		 M231.5,271c4.687,0,8.5,3.813,8.5,8.5s-3.813,8.5-8.5,8.5s-8.5-3.813-8.5-8.5S226.813,271,231.5,271z"/>
	<path d="M308.545,192.606l-97.293,41.697c-11.262,4.826-20.123,13.687-24.949,24.948l-41.697,97.293
		c-1.208,2.819-0.578,6.089,1.59,8.258c1.436,1.436,3.354,2.197,5.305,2.197c0.996,0,2-0.198,2.953-0.606l97.293-41.697
		c11.262-4.826,20.123-13.686,24.949-24.948l41.697-97.294c1.208-2.819,0.578-6.089-1.59-8.258
		C314.635,192.029,311.365,191.399,308.545,192.606z M262.909,293.839c-3.302,7.706-9.365,13.768-17.07,17.07L165.78,345.22
		l34.311-80.06c3.302-7.706,9.364-13.768,17.07-17.07l80.06-34.311L262.909,293.839z"/>
	<path d="M231.5,191c4.142,0,7.5-3.358,7.5-7.5v-16c0-4.142-3.358-7.5-7.5-7.5s-7.5,3.358-7.5,7.5v16
		C224,187.642,227.358,191,231.5,191z"/>
	<path d="M231.5,368c-4.142,0-7.5,3.358-7.5,7.5v16c0,4.142,3.358,7.5,7.5,7.5s7.5-3.358,7.5-7.5v-16
		C239,371.358,235.642,368,231.5,368z"/>
	<path d="M135.5,272h-16c-4.142,0-7.5,3.358-7.5,7.5s3.358,7.5,7.5,7.5h16c4.142,0,7.5-3.358,7.5-7.5S139.642,272,135.5,272z"/>
	<path d="M343.5,272h-16c-4.142,0-7.5,3.358-7.5,7.5s3.358,7.5,7.5,7.5h16c4.142,0,7.5-3.358,7.5-7.5S347.642,272,343.5,272z"/>
</g>
<g>
</g>
<g>
</g>
<g>
</g>
<g>
</g>
<g>
</g>
<g>
</g>
<g>
</g>
<g>
</g>
<g>
</g>
<g>
</g>
<g>
</g>
<g>
</g>
<g>
</g>
<g>
</g>
<g>
</g>
</svg>
