<?xml version="1.0" encoding="iso-8859-1"?>
<!-- Generator: Adobe Illustrator 19.0.0, SVG Export Plug-In . SVG Version: 6.00 Build 0)  -->
<svg version="1.1" id="Capa_1" xmlns="http://www.w3.org/2000/svg" xmlns:xlink="http://www.w3.org/1999/xlink" x="0px" y="0px"
	 viewBox="0 0 463 463" style="enable-background:new 0 0 463 463;" xml:space="preserve">
<path d="M265.635,231.492c36.811-35.729,59.341-63.62,74.698-92.34C358.526,105.126,367,68.377,367,23.5
	C367,10.542,356.458,0,343.5,0S320,10.542,320,23.5c0,0.169-0.006,0.331-0.006,0.5H143.006c0-0.169-0.006-0.331-0.006-0.5
	C143,10.542,132.458,0,119.5,0S96,10.542,96,23.5c0,47.17,9.465,85.725,29.787,121.336c15.255,26.731,36.633,52.744,71.578,86.672
	c-36.811,35.729-59.341,63.62-74.698,92.34C104.474,357.874,96,394.623,96,439.5c0,12.958,10.542,23.5,23.5,23.5
	s23.5-10.542,23.5-23.5c0-0.169,0.006-0.331,0.006-0.5h176.988c0,0.169,0.006,0.331,0.006,0.5c0,12.958,10.542,23.5,23.5,23.5
	s23.5-10.542,23.5-23.5c0-47.17-9.465-85.725-29.787-121.336C321.958,291.432,300.58,265.42,265.635,231.492z M343.5,15
	c4.687,0,8.5,3.813,8.5,8.5c0,86.342-32.731,135.202-97.209,197.618c-2.38-2.245-4.805-4.519-7.301-6.836
	c-1.727-1.604-3.429-3.193-5.117-4.775c60.212-58.013,90.16-101.436,92.465-176.459c0.105-0.5,0.162-1.017,0.162-1.547
	c0-0.361-0.034-0.714-0.084-1.062c0.05-2.286,0.084-4.592,0.084-6.938C335,18.813,338.813,15,343.5,15z M311.238,88H151.776
	c-1.717-5.511-3.185-11.159-4.384-17h168.203C314.393,76.853,312.947,82.51,311.238,88z M305.76,103
	c-2.426,5.79-5.158,11.441-8.231,17H165.521c-3.091-5.572-5.845-11.223-8.269-17H305.76z M288.322,135
	c-3.826,5.678-8.022,11.324-12.579,17h-88.44c-4.539-5.664-8.735-11.315-12.573-17H288.322z M262.951,167
	c-9.281,10.307-19.756,20.908-31.473,32.174c-11.544-11.099-22.036-21.728-31.413-32.174H262.951z M319.583,39
	c-0.317,5.873-0.825,11.528-1.52,17H144.939c-0.696-5.488-1.21-11.139-1.525-17H319.583z M119.5,448c-4.687,0-8.5-3.813-8.5-8.5
	c0-86.342,32.731-135.202,97.209-197.618c2.38,2.245,4.805,4.519,7.301,6.836c1.727,1.604,3.429,3.193,5.117,4.775
	c-60.212,58.013-90.16,101.436-92.465,176.459c-0.105,0.5-0.162,1.017-0.162,1.547c0,0.361,0.034,0.714,0.084,1.062
	c-0.05,2.286-0.084,4.592-0.084,6.938C128,444.187,124.187,448,119.5,448z M151.762,375h159.462c1.717,5.511,3.185,11.159,4.384,17
	H147.405C148.607,386.147,150.053,380.49,151.762,375z M157.24,360c2.426-5.79,5.158-11.441,8.231-17h132.009
	c3.091,5.572,5.845,11.223,8.269,17H157.24z M174.678,328c3.826-5.678,8.022-11.324,12.579-17h88.44
	c4.539,5.664,8.735,11.315,12.573,17H174.678z M200.049,296c9.281-10.307,19.756-20.908,31.473-32.174
	c11.544,11.099,22.036,21.728,31.413,32.174H200.049z M143.417,424c0.317-5.873,0.825-11.528,1.52-17h173.124
	c0.696,5.488,1.21,11.139,1.525,17H143.417z M343.5,448c-4.687,0-8.5-3.813-8.5-8.5c0-2.355-0.029-4.676-0.078-6.973
	c0.046-0.337,0.078-0.677,0.078-1.027c0-0.497-0.051-0.982-0.143-1.451c-1.132-38.192-9.293-68.594-26.044-97.524
	c-18.329-31.653-46.474-60.789-83.096-94.798c-4.189-3.89-8.206-7.67-12.061-11.351c-0.017-0.018-0.031-0.037-0.047-0.055
	c-0.182-0.191-0.373-0.369-0.569-0.537c-36.996-35.386-58.965-61.644-74.223-88.382C119.579,103.693,111,68.564,111,23.5
	c0-4.687,3.813-8.5,8.5-8.5s8.5,3.813,8.5,8.5c0,2.355,0.029,4.676,0.078,6.973C128.032,30.81,128,31.151,128,31.5
	c0,0.497,0.051,0.982,0.143,1.451c1.132,38.192,9.293,68.594,26.044,97.524c18.329,31.653,46.474,60.789,83.096,94.798
	c4.189,3.89,8.206,7.67,12.061,11.351c0.017,0.018,0.031,0.037,0.047,0.055c0.185,0.194,0.378,0.375,0.577,0.544
	c36.991,35.382,58.958,61.638,74.215,88.374C343.421,359.307,352,394.436,352,439.5C352,444.187,348.187,448,343.5,448z"/>
<g>
</g>
<g>
</g>
<g>
</g>
<g>
</g>
<g>
</g>
<g>
</g>
<g>
</g>
<g>
</g>
<g>
</g>
<g>
</g>
<g>
</g>
<g>
</g>
<g>
</g>
<g>
</g>
<g>
</g>
</svg>
