<?xml version="1.0" encoding="iso-8859-1"?>
<!-- Generator: Adobe Illustrator 19.0.0, SVG Export Plug-In . SVG Version: 6.00 Build 0)  -->
<svg version="1.1" id="Capa_1" xmlns="http://www.w3.org/2000/svg" xmlns:xlink="http://www.w3.org/1999/xlink" x="0px" y="0px"
	 viewBox="0 0 463.013 463.013" style="enable-background:new 0 0 463.013 463.013;" xml:space="preserve">
<path d="M295.007,183.506c0-20.406-13.765-32.116-46.022-48c32.257-15.884,46.022-27.594,46.022-48
	c0-20.411-13.773-32.122-46.049-48.013c22.041-10.922,33.29-18.867,39.61-27.583c1.655-2.282,1.89-5.299,0.609-7.811
	s-3.862-4.092-6.681-4.092L180.511,0c0,0,0,0,0,0c-2.818,0-5.399,1.581-6.68,4.091c-1.281,2.511-1.047,5.528,0.607,7.81
	c6.318,8.719,17.57,16.667,39.617,27.592c-32.276,15.891-46.049,27.602-46.049,48.013c0,20.406,13.765,32.116,46.022,48
	c-32.257,15.884-46.022,27.594-46.022,48c0,20.406,13.765,32.116,46.022,48c-32.257,15.884-46.022,27.594-46.022,48
	c0,20.406,13.765,32.116,46.022,48c-32.257,15.884-46.022,27.594-46.022,48c0,20.412,13.773,32.123,46.049,48.013
	c-22.041,10.922-33.29,18.868-39.61,27.582c-1.655,2.282-1.89,5.299-0.609,7.811s3.862,4.092,6.681,4.092l101.985,0.008c0,0,0,0,0,0
	c2.818,0,5.399-1.581,6.68-4.091c1.281-2.511,1.047-5.528-0.607-7.81c-6.318-8.719-17.57-16.667-39.617-27.593
	c32.276-15.891,46.049-27.602,46.049-48.013c0-20.406-13.765-32.116-46.022-48c32.257-15.884,46.022-27.594,46.022-48
	c0-20.406-13.765-32.116-46.022-48C281.242,215.622,295.007,203.912,295.007,183.506z M184.803,384.006
	c-1.34-2.786-1.796-5.546-1.796-8.5s0.456-5.714,1.796-8.5h93.407c1.34,2.786,1.796,5.546,1.796,8.5s-0.456,5.714-1.796,8.5H184.803
	z M262.361,399.006c-7.174,4.566-17.135,9.811-30.855,16.228c-13.72-6.417-23.681-11.661-30.855-16.228H262.361z M200.652,352.006
	c7.174-4.566,17.135-9.811,30.854-16.228c13.72,6.417,23.68,11.661,30.854,16.228H200.652z M184.803,288.006
	c-1.34-2.786-1.796-5.546-1.796-8.5s0.456-5.714,1.796-8.5h93.407c1.34,2.786,1.796,5.546,1.796,8.5s-0.456,5.714-1.796,8.5H184.803
	z M262.361,303.006c-7.174,4.566-17.135,9.811-30.855,16.228c-13.72-6.417-23.681-11.661-30.855-16.228H262.361z M200.652,256.006
	c7.174-4.566,17.135-9.811,30.854-16.228c13.72,6.417,23.68,11.661,30.854,16.228H200.652z M184.803,192.006
	c-1.34-2.786-1.796-5.546-1.796-8.5s0.456-5.714,1.796-8.5h93.407c1.34,2.786,1.796,5.546,1.796,8.5s-0.456,5.714-1.796,8.5H184.803
	z M262.361,207.006c-7.174,4.566-17.135,9.811-30.855,16.228c-13.72-6.417-23.681-11.661-30.855-16.228H262.361z M278.21,79.006
	c1.34,2.786,1.796,5.546,1.796,8.5s-0.456,5.714-1.796,8.5h-93.407c-1.34-2.786-1.796-5.546-1.796-8.5s0.456-5.714,1.796-8.5H278.21
	z M200.652,64.006c7.174-4.566,17.135-9.811,30.854-16.228c13.72,6.417,23.68,11.661,30.854,16.228H200.652z M262.361,111.006
	c-7.174,4.566-17.135,9.811-30.855,16.228c-13.72-6.417-23.681-11.661-30.855-16.228H262.361z M200.652,160.006
	c7.174-4.566,17.135-9.811,30.854-16.228c13.72,6.417,23.68,11.661,30.854,16.228H200.652z M262.406,15.006
	c-7.311,4.646-17.355,9.899-30.899,16.23c-13.548-6.333-23.594-11.588-30.906-16.235L262.406,15.006z M200.609,448.006
	c7.311-4.646,17.354-9.898,30.898-16.23c13.548,6.333,23.594,11.588,30.906,16.236L200.609,448.006z"/>
<g>
</g>
<g>
</g>
<g>
</g>
<g>
</g>
<g>
</g>
<g>
</g>
<g>
</g>
<g>
</g>
<g>
</g>
<g>
</g>
<g>
</g>
<g>
</g>
<g>
</g>
<g>
</g>
<g>
</g>
</svg>
