<?xml version="1.0" encoding="iso-8859-1"?>
<!-- Generator: Adobe Illustrator 19.0.0, SVG Export Plug-In . SVG Version: 6.00 Build 0)  -->
<svg version="1.1" id="Capa_1" xmlns="http://www.w3.org/2000/svg" xmlns:xlink="http://www.w3.org/1999/xlink" x="0px" y="0px"
	 viewBox="0 0 463.002 463.002" style="enable-background:new 0 0 463.002 463.002;" xml:space="preserve">
<g>
	<path d="M380.125,121.657C350.807,50.877,271.029,15.97,199.637,41.305l-9.449-22.81c-0.001-0.001-0.001-0.003-0.002-0.004
		s-0.001-0.003-0.002-0.004l-5.739-13.854c-1.586-3.827-5.973-5.644-9.799-4.059c-3.827,1.585-5.644,5.972-4.059,9.799l2.934,7.084
		c-40.004,18.562-71.135,50.963-88.115,91.955c-17.939,43.31-17.94,91.012,0,134.321s51.67,77.041,94.98,94.98
		c19.286,7.989,39.444,12.41,59.697,13.283v16.006h-0.5c-8.547,0-15.5,6.953-15.5,15.5v32c0,0.169,0.014,0.334,0.025,0.5h-16.525
		c-12.958,0-23.5,10.542-23.5,23.5v16c0,4.143,3.358,7.5,7.5,7.5h112c4.142,0,7.5-3.357,7.5-7.5v-16c0-12.958-10.542-23.5-23.5-23.5
		h-16.525c0.011-0.166,0.025-0.331,0.025-0.5v-32c0-8.547-6.953-15.5-15.5-15.5h-0.5v-16.008
		c17.794-0.775,35.512-4.298,52.632-10.566l1.957,4.726c1.196,2.889,3.989,4.632,6.932,4.632c0.957,0,1.929-0.185,2.867-0.573
		c3.827-1.585,5.644-5.972,4.059-9.799l-4.761-11.494c-0.001-0.002-0.001-0.004-0.002-0.006s-0.002-0.004-0.003-0.006l-9.448-22.81
		C377.715,273.53,409.442,192.435,380.125,121.657z M296.084,439.502v8.5h-97v-8.5c0-4.687,3.813-8.5,8.5-8.5h80
		C292.271,431.002,296.084,434.815,296.084,439.502z M256.084,383.502v32c0,0.169,0.014,0.334,0.025,0.5h-17.05
		c0.011-0.166,0.025-0.331,0.025-0.5v-32c0-0.275,0.224-0.5,0.5-0.5h16C255.86,383.002,256.084,383.226,256.084,383.502z
		 M128.83,225.747c-21.783-52.59-5.925-111.533,35.091-146.742l-11.109,20.364c-4.176,7.655-4.657,16.666-1.32,24.722l2.779,6.709
		c0.858,2.071,2.598,3.65,4.743,4.304c2.145,0.655,4.469,0.314,6.337-0.928l9.934-6.602l-12.837,21.828
		c-1.193,2.027-1.365,4.498-0.464,6.672l3.122,7.537l-2.402,1.308c-8.458,4.604-11.828,15.017-7.672,23.703l3.06,6.396
		c2.889,6.04,8.805,9.904,15.321,10.261c-2.171,5.596-2.153,11.992,0.446,17.892l1.702,3.863l-1.404,16.319
		c-1.397,16.233,6.163,31.924,19.729,40.948l5.758,3.83c9.472,6.299,21.782,6.405,31.359,0.275l27.711-17.736l8.938,4.867
		c8.506,4.632,18.118,6.961,27.801,6.702l0.505-0.013l4.7,11.348c-1.299,0.589-2.608,1.166-3.936,1.716
		C231.261,322.405,155.945,291.208,128.83,225.747z M198.373,57.852c2.787-1.155,5.594-2.197,8.412-3.141l-1.457,6.602L193.89,59.82
		C195.368,59.142,196.858,58.48,198.373,57.852z M374.486,185.224c-2.052-0.93-4.413-0.886-6.43,0.117l-5.265,2.617
		c1.935-2.119,4.002-4.461,6.086-6.948c2.658-3.173,5.008-6.189,7.087-9.071c0.164,4.682,0.069,9.348-0.277,13.98
		C375.31,185.656,374.912,185.417,374.486,185.224z M366.266,127.397c0.031,0.074,0.058,0.148,0.089,0.222l-13.157,7.996
		c-2.459,0.923-5.493,0.842-7.073-1.398l-3.359-4.762l20.847-7.989C364.536,123.415,365.432,125.384,366.266,127.397z
		 M356.333,108.193l-27.936,10.706c-2.161,0.827-3.818,2.606-4.491,4.82s-0.287,4.615,1.046,6.506l8.916,12.639
		c3.793,5.378,9.918,8.302,16.468,8.302c3.047,0,6.187-0.633,9.226-1.947c0.317-0.137,0.624-0.296,0.918-0.475l10.871-6.607
		c0.367,1.316,0.719,2.633,1.042,3.953c-0.89,9.216-15.942,27.516-27.837,39.273l-35.798-30.146
		c-3.168-2.67-7.899-2.264-10.568,0.905c-2.668,3.168-2.263,7.899,0.906,10.567l37.633,31.692
		c8.326,7.013,19.845,8.684,29.767,4.434l3.175,11.945c0.07,0.262,0.174,0.503,0.269,0.75c-9.257,29.019-28.694,54.62-55.945,71.058
		l-6.148-14.842c-1.188-2.868-4.041-4.709-7.121-4.627l-5.655,0.144c-7.046,0.185-14.05-1.508-20.245-4.881l-12.833-6.988
		c-2.403-1.309-5.327-1.204-7.63,0.27l-31.446,20.128c-4.572,2.925-10.446,2.874-14.965-0.132l-5.758-3.829
		c-9.002-5.989-14.019-16.401-13.092-27.174l1.569-18.229c0.108-1.255-0.101-2.516-0.609-3.667l-2.475-5.619
		c-1.683-3.819-0.35-8.22,3.169-10.464l28.175-17.957c4.121-2.626,9.03-3.559,13.831-2.627l22.36,4.346
		c2.267,0.443,4.607-0.187,6.35-1.701l24.772-21.523c0.781-0.678,1.413-1.51,1.856-2.444l2.603-5.481
		c2.653-5.588,2.804-12.065,0.413-17.771s-7.114-10.141-12.958-12.168c-2.449-0.849-5.165-0.373-7.18,1.259l-18.887,15.307
		l-18.142-6.593c-4.719-1.716-9.855-0.579-13.408,2.966c-2.427,2.42-3.734,5.582-3.776,8.848l-2.146-0.741
		c-0.519-0.179-1.055-0.301-1.599-0.363c-10.08-1.137-19.688,4.273-23.916,13.492l-4.401,9.599
		c-0.339,0.738-0.555,1.527-0.641,2.335l-1.473,13.891l-7.796,0.953c-1.325,0.163-2.594-0.537-3.168-1.737l-3.06-6.396
		c-0.711-1.486-0.135-3.268,1.313-4.056l8.326-4.533c3.368-1.834,4.811-5.914,3.343-9.457l-4.273-10.316l11.485-19.529
		c1.612-2.743,2.634-5.731,3.038-8.883l1.665-12.984c0.374-2.913-0.987-5.775-3.481-7.325c-2.493-1.548-5.662-1.502-8.108,0.125
		l-17.12,11.377c-0.881-3.355-0.458-6.917,1.23-10.014l17.951-32.905l21.489,2.806c3.436,0.445,6.833-0.485,9.56-2.626
		c2.599-2.041,4.274-4.933,4.754-8.183l3.096-14.029c0.088-0.397,0.133-0.793,0.156-1.186c8.127-1.585,16.292-2.359,24.395-2.359
		C290.905,48.07,332.565,70.339,356.333,108.193z M198.225,184.11l0.622-5.87l3.89-8.482c1.419-3.096,4.545-5.014,7.887-4.892
		l17.034,5.884c-5.917,0.251-11.691,2.053-16.79,5.303L198.225,184.11z M237.197,160.158l-2.651-4.678l16.408,5.963
		c2.473,0.898,5.239,0.435,7.284-1.222l18.033-14.614c0.41,0.502,0.75,1.068,1.009,1.688c0.756,1.805,0.71,3.772-0.129,5.54
		l-1.93,4.065l-20.829,18.097l-18.771-3.648c-0.842-0.163-1.685-0.295-2.529-0.395c1.277-0.436,2.442-1.217,3.345-2.302
		C238.433,166.255,238.736,162.872,237.197,160.158z M186.127,324.854c-39.607-16.406-70.456-47.254-86.862-86.862
		c-16.406-39.607-16.406-83.233,0-122.841c15.446-37.289,43.695-66.81,80-83.829l6.513,15.723
		c-68.397,32.568-100.124,113.663-70.807,184.442c22.868,55.206,76.423,88.59,132.764,88.586
		c15.892-0.001,32.013-2.662,47.723-8.237l6.514,15.725C264.266,341.198,223.417,340.3,186.127,324.854z"/>
	<path d="M153.371,155.175l-5.241-16.297c-1.269-3.945-5.496-6.116-9.436-4.844c-3.943,1.268-6.112,5.492-4.843,9.436l5.241,16.297
		c1.022,3.181,3.968,5.206,7.138,5.206c0.761,0,1.535-0.116,2.298-0.362C152.471,163.343,154.64,159.118,153.371,155.175z"/>
	<path d="M253.926,129.119c0.957,0,1.929-0.185,2.867-0.573l5.274-2.185c3.827-1.585,5.644-5.972,4.059-9.799
		s-5.973-5.642-9.799-4.059l-5.274,2.185c-3.827,1.585-5.644,5.972-4.059,9.799C248.191,127.376,250.983,129.119,253.926,129.119z"
		/>
	<path d="M273.609,102.612l22.781,7.556c0.784,0.26,1.579,0.383,2.362,0.383c3.145,0,6.074-1.993,7.118-5.141
		c1.304-3.932-0.826-8.176-4.758-9.48l-22.781-7.556c-3.932-1.303-8.176,0.827-9.479,4.758
		C267.547,97.063,269.677,101.307,273.609,102.612z"/>
</g>
<g>
</g>
<g>
</g>
<g>
</g>
<g>
</g>
<g>
</g>
<g>
</g>
<g>
</g>
<g>
</g>
<g>
</g>
<g>
</g>
<g>
</g>
<g>
</g>
<g>
</g>
<g>
</g>
<g>
</g>
</svg>
