<?xml version="1.0" encoding="iso-8859-1"?>
<!-- Generator: Adobe Illustrator 19.0.0, SVG Export Plug-In . SVG Version: 6.00 Build 0)  -->
<svg version="1.1" id="Capa_1" xmlns="http://www.w3.org/2000/svg" xmlns:xlink="http://www.w3.org/1999/xlink" x="0px" y="0px"
	 viewBox="0 0 462.992 462.992" style="enable-background:new 0 0 462.992 462.992;" xml:space="preserve">
<g>
	<path d="M231.492,127.992c-57.07,0-103.5,46.43-103.5,103.5s46.43,103.5,103.5,103.5s103.5-46.43,103.5-103.5
		S288.562,127.992,231.492,127.992z M231.492,319.992c-48.799,0-88.5-39.701-88.5-88.5s39.701-88.5,88.5-88.5s88.5,39.701,88.5,88.5
		S280.291,319.992,231.492,319.992z"/>
	<path d="M279.492,223.992h-40.5v-40.5c0-4.142-3.357-7.5-7.5-7.5s-7.5,3.358-7.5,7.5v40.5h-40.5c-4.143,0-7.5,3.358-7.5,7.5
		s3.357,7.5,7.5,7.5h40.5v40.5c0,4.142,3.357,7.5,7.5,7.5s7.5-3.358,7.5-7.5v-40.5h40.5c4.143,0,7.5-3.358,7.5-7.5
		S283.634,223.992,279.492,223.992z"/>
	<path d="M87.492,63.992h-32c-4.143,0-7.5,3.358-7.5,7.5s3.357,7.5,7.5,7.5h32c4.143,0,7.5-3.358,7.5-7.5
		S91.634,63.992,87.492,63.992z"/>
	<path d="M120.57,45.618c4.804-2.874,9.721-5.581,14.701-8.06c3.708-1.846,5.218-6.348,3.372-10.056
		c-1.845-3.708-6.347-5.218-10.056-3.373c-5.698,2.836-11.327,5.939-16.803,9.255c-10.123-10.698-24.437-17.392-40.292-17.392
		c-30.603,0-55.5,24.897-55.5,55.5c0,15.856,6.694,30.169,17.392,40.292c-3.375,5.574-6.529,11.306-9.408,17.11
		c-1.841,3.71-0.324,8.211,3.386,10.051c1.071,0.531,2.208,0.783,3.327,0.783c2.76,0,5.415-1.529,6.725-4.169
		c2.519-5.078,5.273-10.094,8.202-14.99c7.732,4.094,16.536,6.423,25.876,6.423c30.603,0,55.5-24.897,55.5-55.5
		C126.992,62.152,124.662,53.349,120.57,45.618z M71.492,111.992c-22.332,0-40.5-18.168-40.5-40.5s18.168-40.5,40.5-40.5
		c13.208,0,24.957,6.357,32.355,16.17c0.023,0.037,0.041,0.076,0.065,0.113c0.18,0.279,0.376,0.542,0.586,0.79
		c4.712,6.619,7.495,14.701,7.495,23.427C111.992,93.824,93.824,111.992,71.492,111.992z"/>
	<path d="M7.502,237.076c4.113,0,7.465-3.317,7.499-7.438c0.136-16.315,2.105-32.571,5.854-48.317
		c0.96-4.029-1.529-8.074-5.559-9.033c-4.039-0.961-8.074,1.53-9.033,5.559c-4.01,16.841-6.116,34.224-6.262,51.666
		c-0.034,4.142,3.296,7.528,7.438,7.562C7.46,237.076,7.48,237.076,7.502,237.076z"/>
	<path d="M20.007,278.046c-0.886-4.046-4.88-6.609-8.932-5.721c-4.046,0.886-6.607,4.885-5.721,8.931
		c3.719,16.975,9.38,33.549,16.827,49.262c1.282,2.706,3.975,4.29,6.782,4.29c1.076,0,2.17-0.233,3.207-0.725
		c3.743-1.774,5.34-6.246,3.565-9.989C28.776,309.405,23.483,293.913,20.007,278.046z"/>
	<path d="M95.62,400.058c-12.645-10.206-24.159-21.85-34.222-34.609c-2.563-3.252-7.28-3.81-10.533-1.245
		c-3.252,2.565-3.81,7.281-1.244,10.534c10.756,13.638,23.063,26.084,36.579,36.993c1.387,1.12,3.052,1.664,4.705,1.664
		c2.189,0,4.359-0.954,5.841-2.79C99.347,407.382,98.843,402.66,95.62,400.058z"/>
	<path d="M278.093,20.019c15.86,3.479,31.348,8.772,46.032,15.734c1.037,0.492,2.131,0.725,3.208,0.725
		c2.807,0,5.499-1.583,6.782-4.289c1.774-3.743,0.179-8.215-3.564-9.99c-15.709-7.448-32.277-13.111-49.245-16.832
		c-4.045-0.889-8.045,1.673-8.933,5.719C271.487,15.132,274.047,19.131,278.093,20.019z"/>
	<path d="M462.991,230.85c-0.021-4.13-3.374-7.464-7.499-7.464c-0.013,0-0.025,0-0.037,0c-4.143,0.02-7.483,3.394-7.464,7.536
		l0.001,0.57c0,16.128-1.78,32.208-5.29,47.79c-0.91,4.041,1.627,8.055,5.668,8.965c0.555,0.125,1.109,0.185,1.655,0.185
		c3.43,0,6.524-2.367,7.31-5.853c3.754-16.663,5.657-33.851,5.657-51.086L462.991,230.85z"/>
	<path d="M179.623,21.05c0.574,0,1.158-0.066,1.741-0.205C197.11,17.1,213.368,15.134,229.685,15
		c4.142-0.034,7.473-3.419,7.438-7.561C237.089,3.317,233.739,0,229.625,0c-0.021,0-0.042,0-0.063,0
		c-17.443,0.143-34.827,2.246-51.669,6.251c-4.029,0.958-6.52,5.002-5.562,9.032C173.152,18.73,176.228,21.05,179.623,21.05z"/>
	<path d="M366.403,400.828c-12.722,10.15-26.587,18.862-41.209,25.894c-3.733,1.795-5.304,6.277-3.509,10.01
		c1.291,2.685,3.972,4.251,6.764,4.251c1.09,0,2.197-0.239,3.245-0.743c15.637-7.52,30.462-16.834,44.064-27.687
		c3.237-2.583,3.769-7.302,1.185-10.54C374.361,398.776,369.642,398.244,366.403,400.828z"/>
	<path d="M405.907,98.421c1.653,0,3.318-0.544,4.705-1.664c3.224-2.601,3.728-7.323,1.127-10.546
		c-10.907-13.516-23.354-25.824-36.991-36.582c-3.254-2.566-7.969-2.008-10.533,1.244c-2.565,3.252-2.009,7.968,1.244,10.534
		c12.759,10.064,24.402,21.579,34.606,34.224C401.547,97.467,403.717,98.421,405.907,98.421z"/>
	<path d="M279.235,442.712c-15.57,3.503-31.633,5.28-47.743,5.28l-0.639-0.001c-0.006,0-0.011,0-0.017,0
		c-4.135,0-7.491,3.347-7.5,7.483c-0.009,4.142,3.341,7.507,7.483,7.517l0.672,0.001c17.216,0,34.388-1.899,51.036-5.646
		c4.041-0.909,6.58-4.922,5.671-8.963C287.29,444.342,283.284,441.803,279.235,442.712z"/>
	<path d="M182.515,442.432c-15.818-3.658-31.245-9.127-45.852-16.255c-3.723-1.816-8.213-0.271-10.029,3.451
		c-1.816,3.723-0.271,8.213,3.451,10.03c15.624,7.625,32.128,13.476,49.051,17.389c0.568,0.131,1.137,0.194,1.696,0.194
		c3.412,0,6.499-2.345,7.301-5.812C189.066,447.393,186.551,443.365,182.515,442.432z"/>
	<path d="M436.716,321.717c-3.729-1.795-8.214-0.226-10.01,3.508c-7.029,14.614-15.739,28.472-25.886,41.188
		c-2.584,3.238-2.053,7.957,1.185,10.54c1.382,1.103,3.033,1.638,4.673,1.638c2.203,0,4.387-0.967,5.867-2.823
		c10.849-13.596,20.161-28.414,27.679-44.042C442.02,327.995,440.45,323.513,436.716,321.717z"/>
	<path d="M449.742,188.375c0.56,0,1.127-0.063,1.695-0.194c4.035-0.933,6.552-4.96,5.619-8.996
		c-3.911-16.93-9.76-33.438-17.385-49.068c-1.814-3.722-6.305-5.268-10.028-3.452c-3.723,1.816-5.269,6.306-3.452,10.029
		c7.127,14.61,12.595,30.042,16.25,45.867C443.242,186.03,446.329,188.375,449.742,188.375z"/>
</g>
<g>
</g>
<g>
</g>
<g>
</g>
<g>
</g>
<g>
</g>
<g>
</g>
<g>
</g>
<g>
</g>
<g>
</g>
<g>
</g>
<g>
</g>
<g>
</g>
<g>
</g>
<g>
</g>
<g>
</g>
</svg>
