<?xml version="1.0" encoding="iso-8859-1"?>
<!-- Generator: Adobe Illustrator 19.0.0, SVG Export Plug-In . SVG Version: 6.00 Build 0)  -->
<svg version="1.1" id="Capa_1" xmlns="http://www.w3.org/2000/svg" xmlns:xlink="http://www.w3.org/1999/xlink" x="0px" y="0px"
	 viewBox="0 0 463 463" style="enable-background:new 0 0 463 463;" xml:space="preserve">
<g>
	<path d="M395.195,67.805C351.471,24.08,293.336,0,231.5,0S111.529,24.08,67.805,67.805S0,169.664,0,231.5
		s24.08,119.971,67.805,163.695S169.664,463,231.5,463s119.971-24.08,163.695-67.805S463,293.336,463,231.5
		S438.92,111.529,395.195,67.805z M384.589,384.589C343.697,425.48,289.329,448,231.5,448s-112.197-22.52-153.089-63.411
		C37.52,343.697,15,289.329,15,231.5S37.52,119.303,78.411,78.411C119.303,37.52,173.671,15,231.5,15s112.197,22.52,153.089,63.411
		C425.48,119.303,448,173.671,448,231.5S425.48,343.697,384.589,384.589z"/>
	<path d="M231.5,32C121.495,32,32,121.495,32,231.5S121.495,431,231.5,431S431,341.505,431,231.5S341.505,32,231.5,32z M231.5,416
		C129.766,416,47,333.234,47,231.5S129.766,47,231.5,47S416,129.766,416,231.5S333.234,416,231.5,416z"/>
	<path d="M136.604,294.403c-1.381-1.382-2.903-2.571-4.535-3.553c1.866-3.367,2.931-7.236,2.931-11.35v-48
		c0-4.353-1.194-8.43-3.265-11.93c1.573-0.963,3.045-2.116,4.381-3.454l32-32c1.349-1.349,2.476-2.834,3.427-4.396
		C175.049,181.8,179.136,183,183.5,183h48c12.958,0,23.5-10.542,23.5-23.5c0-0.172-0.009-0.342-0.013-0.512
		c0.171,0.004,0.341,0.012,0.513,0.012c6.281,0,12.183-2.446,16.616-6.884l32-32c9.162-9.162,9.162-24.069,0.003-33.228
		C299.683,82.446,293.781,80,287.5,80s-12.183,2.446-16.616,6.884l-32,32c-4.712,4.712-6.981,10.942-6.848,17.129
		C231.858,136.01,231.68,136,231.5,136h-48c-8.475,0-15.916,4.511-20.05,11.257c-3.58-2.123-7.676-3.257-11.95-3.257
		c-6.281,0-12.183,2.446-16.616,6.884l-32,32c-7.731,7.731-8.912,19.54-3.598,28.547C92.524,215.562,88,223.012,88,231.5v48
		c0,8.549,4.59,16.044,11.434,20.156c-4.931,8.931-3.631,20.409,3.935,27.975l32.481,32.481c4.436,4.442,10.338,6.888,16.619,6.888
		c6.281,0,12.183-2.446,16.616-6.884c9.162-9.162,9.162-24.069,0-33.231L136.604,294.403z M103,231.5c0-4.687,3.813-8.5,8.5-8.5
		s8.5,3.813,8.5,8.5v48c0,4.687-3.813,8.5-8.5,8.5s-8.5-3.813-8.5-8.5V231.5z M249.491,129.491l32.003-32.003
		C283.096,95.883,285.229,95,287.5,95s4.404,0.883,6.009,2.491c1.606,1.606,2.491,3.74,2.491,6.009s-0.885,4.403-2.491,6.009
		l-32.003,32.003c-1.602,1.604-3.735,2.487-6.006,2.487s-4.404-0.883-6.009-2.491C246.177,138.196,246.177,132.804,249.491,129.491z
		 M183.5,151h48c4.687,0,8.5,3.813,8.5,8.5s-3.813,8.5-8.5,8.5h-48c-4.687,0-8.5-3.813-8.5-8.5S178.813,151,183.5,151z
		 M113.491,193.491l32.003-32.003c1.602-1.604,3.735-2.487,6.006-2.487s4.404,0.883,6.009,2.491c1.606,1.606,2.491,3.74,2.491,6.009
		s-0.885,4.403-2.491,6.009l-32.003,32.003c-1.602,1.604-3.735,2.487-6.006,2.487s-4.404-0.883-6.009-2.491
		C110.177,202.196,110.177,196.804,113.491,193.491z M158.475,349.513c-1.602,1.604-3.735,2.487-6.006,2.487
		s-4.404-0.883-6.009-2.491l-32.484-32.484c-3.313-3.313-3.313-8.705,0.003-12.022c1.602-1.604,3.735-2.487,6.006-2.487
		s4.404,0.883,6.009,2.491l32.484,32.484C161.792,340.804,161.792,346.196,158.475,349.513z"/>
	<path d="M376.116,254.884l-31.997-31.997C339.683,218.446,333.781,216,327.5,216c-4.274,0-8.371,1.135-11.95,3.257
		C311.415,212.511,303.975,208,295.5,208h-48c-8.475,0-15.916,4.511-20.05,11.257c-3.58-2.123-7.676-3.257-11.95-3.257
		c-6.281,0-12.183,2.446-16.616,6.884l-32,32c-9.162,9.162-9.162,24.069-0.003,33.228c4.436,4.442,10.338,6.888,16.619,6.888
		s12.183-2.446,16.616-6.884l32-32c1.349-1.349,2.476-2.834,3.427-4.396C239.049,253.8,243.136,255,247.5,255h48
		c4.364,0,8.451-1.2,11.957-3.281c0.952,1.562,2.078,3.047,3.427,4.396l27.728,27.728c-1.328,0.875-2.579,1.889-3.728,3.04l-32,32
		c-9.162,9.162-9.162,24.069-0.003,33.228c4.436,4.442,10.338,6.888,16.619,6.888s12.183-2.446,16.616-6.884l32-32
		c7.728-7.728,8.911-19.531,3.605-28.536c1.579-0.965,3.055-2.122,4.395-3.464C385.278,278.954,385.278,264.046,376.116,254.884z
		 M221.509,245.509l-32.003,32.003c-1.602,1.604-3.735,2.487-6.006,2.487s-4.404-0.883-6.009-2.491
		c-3.313-3.313-3.313-8.705,0-12.019l32.003-32.003c1.602-1.604,3.735-2.487,6.006-2.487s4.404,0.883,6.009,2.491
		c1.606,1.606,2.491,3.74,2.491,6.009S223.115,243.903,221.509,245.509z M295.5,240h-48c-4.687,0-8.5-3.813-8.5-8.5
		s3.813-8.5,8.5-8.5h48c4.687,0,8.5,3.813,8.5,8.5S300.187,240,295.5,240z M319,239.5c0-2.269,0.885-4.403,2.494-6.013
		c1.602-1.604,3.735-2.487,6.006-2.487s4.404,0.883,6.009,2.491l32,32c3.313,3.313,3.313,8.705-0.003,12.022
		c-1.602,1.604-3.735,2.487-6.006,2.487s-4.404-0.883-6.009-2.491l-32-32C319.885,243.903,319,241.769,319,239.5z M357.509,309.509
		l-32.003,32.003c-1.602,1.604-3.735,2.487-6.006,2.487s-4.404-0.883-6.009-2.491c-3.313-3.313-3.313-8.705,0-12.019l32.003-32.003
		c1.602-1.604,3.735-2.487,6.006-2.487s4.404,0.883,6.009,2.491c1.606,1.606,2.491,3.74,2.491,6.009
		S359.115,307.903,357.509,309.509z"/>
	<path d="M327.52,175c4.142,0,7.5-3.358,7.5-7.5s-3.358-7.5-7.5-7.5h-0.01c-4.142,0-7.495,3.358-7.495,7.5S323.378,175,327.52,175z"
		/>
	<path d="M215.52,87c4.142,0,7.5-3.358,7.5-7.5s-3.358-7.5-7.5-7.5h-0.01c-4.142,0-7.495,3.358-7.495,7.5S211.378,87,215.52,87z"/>
	<path d="M167.52,119c4.142,0,7.5-3.358,7.5-7.5s-3.358-7.5-7.5-7.5h-0.01c-4.142,0-7.495,3.358-7.495,7.5S163.378,119,167.52,119z"
		/>
	<path d="M367.52,207c4.142,0,7.5-3.358,7.5-7.5s-3.358-7.5-7.5-7.5h-0.01c-4.142,0-7.495,3.358-7.495,7.5S363.378,207,367.52,207z"
		/>
	<path d="M343.52,143c4.142,0,7.5-3.358,7.5-7.5s-3.358-7.5-7.5-7.5h-0.01c-4.142,0-7.495,3.358-7.495,7.5S339.378,143,343.52,143z"
		/>
	<path d="M271.52,288h-0.01c-4.142,0-7.495,3.358-7.495,7.5s3.363,7.5,7.505,7.5s7.5-3.358,7.5-7.5S275.662,288,271.52,288z"/>
	<path d="M223.52,296h-0.01c-4.142,0-7.495,3.358-7.495,7.5s3.363,7.5,7.505,7.5s7.5-3.358,7.5-7.5S227.662,296,223.52,296z"/>
	<path d="M247.52,344h-0.01c-4.142,0-7.495,3.358-7.495,7.5s3.363,7.5,7.505,7.5s7.5-3.358,7.5-7.5S251.662,344,247.52,344z"/>
	<path d="M207.52,360h-0.01c-4.142,0-7.495,3.358-7.495,7.5s3.363,7.5,7.505,7.5s7.5-3.358,7.5-7.5S211.662,360,207.52,360z"/>
</g>
<g>
</g>
<g>
</g>
<g>
</g>
<g>
</g>
<g>
</g>
<g>
</g>
<g>
</g>
<g>
</g>
<g>
</g>
<g>
</g>
<g>
</g>
<g>
</g>
<g>
</g>
<g>
</g>
<g>
</g>
</svg>
