<?xml version="1.0" encoding="iso-8859-1"?>
<!-- Generator: Adobe Illustrator 19.0.0, SVG Export Plug-In . SVG Version: 6.00 Build 0)  -->
<svg version="1.1" id="Capa_1" xmlns="http://www.w3.org/2000/svg" xmlns:xlink="http://www.w3.org/1999/xlink" x="0px" y="0px"
	 viewBox="0 0 463 463" style="enable-background:new 0 0 463 463;" xml:space="preserve">
<g>
	<path d="M446.744,120.138l-17.941-17.942c-2.929-2.928-7.678-2.928-10.606,0c-2.929,2.93-2.929,7.678,0,10.607l17.941,17.941
		c7.649,7.648,11.862,17.818,11.862,28.637V251.5c0,4.687-3.813,8.5-8.5,8.5h-4.262c-4.16-7.706-11.487-13.58-20.548-15.798
		C392.456,238.76,368.504,236,343.5,236s-48.956,2.76-71.19,8.202c-11.152,2.73-19.682,10.995-22.906,21.401
		C244.315,262.074,238.147,260,231.5,260s-12.815,2.075-17.903,5.603c-3.225-10.406-11.754-18.671-22.906-21.401
		C168.456,238.76,144.504,236,119.5,236s-48.956,2.76-71.19,8.202c-9.061,2.218-16.387,8.092-20.548,15.798H23.5
		c-4.687,0-8.5-3.813-8.5-8.5v-92.118c0-10.818,4.213-20.988,11.862-28.637l17.941-17.941c2.929-2.93,2.929-7.678,0-10.607
		c-2.929-2.928-7.678-2.928-10.606,0l-17.941,17.941C5.773,130.619,0,144.556,0,159.382V283.5C0,296.458,10.542,307,23.5,307H24
		v17.108c0,14.565,9.997,27.186,24.31,30.689C70.544,360.24,94.496,363,119.5,363s48.956-2.76,71.19-8.202
		c14.313-3.504,24.31-16.124,24.31-30.689V291.5c0-9.098,7.402-16.5,16.5-16.5s16.5,7.402,16.5,16.5v32.608
		c0,14.565,9.997,27.186,24.31,30.689C294.544,360.24,318.496,363,343.5,363s48.956-2.76,71.19-8.202
		c14.313-3.504,24.31-16.124,24.31-30.689V307h0.5c12.958,0,23.5-10.542,23.5-23.5V159.382
		C463,144.556,457.227,130.619,446.744,120.138z M23.5,292c-4.687,0-8.5-3.813-8.5-8.5v-10.097c2.638,1.027,5.503,1.597,8.5,1.597
		H24v17H23.5z M200,324.108c0,7.635-5.295,14.264-12.876,16.119C166.056,345.385,143.304,348,119.5,348s-46.556-2.615-67.624-7.772
		C44.295,338.372,39,331.743,39,324.108v-49.217c0-7.635,5.295-14.264,12.876-16.119C72.944,253.615,95.696,251,119.5,251
		s46.556,2.615,67.624,7.772c7.581,1.855,12.876,8.484,12.876,16.119V324.108z M424,324.108c0,7.635-5.295,14.264-12.876,16.119
		C390.056,345.385,367.304,348,343.5,348s-46.556-2.615-67.624-7.772c-7.581-1.855-12.876-8.484-12.876-16.119v-49.217
		c0-7.635,5.295-14.264,12.876-16.119c21.068-5.157,43.82-7.772,67.624-7.772s46.556,2.615,67.624,7.772
		c7.581,1.855,12.876,8.484,12.876,16.119V324.108z M439.5,292H439v-17h0.5c2.997,0,5.862-0.57,8.5-1.597V283.5
		C448,288.186,444.187,292,439.5,292z"/>
	<path d="M127.291,315.89c-2.603,0.072-5.224,0.109-7.791,0.109c-18.734,0-37.551-1.925-54.417-5.566
		c-4.052-0.876-8.04,1.699-8.914,5.748s1.699,8.04,5.748,8.914C79.807,328.958,99.719,331,119.5,331
		c2.706,0,5.467-0.039,8.208-0.115c4.141-0.115,7.404-3.565,7.288-7.706C134.881,319.038,131.394,315.757,127.291,315.89z"/>
	<path d="M173.917,310.433c-4.996,1.079-10.211,2.018-15.502,2.79c-4.099,0.598-6.936,4.405-6.338,8.504
		c0.545,3.731,3.75,6.418,7.412,6.418c0.36,0,0.726-0.026,1.093-0.08c5.624-0.82,11.176-1.82,16.501-2.97
		c4.049-0.874,6.622-4.865,5.748-8.914C181.957,312.133,177.966,309.558,173.917,310.433z"/>
	<path d="M351.291,315.89c-2.603,0.072-5.224,0.109-7.791,0.109c-18.734,0-37.551-1.925-54.417-5.566
		c-4.052-0.876-8.04,1.699-8.914,5.748s1.699,8.04,5.748,8.914c17.89,3.862,37.802,5.904,57.583,5.904
		c2.706,0,5.467-0.039,8.208-0.115c4.141-0.115,7.404-3.565,7.288-7.706C358.881,319.038,355.401,315.757,351.291,315.89z"/>
	<path d="M397.917,310.433c-4.996,1.079-10.211,2.018-15.502,2.79c-4.099,0.598-6.936,4.405-6.338,8.504
		c0.545,3.731,3.75,6.418,7.412,6.418c0.36,0,0.726-0.026,1.093-0.08c5.624-0.82,11.176-1.82,16.501-2.97
		c4.049-0.874,6.622-4.865,5.748-8.914C405.957,312.133,401.966,309.558,397.917,310.433z"/>
</g>
<g>
</g>
<g>
</g>
<g>
</g>
<g>
</g>
<g>
</g>
<g>
</g>
<g>
</g>
<g>
</g>
<g>
</g>
<g>
</g>
<g>
</g>
<g>
</g>
<g>
</g>
<g>
</g>
<g>
</g>
</svg>
