<?xml version="1.0" encoding="iso-8859-1"?>
<!-- Generator: Adobe Illustrator 19.0.0, SVG Export Plug-In . SVG Version: 6.00 Build 0)  -->
<svg version="1.1" id="Capa_1" xmlns="http://www.w3.org/2000/svg" xmlns:xlink="http://www.w3.org/1999/xlink" x="0px" y="0px"
	 viewBox="0 0 463 463" style="enable-background:new 0 0 463 463;" xml:space="preserve">
<g>
	<path d="M199.5,120c-2.997,0-5.862,0.57-8.5,1.597V47.5c0-12.958-10.542-23.5-23.5-23.5c-2.997,0-5.862,0.57-8.5,1.597V23.5
		C159,10.542,148.458,0,135.5,0S112,10.542,112,23.5v2.097C109.362,24.57,106.497,24,103.5,24C90.542,24,80,34.542,80,47.5v10.097
		C77.362,56.57,74.497,56,71.5,56C58.542,56,48,66.542,48,79.5v196.7c0,9.29,3.618,18.024,10.207,24.613
		C61.942,304.549,64,309.517,64,314.8v102.435c-9.29,3.138-16,11.93-16,22.266c0,12.958,10.542,23.5,23.5,23.5h128
		c12.958,0,23.5-10.542,23.5-23.5c0-10.336-6.71-19.128-16-22.266V314.8c0-5.283,2.058-10.251,5.813-14.006
		C219.382,294.225,223,285.49,223,276.2V143.5C223,130.542,212.458,120,199.5,120z M199.5,448h-128c-4.687,0-8.5-3.813-8.5-8.5
		s3.813-8.5,8.5-8.5h128c4.687,0,8.5,3.813,8.5,8.5S204.187,448,199.5,448z M208,276.2c0,5.283-2.058,10.251-5.813,14.006
		C195.618,296.775,192,305.51,192,314.8V416H79V314.8c0-9.29-3.618-18.024-10.207-24.613C65.058,286.451,63,281.483,63,276.2V79.5
		c0-4.687,3.813-8.5,8.5-8.5s8.5,3.813,8.5,8.5v8v88c0,4.143,3.358,7.5,7.5,7.5s7.5-3.357,7.5-7.5v-88v-8v-32
		c0-4.687,3.813-8.5,8.5-8.5s8.5,3.813,8.5,8.5v8v112c0,4.143,3.358,7.5,7.5,7.5s7.5-3.357,7.5-7.5v-112v-8v-24
		c0-4.687,3.813-8.5,8.5-8.5s8.5,3.813,8.5,8.5v24v8v104c0,4.143,3.358,7.5,7.5,7.5s7.5-3.357,7.5-7.5v-104v-8
		c0-4.687,3.813-8.5,8.5-8.5s8.5,3.813,8.5,8.5v96v8v56c0,4.143,3.358,7.5,7.5,7.5s7.5-3.357,7.5-7.5v-56v-8
		c0-4.687,3.813-8.5,8.5-8.5s8.5,3.813,8.5,8.5V276.2z"/>
	<path d="M404.813,300.794C411.382,294.225,415,285.49,415,276.2V79.5c0-12.958-10.542-23.5-23.5-23.5
		c-2.997,0-5.862,0.57-8.5,1.597V47.5c0-12.958-10.542-23.5-23.5-23.5c-2.997,0-5.862,0.57-8.5,1.597V23.5
		C351,10.542,340.458,0,327.5,0S304,10.542,304,23.5v2.097C301.362,24.57,298.497,24,295.5,24C282.542,24,272,34.542,272,47.5
		v74.097c-2.638-1.027-5.503-1.597-8.5-1.597c-12.958,0-23.5,10.542-23.5,23.5v132.7c0,9.29,3.618,18.024,10.207,24.613
		c3.736,3.735,5.793,8.703,5.793,13.986v102.435c-9.29,3.138-16,11.93-16,22.266c0,12.958,10.542,23.5,23.5,23.5h128
		c12.958,0,23.5-10.542,23.5-23.5c0-10.336-6.71-19.128-16-22.266V314.8C399,309.517,401.058,304.549,404.813,300.794z M255,276.2
		V143.5c0-4.687,3.813-8.5,8.5-8.5s8.5,3.813,8.5,8.5v8v56c0,4.143,3.358,7.5,7.5,7.5s7.5-3.357,7.5-7.5v-56v-8v-96
		c0-4.687,3.813-8.5,8.5-8.5s8.5,3.813,8.5,8.5v8v104c0,4.143,3.358,7.5,7.5,7.5s7.5-3.357,7.5-7.5v-104v-8v-24
		c0-4.687,3.813-8.5,8.5-8.5s8.5,3.813,8.5,8.5v24v8v112c0,4.143,3.358,7.5,7.5,7.5s7.5-3.357,7.5-7.5v-112v-8
		c0-4.687,3.813-8.5,8.5-8.5s8.5,3.813,8.5,8.5v32v8v88c0,4.143,3.358,7.5,7.5,7.5s7.5-3.357,7.5-7.5v-88v-8
		c0-4.687,3.813-8.5,8.5-8.5s8.5,3.813,8.5,8.5v196.7c0,5.283-2.058,10.251-5.813,14.006C387.618,296.775,384,305.51,384,314.8V416
		H271V314.8c0-9.29-3.618-18.024-10.207-24.613C257.058,286.451,255,281.483,255,276.2z M391.5,448h-128c-4.687,0-8.5-3.813-8.5-8.5
		s3.813-8.5,8.5-8.5h128c4.687,0,8.5,3.813,8.5,8.5S396.187,448,391.5,448z"/>
</g>
<g>
</g>
<g>
</g>
<g>
</g>
<g>
</g>
<g>
</g>
<g>
</g>
<g>
</g>
<g>
</g>
<g>
</g>
<g>
</g>
<g>
</g>
<g>
</g>
<g>
</g>
<g>
</g>
<g>
</g>
</svg>
