<?xml version="1.0" encoding="iso-8859-1"?>
<!-- Generator: Adobe Illustrator 19.0.0, SVG Export Plug-In . SVG Version: 6.00 Build 0)  -->
<svg version="1.1" id="Capa_1" xmlns="http://www.w3.org/2000/svg" xmlns:xlink="http://www.w3.org/1999/xlink" x="0px" y="0px"
	 viewBox="0 0 463.001 463.001" style="enable-background:new 0 0 463.001 463.001;" xml:space="preserve">
<g>
	<path d="M447,63.5c0-0.764-0.116-1.5-0.328-2.195V23.5c0-12.958-10.542-23.5-23.5-23.5h-96c-12.958,0-23.5,10.542-23.5,23.5
		v224.328c0,19.871-8.354,39.08-22.919,52.702c-14.758,13.801-34.011,20.655-54.21,19.303c-37.69-2.526-67.214-35.391-67.214-74.82
		V23.5c0-12.958-10.542-23.5-23.5-23.5h-96c-12.958,0-23.5,10.542-23.5,23.5v37.805C16.116,62,16,62.736,16,63.5
		s0.116,1.5,0.328,2.195v177.716c0,56.858,21.442,110.932,60.377,152.26c39.269,41.683,91.932,65.561,148.288,67.233
		c2.198,0.065,4.389,0.098,6.577,0.098c56.211,0,109.158-21.459,149.717-60.832c42.164-40.931,65.385-95.744,65.385-154.341V65.695
		C446.885,65,447,64.264,447,63.5z M327.172,15h96c4.687,0,8.5,3.813,8.5,8.5V56h-113V23.5C318.672,18.813,322.485,15,327.172,15z
		 M39.829,15h96c4.687,0,8.5,3.813,8.5,8.5V56h-113V23.5C31.329,18.813,35.142,15,39.829,15z M87.624,385.385
		c-36.303-38.534-56.295-88.955-56.295-141.974V71h113v174.014c0,46.759,34.874,85.814,79.672,89.644V447.85
		C172.194,445.935,123.81,423.795,87.624,385.385z M370.84,391.407c-35.937,34.887-82.332,54.641-131.839,56.445V334.69
		c19.389-1.63,37.49-9.635,51.999-23.205c17.586-16.447,27.673-39.649,27.673-63.657V71h113v176.828
		C431.672,302.334,410.068,353.325,370.84,391.407z"/>
	<path d="M119.676,136c-0.004,0-0.008,0-0.012,0c-4.136,0-7.493,3.35-7.5,7.488l-0.164,104c-0.006,4.142,3.346,7.505,7.488,7.512
		c0.004,0,0.008,0,0.012,0c4.136,0,7.493-3.35,7.5-7.488l0.164-104C127.171,139.37,123.818,136.006,119.676,136z"/>
	<path d="M119.752,87.997c-4.096-0.016-7.505,3.346-7.512,7.488l-0.025,15.998c-0.006,4.142,3.346,7.505,7.488,7.512
		c0.004,0,0.008,0,0.012,0c4.137,0,7.494-3.35,7.5-7.488l0.025-15.998C127.247,91.366,123.894,88.003,119.752,87.997z"/>
	<path d="M407.172,199.999c-4.142,0-7.5,3.358-7.5,7.5v16.004c0,4.142,3.358,7.5,7.5,7.5s7.5-3.358,7.5-7.5v-16.004
		C414.672,203.356,411.314,199.999,407.172,199.999z"/>
	<path d="M407.33,248.007c-4.149-0.168-7.638,3.031-7.816,7.17c-1.903,44.077-20.775,85.048-53.14,115.365
		c-3.023,2.832-3.178,7.578-0.346,10.601c1.477,1.576,3.473,2.373,5.475,2.373c1.837,0,3.679-0.671,5.126-2.026
		c35.246-33.016,55.798-77.644,57.872-125.666C414.679,251.685,411.469,248.186,407.33,248.007z"/>
</g>
<g>
</g>
<g>
</g>
<g>
</g>
<g>
</g>
<g>
</g>
<g>
</g>
<g>
</g>
<g>
</g>
<g>
</g>
<g>
</g>
<g>
</g>
<g>
</g>
<g>
</g>
<g>
</g>
<g>
</g>
</svg>
