<?xml version="1.0" encoding="iso-8859-1"?>
<!-- Generator: Adobe Illustrator 19.0.0, SVG Export Plug-In . SVG Version: 6.00 Build 0)  -->
<svg version="1.1" id="Capa_1" xmlns="http://www.w3.org/2000/svg" xmlns:xlink="http://www.w3.org/1999/xlink" x="0px" y="0px"
	 viewBox="0 0 463 463" style="enable-background:new 0 0 463 463;" xml:space="preserve">
<g>
	<path d="M431.5,48h-400C14.131,48,0,62.131,0,79.5v288c0,14.785,10.241,27.216,24,30.591v9.409c0,4.142,3.358,7.5,7.5,7.5
		s7.5-3.358,7.5-7.5V399h385v8.5c0,4.142,3.358,7.5,7.5,7.5s7.5-3.358,7.5-7.5v-9.409c13.759-3.374,24-15.806,24-30.591v-288
		C463,62.131,448.869,48,431.5,48z M448,367.5c0,9.098-7.402,16.5-16.5,16.5h-400c-9.098,0-16.5-7.402-16.5-16.5v-288
		C15,70.402,22.402,63,31.5,63h400c9.098,0,16.5,7.402,16.5,16.5V367.5z"/>
	<path d="M415.5,352h-8c-4.142,0-7.5,3.358-7.5,7.5s3.358,7.5,7.5,7.5h8c4.142,0,7.5-3.358,7.5-7.5S419.642,352,415.5,352z"/>
	<path d="M375.5,352h-8c-4.142,0-7.5,3.358-7.5,7.5s3.358,7.5,7.5,7.5h8c4.142,0,7.5-3.358,7.5-7.5S379.642,352,375.5,352z"/>
	<path d="M335.5,352h-24c-4.142,0-7.5,3.358-7.5,7.5s3.358,7.5,7.5,7.5h24c4.142,0,7.5-3.358,7.5-7.5S339.642,352,335.5,352z"/>
	<path d="M423.5,80h-384c-4.142,0-7.5,3.358-7.5,7.5v240c0,0.036,0.005,0.07,0.005,0.106c0.001,0.063,0.007,0.125,0.009,0.187
		c0.007,0.191,0.017,0.382,0.039,0.569c0.002,0.019,0.006,0.038,0.009,0.057c0.241,1.968,1.24,3.702,2.702,4.894
		c0.025,0.021,0.053,0.039,0.079,0.059c0.164,0.13,0.332,0.257,0.507,0.373c0.033,0.022,0.069,0.041,0.102,0.062
		c0.174,0.112,0.352,0.22,0.535,0.317c0.028,0.015,0.057,0.027,0.085,0.041c0.194,0.1,0.392,0.194,0.596,0.277
		c0.026,0.011,0.054,0.019,0.081,0.03c0.206,0.081,0.416,0.156,0.63,0.219c0.009,0.003,0.018,0.007,0.027,0.009
		c0.041,0.012,0.082,0.018,0.124,0.029c0.186,0.05,0.372,0.098,0.563,0.134c0.106,0.02,0.211,0.033,0.316,0.048
		c0.133,0.019,0.264,0.041,0.399,0.053c0.165,0.016,0.328,0.02,0.492,0.025c0.066,0.002,0.131,0.01,0.198,0.01h0.116
		c0.013,0,0.026,0,0.04,0h383.812c0.008,0,0.016,0.002,0.024,0.002c0.025,0,0.051-0.005,0.076-0.005
		c0.295-0.003,0.586-0.026,0.872-0.062c0.077-0.01,0.154-0.023,0.231-0.035c0.294-0.046,0.582-0.107,0.863-0.186
		c0.02-0.006,0.039-0.007,0.059-0.013c0.009-0.003,0.018-0.007,0.027-0.009c0.215-0.063,0.424-0.137,0.63-0.219
		c0.027-0.01,0.055-0.019,0.081-0.03c0.204-0.083,0.402-0.177,0.596-0.277c0.028-0.014,0.057-0.026,0.085-0.041
		c0.184-0.098,0.361-0.205,0.535-0.317c0.033-0.021,0.069-0.04,0.102-0.062c0.174-0.116,0.341-0.241,0.504-0.371
		c0.027-0.021,0.056-0.04,0.083-0.062c1.461-1.192,2.459-2.923,2.701-4.89c0.003-0.021,0.007-0.041,0.009-0.062
		c0.021-0.187,0.031-0.377,0.038-0.568c0.002-0.063,0.009-0.125,0.009-0.188c0-0.036,0.005-0.07,0.005-0.106v-240
		C431,83.358,427.642,80,423.5,80z M416,95v193.7c-8.12-15.728-18.247-30.429-30.068-43.652l13.528-13.766
		c2.903-2.954,2.862-7.703-0.092-10.606c-2.955-2.904-7.703-2.862-10.606,0.092l-13.221,13.454
		c-5.827-5.644-11.986-10.955-18.453-15.884c-0.191-0.146-0.385-0.286-0.577-0.431l19.287-28.865
		c2.301-3.444,1.375-8.101-2.069-10.402c-3.443-2.302-8.101-1.375-10.402,2.069l-19.094,28.576
		c-8.014-5.213-16.319-9.833-24.872-13.848l7.07-17.069c1.585-3.827-0.232-8.214-4.059-9.799c-3.826-1.585-8.214,0.232-9.799,4.059
		l-7.012,16.929c-8.061-3.084-16.311-5.647-24.713-7.689l3.272-16.449c0.808-4.063-1.83-8.011-5.893-8.819
		c-4.062-0.807-8.011,1.831-8.819,5.893l-3.255,16.366c-8.917-1.489-17.98-2.4-27.15-2.721V143.5c0-4.142-3.358-7.5-7.5-7.5
		s-7.5,3.358-7.5,7.5v32.639c-9.17,0.322-18.232,1.232-27.15,2.721l-3.256-16.366c-0.808-4.063-4.758-6.699-8.819-5.893
		c-4.063,0.808-6.701,4.757-5.893,8.819l3.272,16.448c-8.637,2.099-17.112,4.753-25.387,7.952l-7.121-17.192
		c-1.585-3.827-5.973-5.644-9.799-4.059c-3.827,1.585-5.644,5.973-4.059,9.799l7.198,17.376
		c-8.102,3.838-15.981,8.218-23.596,13.134l-19.098-28.582c-2.301-3.444-6.958-4.371-10.403-2.069
		c-3.444,2.301-4.37,6.959-2.069,10.403l19.265,28.832c-0.39,0.293-0.784,0.579-1.172,0.875
		c-6.467,4.928-12.626,10.24-18.453,15.884l-13.221-13.454c-2.903-2.954-7.651-2.995-10.606-0.093
		c-2.955,2.903-2.996,7.652-0.093,10.606l13.528,13.766C65.246,258.271,55.12,272.973,47,288.7V95H416z M302.115,216.593
		c-3.815-1.614-8.216,0.17-9.83,3.985L250.222,320H49.793c12.386-35.325,35.268-66.911,65.212-89.731
		c2.072-1.579,4.169-3.111,6.29-4.598c0.07-0.044,0.145-0.075,0.214-0.121c0.173-0.116,0.335-0.241,0.495-0.368
		C154.229,202.794,191.901,191,231.5,191c42.501,0,82.785,13.579,116.495,39.269c29.944,22.82,52.826,54.406,65.212,89.731H266.509
		l39.591-93.578C307.713,222.607,305.929,218.207,302.115,216.593z"/>
	<path d="M231.5,119c1.98,0,3.91-0.8,5.3-2.2c1.4-1.4,2.2-3.33,2.2-5.3c0-1.97-0.8-3.91-2.2-5.3c-1.39-1.4-3.32-2.2-5.3-2.2
		c-1.97,0-3.91,0.8-5.3,2.2c-1.4,1.39-2.2,3.32-2.2,5.3c0,1.97,0.8,3.91,2.2,5.3C227.59,118.2,229.53,119,231.5,119z"/>
	<path d="M386.5,166.33c1.98,0,3.91-0.8,5.3-2.19c1.4-1.4,2.2-3.33,2.2-5.31c0-1.97-0.8-3.9-2.2-5.3c-1.39-1.4-3.33-2.2-5.3-2.2
		c-1.97,0-3.91,0.8-5.3,2.2c-1.4,1.4-2.2,3.33-2.2,5.3c0,1.98,0.8,3.91,2.2,5.31C382.59,165.53,384.52,166.33,386.5,166.33z"/>
	<path d="M76.5,166.33c1.97,0,3.91-0.8,5.3-2.19c1.4-1.4,2.2-3.33,2.2-5.31c0-1.97-0.8-3.9-2.2-5.3c-1.39-1.4-3.33-2.2-5.3-2.2
		c-1.97,0-3.91,0.8-5.3,2.2c-1.4,1.4-2.2,3.33-2.2,5.3c0,1.98,0.8,3.91,2.2,5.31C72.59,165.53,74.53,166.33,76.5,166.33z"/>
</g>
<g>
</g>
<g>
</g>
<g>
</g>
<g>
</g>
<g>
</g>
<g>
</g>
<g>
</g>
<g>
</g>
<g>
</g>
<g>
</g>
<g>
</g>
<g>
</g>
<g>
</g>
<g>
</g>
<g>
</g>
</svg>
