<?xml version="1.0" encoding="iso-8859-1"?>
<!-- Generator: Adobe Illustrator 19.0.0, SVG Export Plug-In . SVG Version: 6.00 Build 0)  -->
<svg version="1.1" id="Capa_1" xmlns="http://www.w3.org/2000/svg" xmlns:xlink="http://www.w3.org/1999/xlink" x="0px" y="0px"
	 viewBox="0 0 464.976 464.976" style="enable-background:new 0 0 464.976 464.976;" xml:space="preserve">
<path d="M436.488,312c-1.348,0-2.667,0.12-3.953,0.339l-34.892-64.801c3.932-4.203,6.346-9.842,6.346-16.038
	c0-6.196-2.414-11.835-6.346-16.038l34.893-64.801c1.286,0.219,2.605,0.339,3.953,0.339c12.958,0,23.5-10.542,23.5-23.5
	s-10.542-23.5-23.5-23.5s-23.5,10.542-23.5,23.5c0,6.196,2.414,11.835,6.346,16.038l-34.893,64.801
	c-1.286-0.219-2.605-0.339-3.953-0.339c-10.336,0-19.128,6.71-22.266,16h-75.469c-3.138-9.29-11.93-16-22.266-16
	c-1.348,0-2.667,0.12-3.953,0.339l-34.893-64.801c3.932-4.203,6.346-9.842,6.346-16.038s-2.414-11.835-6.346-16.038l34.893-64.801
	C257.821,46.88,259.14,47,260.488,47c12.958,0,23.5-10.542,23.5-23.5S273.446,0,260.488,0s-23.5,10.542-23.5,23.5
	c0,6.196,2.414,11.835,6.346,16.038l-34.893,64.801c-1.286-0.219-2.605-0.339-3.953-0.339c-10.336,0-19.128,6.71-22.266,16h-75.469
	c-3.138-9.29-11.93-16-22.266-16c-12.958,0-23.5,10.542-23.5,23.5c0,6.196,2.414,11.835,6.346,16.038l-34.893,64.801
	C31.155,208.12,29.835,208,28.488,208c-12.958,0-23.5,10.542-23.5,23.5S15.53,255,28.488,255c1.348,0,2.667-0.12,3.953-0.339
	l34.893,64.801c-3.932,4.203-6.346,9.842-6.346,16.038c0,6.548,2.695,12.477,7.031,16.742l-35.577,66.072
	c-1.286-0.219-2.605-0.339-3.953-0.339c-12.958,0-23.5,10.542-23.5,23.5s10.542,23.5,23.5,23.5s23.5-10.542,23.5-23.5
	c0-6.196-2.414-11.835-6.346-16.038l35.879-66.631c0.973,0.123,1.962,0.194,2.968,0.194c10.336,0,19.128-6.71,22.266-16h75.469
	c3.138,9.29,11.93,16,22.266,16c1.348,0,2.667-0.12,3.953-0.339l34.893,64.801c-3.932,4.203-6.346,9.842-6.346,16.038
	c0,12.958,10.542,23.5,23.5,23.5c10.336,0,19.128-6.71,22.266-16h75.469c3.138,9.29,11.93,16,22.266,16
	c12.958,0,23.5-10.542,23.5-23.5c0-6.196-2.414-11.835-6.346-16.038l34.893-64.801c1.286,0.219,2.605,0.339,3.953,0.339
	c12.958,0,23.5-10.542,23.5-23.5S449.446,312,436.488,312z M28.488,449.976c-4.687,0-8.5-3.813-8.5-8.5s3.813-8.5,8.5-8.5
	s8.5,3.813,8.5,8.5S33.174,449.976,28.488,449.976z M380.488,416c-10.336,0-19.128,6.71-22.266,16h-75.469
	c-3.138-9.29-11.93-16-22.266-16c-1.348,0-2.667,0.12-3.953,0.339l-34.893-64.801c3.932-4.203,6.346-9.842,6.346-16.038
	c0-6.196-2.414-11.835-6.346-16.038l34.893-64.801c1.286,0.219,2.605,0.339,3.953,0.339c10.336,0,19.128-6.71,22.266-16h75.469
	c3.138,9.29,11.93,16,22.266,16c1.348,0,2.667-0.12,3.953-0.339l34.892,64.801c-3.932,4.203-6.346,9.842-6.346,16.038
	c0,6.196,2.414,11.835,6.346,16.038l-34.893,64.801C383.155,416.12,381.835,416,380.488,416z M182.222,328h-75.469
	c-3.138-9.29-11.93-16-22.266-16c-1.348,0-2.667,0.12-3.953,0.339l-34.893-64.801c3.932-4.203,6.346-9.842,6.346-16.038
	c0-6.196-2.414-11.835-6.346-16.038l34.893-64.801C81.821,150.88,83.14,151,84.488,151c10.336,0,19.128-6.71,22.266-16h75.469
	c3.138,9.29,11.93,16,22.266,16c1.348,0,2.667-0.12,3.953-0.339l34.893,64.801c-3.932,4.203-6.346,9.842-6.346,16.038
	s2.414,11.835,6.346,16.038l-34.893,64.801c-1.286-0.219-2.605-0.339-3.953-0.339C194.152,312,185.36,318.71,182.222,328z
	 M436.488,119c4.687,0,8.5,3.813,8.5,8.5s-3.813,8.5-8.5,8.5s-8.5-3.813-8.5-8.5S431.801,119,436.488,119z M380.488,223
	c4.687,0,8.5,3.813,8.5,8.5s-3.813,8.5-8.5,8.5s-8.5-3.813-8.5-8.5S375.801,223,380.488,223z M268.988,231.5
	c0,4.687-3.813,8.5-8.5,8.5s-8.5-3.813-8.5-8.5s3.813-8.5,8.5-8.5S268.988,226.813,268.988,231.5z M260.488,15
	c4.687,0,8.5,3.813,8.5,8.5s-3.813,8.5-8.5,8.5s-8.5-3.813-8.5-8.5S255.801,15,260.488,15z M204.488,119c4.687,0,8.5,3.813,8.5,8.5
	s-3.813,8.5-8.5,8.5s-8.5-3.813-8.5-8.5S199.801,119,204.488,119z M84.488,119c4.687,0,8.5,3.813,8.5,8.5s-3.813,8.5-8.5,8.5
	s-8.5-3.813-8.5-8.5S79.801,119,84.488,119z M19.988,231.5c0-4.687,3.813-8.5,8.5-8.5s8.5,3.813,8.5,8.5s-3.813,8.5-8.5,8.5
	S19.988,236.187,19.988,231.5z M84.488,344c-4.687,0-8.5-3.813-8.5-8.5s3.813-8.5,8.5-8.5s8.5,3.813,8.5,8.5S89.174,344,84.488,344z
	 M195.988,335.5c0-4.687,3.813-8.5,8.5-8.5s8.5,3.813,8.5,8.5s-3.813,8.5-8.5,8.5S195.988,340.187,195.988,335.5z M260.488,448
	c-4.687,0-8.5-3.813-8.5-8.5s3.813-8.5,8.5-8.5s8.5,3.813,8.5,8.5S265.174,448,260.488,448z M380.488,448
	c-4.687,0-8.5-3.813-8.5-8.5s3.813-8.5,8.5-8.5s8.5,3.813,8.5,8.5S385.174,448,380.488,448z M436.488,344
	c-4.687,0-8.5-3.813-8.5-8.5s3.813-8.5,8.5-8.5s8.5,3.813,8.5,8.5S441.174,344,436.488,344z"/>
<g>
</g>
<g>
</g>
<g>
</g>
<g>
</g>
<g>
</g>
<g>
</g>
<g>
</g>
<g>
</g>
<g>
</g>
<g>
</g>
<g>
</g>
<g>
</g>
<g>
</g>
<g>
</g>
<g>
</g>
</svg>
