<?xml version="1.0" encoding="iso-8859-1"?>
<!-- Generator: Adobe Illustrator 19.0.0, SVG Export Plug-In . SVG Version: 6.00 Build 0)  -->
<svg version="1.1" id="Capa_1" xmlns="http://www.w3.org/2000/svg" xmlns:xlink="http://www.w3.org/1999/xlink" x="0px" y="0px"
	 viewBox="0 0 463 463" style="enable-background:new 0 0 463 463;" xml:space="preserve">
<g>
	<path d="M215,231.5c0-30.603-24.897-55.5-55.5-55.5c-4.142,0-7.5,3.358-7.5,7.5s3.358,7.5,7.5,7.5c22.332,0,40.5,18.168,40.5,40.5
		c0,4.142,3.358,7.5,7.5,7.5S215,235.642,215,231.5z"/>
	<path d="M319.5,48.6c12.627,0,22.9,10.273,22.9,22.9c0,4.142,3.358,7.5,7.5,7.5s7.5-3.358,7.5-7.5c0-20.898-17.002-37.9-37.9-37.9
		c-4.142,0-7.5,3.358-7.5,7.5S315.358,48.6,319.5,48.6z"/>
	<path d="M319.5,320c-18.376,0-35.15,6.973-47.829,18.405l-46.649-48.981C238.689,273.981,247,253.694,247,231.5
		c0-21.429-7.748-41.08-20.584-56.31l48.138-48.138C286.844,137.015,302.483,143,319.5,143c39.425,0,71.5-32.075,71.5-71.5
		S358.925,0,319.5,0S248,32.075,248,71.5c0,17.017,5.985,32.656,15.948,44.946l-48.138,48.138C200.58,151.748,180.929,144,159.5,144
		c-48.248,0-87.5,39.252-87.5,87.5s39.252,87.5,87.5,87.5c20.665,0,39.675-7.205,54.662-19.229l47.455,49.828
		C253.063,361.382,248,375.857,248,391.5c0,39.425,32.075,71.5,71.5,71.5s71.5-32.075,71.5-71.5S358.925,320,319.5,320z M319.5,15
		c31.154,0,56.5,25.346,56.5,56.5S350.654,128,319.5,128S263,102.654,263,71.5S288.346,15,319.5,15z M87,231.5
		c0-39.977,32.523-72.5,72.5-72.5s72.5,32.523,72.5,72.5S199.477,304,159.5,304S87,271.477,87,231.5z M319.5,448
		c-31.154,0-56.5-25.346-56.5-56.5s25.346-56.5,56.5-56.5s56.5,25.346,56.5,56.5S350.654,448,319.5,448z"/>
	<path d="M319.5,353.6c-4.142,0-7.5,3.358-7.5,7.5s3.358,7.5,7.5,7.5c12.627,0,22.9,10.273,22.9,22.9c0,4.142,3.358,7.5,7.5,7.5
		s7.5-3.358,7.5-7.5C357.4,370.602,340.398,353.6,319.5,353.6z"/>
</g>
<g>
</g>
<g>
</g>
<g>
</g>
<g>
</g>
<g>
</g>
<g>
</g>
<g>
</g>
<g>
</g>
<g>
</g>
<g>
</g>
<g>
</g>
<g>
</g>
<g>
</g>
<g>
</g>
<g>
</g>
</svg>
