<?xml version="1.0" encoding="iso-8859-1"?>
<!-- Generator: Adobe Illustrator 19.0.0, SVG Export Plug-In . SVG Version: 6.00 Build 0)  -->
<svg version="1.1" id="Capa_1" xmlns="http://www.w3.org/2000/svg" xmlns:xlink="http://www.w3.org/1999/xlink" x="0px" y="0px"
	 viewBox="0 0 463 463" style="enable-background:new 0 0 463 463;" xml:space="preserve">
<g>
	<path d="M415.5,280c-6.405,0-12.515,1.282-18.095,3.59l-85.351-131.428c4.287-4.26,6.946-10.156,6.946-16.662V127h32.5
		c8.547,0,15.5-6.953,15.5-15.5v-32c0-8.547-6.953-15.5-15.5-15.5h-336C6.953,64,0,70.953,0,79.5v32c0,8.547,6.953,15.5,15.5,15.5
		H32v8.5c0,10.336,6.71,19.128,16,22.266v146.832C25.36,308.205,8,327.861,8,351.5C8,377.691,29.309,399,55.5,399
		c16.782,0,31.548-8.756,40-21.932c8.452,13.176,23.218,21.932,40,21.932s31.548-8.756,40-21.932
		c8.452,13.176,23.218,21.932,40,21.932c26.191,0,47.5-21.309,47.5-47.5c0-23.639-17.36-43.295-40-46.902V157.766
		c9.29-3.138,16-11.93,16-22.266V127h33v8.5c0,12.958,10.542,23.5,23.5,23.5c1.011,0,2.005-0.071,2.982-0.196l86.141,132.646
		C374.459,300.168,368,313.09,368,327.5c0,26.191,21.309,47.5,47.5,47.5s47.5-21.309,47.5-47.5S441.691,280,415.5,280z M15,111.5
		v-32c0-0.276,0.224-0.5,0.5-0.5h336c0.276,0,0.5,0.224,0.5,0.5v32c0,0.276-0.224,0.5-0.5,0.5h-336C15.224,112,15,111.776,15,111.5z
		 M208,157.766v146.832c-13.628,2.171-25.334,10.162-32.5,21.334c-7.166-11.172-18.872-19.163-32.5-21.334V157.766
		c9.29-3.138,16-11.93,16-22.266V127h33v8.5C192,145.836,198.71,154.628,208,157.766z M95.5,325.932
		c-7.166-11.172-18.872-19.163-32.5-21.334V157.766c9.29-3.138,16-11.93,16-22.266V127h33v8.5c0,10.336,6.71,19.128,16,22.266
		v146.832C114.372,306.769,102.666,314.76,95.5,325.932z M144,127v8.5c0,4.687-3.813,8.5-8.5,8.5s-8.5-3.813-8.5-8.5V127H144z
		 M47,127h17v8.5c0,4.687-3.813,8.5-8.5,8.5s-8.5-3.813-8.5-8.5V127z M55.5,384C37.58,384,23,369.42,23,351.5S37.58,319,55.5,319
		S88,333.58,88,351.5S73.42,384,55.5,384z M135.5,384c-17.92,0-32.5-14.58-32.5-32.5s14.58-32.5,32.5-32.5s32.5,14.58,32.5,32.5
		S153.42,384,135.5,384z M248,351.5c0,17.92-14.58,32.5-32.5,32.5S183,369.42,183,351.5s14.58-32.5,32.5-32.5S248,333.58,248,351.5z
		 M224,135.5c0,4.687-3.813,8.5-8.5,8.5s-8.5-3.813-8.5-8.5V127h17V135.5z M287,135.5V127h17v8.5c0,4.687-3.813,8.5-8.5,8.5
		S287,140.187,287,135.5z M415.5,360c-17.92,0-32.5-14.58-32.5-32.5s14.58-32.5,32.5-32.5s32.5,14.58,32.5,32.5
		S433.42,360,415.5,360z"/>
	<path d="M55.5,336c-4.142,0-7.5,3.358-7.5,7.5s3.358,7.5,7.5,7.5c0.276,0,0.5,0.224,0.5,0.5c0,4.142,3.358,7.5,7.5,7.5
		s7.5-3.358,7.5-7.5C71,342.953,64.047,336,55.5,336z"/>
	<path d="M135.5,336c-4.142,0-7.5,3.358-7.5,7.5s3.358,7.5,7.5,7.5c0.276,0,0.5,0.224,0.5,0.5c0,4.142,3.358,7.5,7.5,7.5
		s7.5-3.358,7.5-7.5C151,342.953,144.047,336,135.5,336z"/>
	<path d="M208,343.5c0,4.142,3.358,7.5,7.5,7.5c0.276,0,0.5,0.224,0.5,0.5c0,4.142,3.358,7.5,7.5,7.5s7.5-3.358,7.5-7.5
		c0-8.547-6.953-15.5-15.5-15.5C211.358,336,208,339.358,208,343.5z"/>
	<path d="M415.5,312c-4.142,0-7.5,3.358-7.5,7.5s3.358,7.5,7.5,7.5c0.276,0,0.5,0.224,0.5,0.5c0,4.142,3.358,7.5,7.5,7.5
		s7.5-3.358,7.5-7.5C431,318.953,424.047,312,415.5,312z"/>
</g>
<g>
</g>
<g>
</g>
<g>
</g>
<g>
</g>
<g>
</g>
<g>
</g>
<g>
</g>
<g>
</g>
<g>
</g>
<g>
</g>
<g>
</g>
<g>
</g>
<g>
</g>
<g>
</g>
<g>
</g>
</svg>
