<?xml version="1.0" encoding="iso-8859-1"?>
<!-- Generator: Adobe Illustrator 19.0.0, SVG Export Plug-In . SVG Version: 6.00 Build 0)  -->
<svg version="1.1" id="Capa_1" xmlns="http://www.w3.org/2000/svg" xmlns:xlink="http://www.w3.org/1999/xlink" x="0px" y="0px"
	 viewBox="0 0 463 463" style="enable-background:new 0 0 463 463;" xml:space="preserve">
<g>
	<path d="M455.5,420H447v-88.5c0-4.143-3.358-7.5-7.5-7.5H423v-72.5c0-38.537-11.453-74.444-31.118-104.518l14.437-14.436
		c2.646,1.958,5.826,3.033,9.179,3.034c0.002,0,0.004,0,0.007,0c4.14,0,8.032-1.611,10.959-4.539l10.242-10.242
		c6.04-6.038,6.043-15.868,0.009-21.911l-52.595-52.679c-2.927-2.931-6.82-4.546-10.963-4.547c-0.002,0-0.003,0-0.005,0
		c-4.14,0-8.033,1.611-10.96,4.54l-10.241,10.241c-5.502,5.501-5.978,14.139-1.461,20.203l-14.471,14.472
		c-9.55-6.245-19.683-11.668-30.309-16.151l8.663-23.103c1.454-3.878-0.51-8.201-4.388-9.656C284.855,32.78,258.449,28,231.5,28
		c-59.699,0-115.825,23.248-158.038,65.462C31.248,135.675,8,191.801,8,251.5c0,4.143,3.358,7.5,7.5,7.5H40v65H23.5
		c-4.142,0-7.5,3.357-7.5,7.5V420H7.5c-4.142,0-7.5,3.357-7.5,7.5s3.358,7.5,7.5,7.5h448c4.142,0,7.5-3.357,7.5-7.5
		S459.642,420,455.5,420z M408,324h-89v-72.5c0-76.582-19.551-141.32-48.563-172.163C349.088,97.115,408,167.553,408,251.5V324z
		 M159,324v-72.5c0-48.143,8.101-93.287,22.81-127.117C195.454,92.999,213.566,75,231.5,75s36.046,17.999,49.69,49.383
		C295.899,158.213,304,203.357,304,251.5V324H159z M362.557,67.05l10.242-10.241c0.036-0.037,0.146-0.146,0.354-0.146
		s0.318,0.11,0.354,0.146l52.594,52.678c0.195,0.195,0.195,0.512,0,0.706l-10.243,10.242c-0.036,0.037-0.146,0.146-0.353,0.146
		c0,0,0,0,0,0c-0.207,0-0.317-0.11-0.354-0.146l-52.595-52.678C362.362,67.562,362.362,67.245,362.557,67.05z M360.961,87.388
		l34.624,34.679l-12.524,12.523c-10.028-12.971-21.68-24.622-34.651-34.651L360.961,87.388z M231.5,43
		c22.628,0,44.845,3.611,66.148,10.744l-5.981,15.948C272.737,63.412,252.511,60,231.5,60C128.419,60,44.115,141.87,40.16,244
		H23.133C27.098,132.495,119.045,43,231.5,43z M55,251.5c0-83.947,58.912-154.385,137.563-172.163
		C163.551,110.18,144,174.918,144,251.5V324H55V251.5z M432,339v17H31v-17H432z M31,371h401v49H255v-16.5
		c0-8.547-6.953-15.5-15.5-15.5h-16c-8.547,0-15.5,6.953-15.5,15.5V420H31V371z M240,420h-17v-16.5c0-0.275,0.224-0.5,0.5-0.5h16
		c0.276,0,0.5,0.225,0.5,0.5V420z"/>
	<path d="M175.5,388h-16c-4.142,0-7.5,3.357-7.5,7.5s3.358,7.5,7.5,7.5h16c4.142,0,7.5-3.357,7.5-7.5S179.642,388,175.5,388z"/>
	<path d="M127.5,388h-16c-4.142,0-7.5,3.357-7.5,7.5s3.358,7.5,7.5,7.5h16c4.142,0,7.5-3.357,7.5-7.5S131.642,388,127.5,388z"/>
	<path d="M79.5,388h-16c-4.142,0-7.5,3.357-7.5,7.5s3.358,7.5,7.5,7.5h16c4.142,0,7.5-3.357,7.5-7.5S83.642,388,79.5,388z"/>
	<path d="M383.5,403h16c4.142,0,7.5-3.357,7.5-7.5s-3.358-7.5-7.5-7.5h-16c-4.142,0-7.5,3.357-7.5,7.5S379.358,403,383.5,403z"/>
	<path d="M335.5,403h16c4.142,0,7.5-3.357,7.5-7.5s-3.358-7.5-7.5-7.5h-16c-4.142,0-7.5,3.357-7.5,7.5S331.358,403,335.5,403z"/>
	<path d="M287.5,403h16c4.142,0,7.5-3.357,7.5-7.5s-3.358-7.5-7.5-7.5h-16c-4.142,0-7.5,3.357-7.5,7.5S283.358,403,287.5,403z"/>
</g>
<g>
</g>
<g>
</g>
<g>
</g>
<g>
</g>
<g>
</g>
<g>
</g>
<g>
</g>
<g>
</g>
<g>
</g>
<g>
</g>
<g>
</g>
<g>
</g>
<g>
</g>
<g>
</g>
<g>
</g>
</svg>
