<?xml version="1.0" encoding="iso-8859-1"?>
<!-- Generator: Adobe Illustrator 19.0.0, SVG Export Plug-In . SVG Version: 6.00 Build 0)  -->
<svg version="1.1" id="Capa_1" xmlns="http://www.w3.org/2000/svg" xmlns:xlink="http://www.w3.org/1999/xlink" x="0px" y="0px"
	 viewBox="0 0 463 463" style="enable-background:new 0 0 463 463;" xml:space="preserve">
<g>
	<path d="M316.229,168.516c-3.857-1.505-8.208,0.399-9.714,4.258c-1.993,5.103-4.527,10.026-7.53,14.632
		c-2.262,3.47-1.283,8.117,2.187,10.379c1.264,0.824,2.685,1.219,4.089,1.219c2.45,0,4.852-1.199,6.29-3.404
		c3.563-5.466,6.57-11.31,8.937-17.368C321.994,174.372,320.087,170.022,316.229,168.516z"/>
	<path d="M277.787,209.371C264.195,218.941,248.189,224,231.5,224c-11.723,0-23.023-2.462-33.584-7.316
		c-3.764-1.729-8.217-0.08-9.947,3.682c-1.73,3.764-0.082,8.218,3.682,9.947C204.191,236.077,217.599,239,231.5,239
		c19.797,0,38.789-6.005,54.922-17.365c3.387-2.385,4.199-7.063,1.814-10.45S281.174,206.985,277.787,209.371z"/>
	<path d="M351.5,136h-20.893l-90.6-90.6C248.771,41.984,255,33.458,255,23.5C255,10.542,244.458,0,231.5,0S208,10.542,208,23.5
		c0,9.958,6.229,18.484,14.993,21.9l-90.6,90.6H111.5c-4.142,0-7.5,3.357-7.5,7.5c0,30.74,11.108,60.417,31.279,83.563
		c17.65,20.253,41.185,34.369,67.1,40.44c-1.53,3.7-2.379,7.75-2.379,11.996c0,7.935,2.955,15.188,7.815,20.733L185.367,416H167.5
		c-12.958,0-23.5,10.542-23.5,23.5v16c0,4.143,3.358,7.5,7.5,7.5h160c4.142,0,7.5-3.357,7.5-7.5v-16c0-12.958-10.542-23.5-23.5-23.5
		h-17.784l-22.53-115.768c4.859-5.545,7.814-12.798,7.814-20.732c0-4.246-0.849-8.296-2.379-11.996
		c25.911-6.07,49.444-20.184,67.094-40.433C347.889,203.924,359,174.244,359,143.5C359,139.357,355.642,136,351.5,136z M309.393,136
		H239V65.607L309.393,136z M231.5,15c4.687,0,8.5,3.813,8.5,8.5s-3.813,8.5-8.5,8.5s-8.5-3.813-8.5-8.5S226.813,15,231.5,15z
		 M224,65.607V136h-70.393L224,65.607z M248,279.5c0,9.098-7.402,16.5-16.5,16.5s-16.5-7.402-16.5-16.5s7.402-16.5,16.5-16.5
		S248,270.402,248,279.5z M304,439.5v8.5H159v-8.5c0-4.687,3.813-8.5,8.5-8.5h128C300.187,431,304,434.813,304,439.5z M200.646,416
		l20.689-106.693c3.192,1.092,6.609,1.693,10.165,1.693c3.559,0,6.977-0.602,10.17-1.694L262.435,416H200.646z M316.406,217.215
		c-17.125,19.648-40.523,32.729-66.078,37.046C245.072,250.33,238.553,248,231.5,248c-7.053,0-13.573,2.331-18.829,6.262
		c-25.557-4.319-48.958-17.402-66.083-37.053c-16.144-18.525-25.707-41.796-27.337-66.209H343.75
		C342.118,175.416,332.554,198.688,316.406,217.215z"/>
</g>
<g>
</g>
<g>
</g>
<g>
</g>
<g>
</g>
<g>
</g>
<g>
</g>
<g>
</g>
<g>
</g>
<g>
</g>
<g>
</g>
<g>
</g>
<g>
</g>
<g>
</g>
<g>
</g>
<g>
</g>
</svg>
