<?xml version="1.0" encoding="iso-8859-1"?>
<!-- Generator: Adobe Illustrator 19.0.0, SVG Export Plug-In . SVG Version: 6.00 Build 0)  -->
<svg version="1.1" id="Capa_1" xmlns="http://www.w3.org/2000/svg" xmlns:xlink="http://www.w3.org/1999/xlink" x="0px" y="0px"
	 viewBox="0 0 463 463" style="enable-background:new 0 0 463 463;" xml:space="preserve">
<g>
	<path d="M231.5,264c-1.98,0-3.91,0.8-5.3,2.2c-1.4,1.39-2.2,3.319-2.2,5.3c0,1.979,0.8,3.91,2.2,5.3c1.39,1.4,3.33,2.2,5.3,2.2
		s3.899-0.8,5.3-2.2s2.2-3.33,2.2-5.3c0-1.971-0.8-3.91-2.2-5.3C235.41,264.8,233.47,264,231.5,264z"/>
	<path d="M199.5,264c-1.98,0-3.91,0.8-5.3,2.2c-1.4,1.39-2.2,3.319-2.2,5.3c0,1.979,0.8,3.91,2.2,5.3c1.39,1.4,3.33,2.2,5.3,2.2
		s3.899-0.8,5.3-2.2c1.4-1.39,2.2-3.32,2.2-5.3c0-1.98-0.8-3.91-2.2-5.3C203.41,264.8,201.47,264,199.5,264z"/>
	<path d="M268.8,266.2c-1.39-1.4-3.32-2.2-5.3-2.2c-1.98,0-3.91,0.8-5.3,2.2c-1.4,1.39-2.2,3.319-2.2,5.3c0,1.979,0.8,3.91,2.2,5.3
		c1.39,1.4,3.33,2.2,5.3,2.2s3.91-0.8,5.3-2.2c1.4-1.39,2.2-3.33,2.2-5.3C271,269.529,270.2,267.59,268.8,266.2z"/>
	<path d="M439.5,144h-80c-12.958,0-23.5,10.542-23.5,23.5V216h-25v-32.5c0-4.143-3.357-7.5-7.5-7.5H295v-22.5
		c0-3.102-1.501-5.853-3.808-7.588C313.441,128.01,327,100.677,327,71.5c0-4.143-3.357-7.5-7.5-7.5h-44.893L239,28.393V7.5
		c0-4.143-3.357-7.5-7.5-7.5S224,3.357,224,7.5v20.893L188.393,64H143.5c-4.143,0-7.5,3.357-7.5,7.5
		c0,29.24,13.538,56.535,35.796,74.421c-2.3,1.735-3.796,4.482-3.796,7.579V176h-8.5c-4.143,0-7.5,3.357-7.5,7.5V216h-25v-48.5
		c0-12.958-10.542-23.5-23.5-23.5h-80C10.542,144,0,154.542,0,167.5v160C0,340.458,10.542,351,23.5,351h80
		c12.958,0,23.5-10.542,23.5-23.5V279h25v64.5c0,17.369,14.131,31.5,31.5,31.5h0.5v56.5c0,17.369,14.131,31.5,31.5,31.5h32
		c17.369,0,31.5-14.131,31.5-31.5V375h0.5c17.369,0,31.5-14.131,31.5-31.5V279h25v48.5c0,12.958,10.542,23.5,23.5,23.5h80
		c12.958,0,23.5-10.542,23.5-23.5v-160C463,154.542,452.458,144,439.5,144z M392,240h-41v-33h41V240z M407,207h41v33h-41V207z
		 M351,255h41v33h-41V255z M407,255h41v33h-41V255z M448,167.5V192h-41v-33h32.5C444.187,159,448,162.813,448,167.5z M359.5,159H392
		v33h-41v-24.5C351,162.813,354.813,159,359.5,159z M167,255h129v33H167V255z M231.5,42.107L253.393,64h-43.785L231.5,42.107z
		 M151.354,79h160.291c-2.64,27.82-19.825,52.726-45.333,65h-69.619C171.157,131.717,153.987,106.867,151.354,79z M183,159h11.953
		c0.012,0,0.025,0.002,0.037,0.002c0.009,0,0.018-0.002,0.027-0.002H280v17h-97V159z M167,191h8.5h112h8.5v49H167V191z M112,240H71
		v-33h41V240z M56,240H15v-33h41V240z M15,255h41v33H15V255z M71,255h41v33H71V255z M112,167.5V192H71v-33h32.5
		C108.187,159,112,162.813,112,167.5z M23.5,159H56v33H15v-24.5C15,162.813,18.813,159,23.5,159z M15,327.5V303h41v33H23.5
		C18.813,336,15,332.187,15,327.5z M103.5,336H71v-33h41v24.5C112,332.187,108.187,336,103.5,336z M127,264v-33h25v33H127z
		 M247.5,448h-32c-9.098,0-16.5-7.402-16.5-16.5V407h65v24.5C264,440.598,256.598,448,247.5,448z M264,392h-65v-17h65V392z
		 M279.5,360h-96c-9.098,0-16.5-7.402-16.5-16.5V303h129v40.5C296,352.598,288.598,360,279.5,360z M311,264v-33h25v33H311z
		 M351,327.5V303h41v33h-32.5C354.813,336,351,332.187,351,327.5z M439.5,336H407v-33h41v24.5C448,332.187,444.187,336,439.5,336z"
		/>
</g>
<g>
</g>
<g>
</g>
<g>
</g>
<g>
</g>
<g>
</g>
<g>
</g>
<g>
</g>
<g>
</g>
<g>
</g>
<g>
</g>
<g>
</g>
<g>
</g>
<g>
</g>
<g>
</g>
<g>
</g>
</svg>
