<?xml version="1.0" encoding="iso-8859-1"?>
<!-- Generator: Adobe Illustrator 19.0.0, SVG Export Plug-In . SVG Version: 6.00 Build 0)  -->
<svg version="1.1" id="Capa_1" xmlns="http://www.w3.org/2000/svg" xmlns:xlink="http://www.w3.org/1999/xlink" x="0px" y="0px"
	 viewBox="0 0 463.002 463.002" style="enable-background:new 0 0 463.002 463.002;" xml:space="preserve">
<g>
	<path d="M455.567,52.78c-11.15-26.919-39.543-42.612-67.884-38.455l-4.016-9.695c-0.761-1.838-2.221-3.298-4.059-4.059
		c-1.838-0.762-3.902-0.762-5.74,0l-44.346,18.368c-5.799,2.402-10.316,6.919-12.718,12.718s-2.402,12.187,0,17.986l0.192,0.463
		l-207.41,85.911c-3.825,1.584-6.805,4.563-8.389,8.39c-1.584,3.825-1.584,8.038,0,11.862l6.315,15.245l-60.052,24.874l-0.191-0.462
		c-3.271-7.896-12.355-11.66-20.251-8.389l-14.783,6.123c-7.896,3.271-11.659,12.356-8.388,20.251l18.369,44.347
		c1.584,3.825,4.564,6.805,8.389,8.389c1.913,0.792,3.922,1.188,5.931,1.188c2.01,0,4.02-0.396,5.932-1.188l14.782-6.122
		c0-0.001,0.001-0.001,0.001-0.001c7.895-3.271,11.657-12.356,8.388-20.252l-0.191-0.462l60.052-24.875l6.315,15.245
		c1.584,3.825,4.564,6.805,8.389,8.389c1.913,0.792,3.922,1.188,5.931,1.188c2.01,0,4.02-0.396,5.932-1.189l50.982-21.117
		c2.191,3.147,4.938,5.879,8.103,8.048l-85.263,227.367c-1.455,3.879,0.511,8.202,4.389,9.656c0.868,0.325,1.757,0.479,2.632,0.479
		c3.037,0,5.895-1.857,7.023-4.868L165.105,391H292.71l25.175,67.134c1.129,3.011,3.987,4.868,7.023,4.868
		c0.875,0,1.765-0.154,2.632-0.479c3.878-1.454,5.844-5.777,4.389-9.656l-85.263-227.367c8.289-5.68,13.74-15.214,13.74-25.999
		c0-1.911-0.181-3.78-0.508-5.598l99.574-41.245l0.191,0.462c2.402,5.799,6.919,10.316,12.718,12.719
		c2.899,1.2,5.946,1.801,8.993,1.801c3.047,0,6.094-0.601,8.993-1.802l44.346-18.368c1.838-0.761,3.298-2.221,4.059-4.059
		s0.761-3.902,0-5.74l-4.016-9.696C457.737,110.872,466.716,79.698,455.567,52.78z M51.507,246.666l-14.784,6.123
		c-0.047,0.019-0.19,0.081-0.382,0c-0.191-0.079-0.251-0.224-0.271-0.271l-18.369-44.348c-0.105-0.254,0.017-0.547,0.271-0.652
		l14.782-6.122c0.063-0.026,0.127-0.038,0.19-0.038c0.196,0,0.383,0.116,0.463,0.309l15.305,36.947
		c0.001,0.003,0.002,0.005,0.003,0.008c0,0,0.002,0.003,0.003,0.005l3.059,7.385C51.883,246.267,51.762,246.561,51.507,246.666z
		 M59.704,225.953l-6.506-15.707l60.052-24.874l6.506,15.706L59.704,225.953z M245.407,199.5c0,9.098-7.402,16.5-16.5,16.5
		s-16.5-7.402-16.5-16.5s7.402-16.5,16.5-16.5S245.407,190.402,245.407,199.5z M287.085,376H170.73l54.46-145.227
		c1.22,0.144,2.459,0.227,3.717,0.227s2.497-0.083,3.717-0.227L287.085,376z M253.777,180.202
		c-5.768-7.417-14.768-12.202-24.87-12.202c-17.369,0-31.5,14.131-31.5,31.5c0,1.337,0.093,2.652,0.256,3.945l-51.342,21.266
		c-0.048,0.02-0.192,0.08-0.381,0c-0.191-0.079-0.251-0.224-0.271-0.271l-9.184-22.172c0,0,0-0.001,0-0.001l-0.001-0.002
		l-12.245-29.562l0,0l0,0l-9.185-22.175c-0.02-0.047-0.079-0.19,0-0.382c0.079-0.19,0.223-0.25,0.271-0.271l207.411-85.912
		l30.998,74.835L253.777,180.202z M384.628,151.979c-2.097,0.87-4.408,0.87-6.505,0c-2.098-0.869-3.731-2.503-4.6-4.601
		L330.662,43.903c-0.869-2.098-0.869-4.408,0-6.506c0.869-2.097,2.502-3.73,4.6-4.6l37.417-15.499l49.366,119.182L384.628,151.979z
		 M393.658,28.749c20.341-1.346,40.034,10.418,48.051,29.771c8.017,19.354,2.409,41.596-12.925,55.029L393.658,28.749z"/>
	<path d="M228.907,192c-1.97,0-3.9,0.8-5.3,2.2c-1.4,1.39-2.2,3.329-2.2,5.3c0,1.97,0.8,3.91,2.2,5.3c1.4,1.4,3.33,2.2,5.3,2.2
		c1.97,0,3.91-0.8,5.3-2.2c1.4-1.4,2.2-3.33,2.2-5.3c0-1.971-0.8-3.91-2.2-5.3C232.817,192.8,230.877,192,228.907,192z"/>
	<path d="M306.606,89.046l-16.571,6.864c-3.827,1.585-5.644,5.973-4.059,9.799c1.197,2.889,3.989,4.632,6.932,4.632
		c0.957,0,1.929-0.185,2.867-0.573l16.571-6.864c3.827-1.585,5.644-5.973,4.059-9.799C314.82,89.277,310.433,87.462,306.606,89.046z
		"/>
	<path d="M258.039,109.163l-64.001,26.511c-3.827,1.585-5.644,5.972-4.059,9.799c1.197,2.889,3.989,4.632,6.932,4.632
		c0.957,0,1.929-0.185,2.867-0.573l64.001-26.511c3.827-1.585,5.644-5.972,4.059-9.799
		C266.252,109.395,261.865,107.578,258.039,109.163z"/>
</g>
<g>
</g>
<g>
</g>
<g>
</g>
<g>
</g>
<g>
</g>
<g>
</g>
<g>
</g>
<g>
</g>
<g>
</g>
<g>
</g>
<g>
</g>
<g>
</g>
<g>
</g>
<g>
</g>
<g>
</g>
</svg>
