<?xml version="1.0" encoding="iso-8859-1"?>
<!-- Generator: Adobe Illustrator 19.0.0, SVG Export Plug-In . SVG Version: 6.00 Build 0)  -->
<svg version="1.1" id="Capa_1" xmlns="http://www.w3.org/2000/svg" xmlns:xlink="http://www.w3.org/1999/xlink" x="0px" y="0px"
	 viewBox="0 0 463 463" style="enable-background:new 0 0 463 463;" xml:space="preserve">
<path d="M231.5,0C200.897,0,176,21.232,176,47.33V359.5c0,18.937,13.115,35.303,32,42.864V439.5c0,12.958,10.542,23.5,23.5,23.5
	s23.5-10.542,23.5-23.5v-37.136c18.885-7.56,32-23.927,32-42.864V47.33C287,21.232,262.103,0,231.5,0z M240,439.5
	c0,4.687-3.813,8.5-8.5,8.5s-8.5-3.813-8.5-8.5v-33.226c2.772,0.365,5.61,0.555,8.5,0.555s5.728-0.19,8.5-0.555V439.5z M239,391.265
	V55.5c0-4.142-3.357-7.5-7.5-7.5s-7.5,3.358-7.5,7.5v335.765c-18.76-2.817-33-15.984-33-31.765V47.33
	C191,29.503,209.168,15,231.5,15S272,29.503,272,47.33v8.696c-0.166-0.011-0.331-0.025-0.5-0.025h-16c-4.143,0-7.5,3.358-7.5,7.5
	s3.357,7.5,7.5,7.5h16c0.169,0,0.334-0.014,0.5-0.025v17.05c-0.167-0.011-0.333-0.025-0.5-0.025c-1.97,0-3.91,0.8-5.3,2.2
	c-1.4,1.39-2.2,3.33-2.2,5.3c0,1.97,0.8,3.91,2.2,5.3c1.39,1.4,3.319,2.2,5.3,2.2c0.167,0,0.334-0.014,0.5-0.025v17.05
	c-0.167-0.011-0.333-0.025-0.5-0.025c-1.97,0-3.91,0.8-5.3,2.2c-1.4,1.39-2.2,3.33-2.2,5.3c0,1.97,0.8,3.91,2.2,5.3
	c1.39,1.4,3.319,2.2,5.3,2.2c0.167,0,0.334-0.014,0.5-0.025v17.05c-0.166-0.011-0.331-0.025-0.5-0.025h-16
	c-4.143,0-7.5,3.358-7.5,7.5s3.357,7.5,7.5,7.5h16c0.169,0,0.334-0.014,0.5-0.025v17.05c-0.167-0.011-0.333-0.025-0.5-0.025
	c-1.97,0-3.91,0.8-5.3,2.2c-1.4,1.39-2.2,3.33-2.2,5.3c0,1.97,0.8,3.91,2.2,5.3c1.39,1.4,3.319,2.2,5.3,2.2
	c0.167,0,0.333-0.014,0.5-0.025v17.05c-0.167-0.011-0.333-0.025-0.5-0.025c-1.97,0-3.91,0.8-5.3,2.2c-1.4,1.39-2.2,3.33-2.2,5.3
	c0,1.97,0.8,3.91,2.2,5.3c1.39,1.4,3.319,2.2,5.3,2.2c0.167,0,0.333-0.014,0.5-0.025v17.05c-0.166-0.011-0.331-0.025-0.5-0.025h-16
	c-4.143,0-7.5,3.358-7.5,7.5s3.357,7.5,7.5,7.5h16c0.169,0,0.334-0.014,0.5-0.025v17.05c-0.166-0.011-0.333-0.025-0.5-0.025
	c-1.98,0-3.91,0.8-5.3,2.2c-1.4,1.39-2.2,3.33-2.2,5.3c0,1.97,0.8,3.91,2.2,5.3c1.39,1.4,3.319,2.2,5.3,2.2
	c0.167,0,0.333-0.014,0.5-0.025v17.05c-0.166-0.011-0.333-0.025-0.5-0.025c-1.98,0-3.91,0.8-5.3,2.2c-1.4,1.39-2.2,3.33-2.2,5.3
	c0,1.97,0.8,3.91,2.2,5.3c1.39,1.4,3.319,2.2,5.3,2.2c0.167,0,0.333-0.014,0.5-0.025v17.05c-0.166-0.011-0.331-0.025-0.5-0.025h-16
	c-4.143,0-7.5,3.358-7.5,7.5s3.357,7.5,7.5,7.5h16c0.169,0,0.334-0.014,0.5-0.025v0.525C272,375.281,257.76,388.448,239,391.265z"/>
<g>
</g>
<g>
</g>
<g>
</g>
<g>
</g>
<g>
</g>
<g>
</g>
<g>
</g>
<g>
</g>
<g>
</g>
<g>
</g>
<g>
</g>
<g>
</g>
<g>
</g>
<g>
</g>
<g>
</g>
</svg>
