<svg xmlns="http://www.w3.org/2000/svg" viewBox="0 0 462.347 462.347"><path d="M355.293 51.53C322.233 18.4 278.253.1 231.456 0h-.38C183.03 0 138.27 19.643 105.017 55.33 70.302 92.59 52.533 143.337 56.266 194.56c3.372 46.257 19.002 94.2 46.456 142.503 19.9 35.01 45.515 69.505 76.13 102.523 13.412 14.464 32.447 22.76 52.225 22.76 19.766 0 38.788-8.288 52.187-22.738 32.92-35.5 59.966-72.564 80.387-110.166 28.48-52.438 42.92-104.23 42.92-153.942 0-46.81-18.21-90.837-51.277-123.97zm-4.823 270.753c-19.824 36.502-46.137 72.544-78.204 107.126-10.727 11.566-25.355 17.937-41.188 17.937-15.846 0-30.486-6.378-41.224-17.96-29.832-32.172-54.76-65.728-74.09-99.735-26.345-46.348-41.328-92.165-44.536-136.18-3.432-47.078 12.885-93.7 44.765-127.915C146.38 32.945 187.237 15 231.077 15h.346c42.797.093 83.018 16.83 113.253 47.125 30.24 30.302 46.894 70.565 46.894 113.375 0 47.183-13.83 96.568-41.1 146.783z"/><path d="M215.245 318.254c3.45-.404 6.173-3.126 6.577-6.577.503-4.293.747-8.148.747-11.785 0-55.345-45.027-100.37-100.372-100.37-3.648 0-7.504.243-11.788.746-3.45.405-6.17 3.127-6.574 6.577-.502 4.286-.746 8.142-.746 11.785 0 55.345 45.025 100.37 100.37 100.37 3.643 0 7.5-.244 11.785-.746zM118.09 218.63c0-1.286.037-2.614.113-3.996 1.38-.076 2.708-.113 3.995-.113 47.074 0 85.37 38.298 85.37 85.372 0 1.285-.036 2.612-.112 3.995-1.383.076-2.71.113-3.996.113-47.073 0-85.37-38.297-85.37-85.37zM351.248 200.268c-4.284-.503-8.14-.747-11.788-.747-55.345 0-100.37 45.027-100.37 100.372 0 3.643.244 7.497.746 11.785.404 3.45 3.126 6.173 6.577 6.577 4.286.502 8.142.746 11.785.746 55.345 0 100.37-45.025 100.37-100.37 0-3.638-.243-7.493-.746-11.785-.404-3.45-3.125-6.172-6.574-6.577zM258.198 304c-1.286 0-2.613-.037-3.995-.113-.076-1.382-.113-2.71-.113-3.995 0-47.074 38.297-85.37 85.37-85.37 1.287 0 2.614.036 3.996.112.076 1.383.113 2.71.113 3.996 0 47.073-38.298 85.37-85.372 85.37zM255.07 392h-48c-4.144 0-7.5 3.357-7.5 7.5s3.356 7.5 7.5 7.5h48c4.142 0 7.5-3.357 7.5-7.5s-3.358-7.5-7.5-7.5zM370.544 141.71c-7.977-32.88-27.523-62.055-55.04-82.153-3.344-2.44-8.035-1.712-10.48 1.633-2.442 3.345-1.71 8.037 1.634 10.48 24.656 18.01 42.168 44.14 49.31 73.576.832 3.43 3.9 5.733 7.282 5.733.585 0 1.18-.07 1.774-.214 4.025-.976 6.496-5.032 5.52-9.057zM268.868 52.68c5.14 1.587 10.238 3.523 15.148 5.756 1.007.457 2.062.674 3.1.674 2.85 0 5.575-1.635 6.832-4.398 1.714-3.77.046-8.218-3.725-9.932-5.487-2.494-11.184-4.658-16.93-6.433-3.96-1.22-8.157.996-9.38 4.953-1.22 3.957.997 8.156 4.955 9.38z"/><path d="M151.903 238.316c-3.727-1.81-8.214-.247-10.02 3.48-1.805 3.73-.246 8.215 3.482 10.02 10.82 5.24 19.667 14.086 24.907 24.906 1.295 2.676 3.97 4.233 6.756 4.233 1.096 0 2.21-.242 3.263-.752 3.73-1.806 5.288-6.29 3.482-10.02-6.704-13.844-18.022-25.162-31.87-31.867zM309.755 238.316c-13.847 6.705-25.165 18.022-31.87 31.87-1.806 3.727-.247 8.212 3.48 10.018 1.054.51 2.167.752 3.264.752 2.784 0 5.46-1.56 6.755-4.233 5.24-10.82 14.086-19.666 24.907-24.906 3.73-1.805 5.287-6.29 3.48-10.02-1.802-3.726-6.287-5.286-10.017-3.48z"/></svg>