<svg xmlns="http://www.w3.org/2000/svg" viewBox="0 0 463 463"><path d="M376.055 309.815L304.642 287.5c-7.856-2.456-16.552-13.722-17.545-26.58C320.483 237.485 343 193.63 343 143.5v-44c0-24.698-11.992-49.823-32.9-68.934C288.53 10.856 260.617 0 231.5 0s-57.032 10.855-78.6 30.566C131.993 49.676 120 74.802 120 99.5v44c0 50.177 22.56 94.07 56 117.49v2.513c0 11.056-7.09 20.698-17.642 23.996l-71.413 22.315C63.65 317.095 48 338.385 48 362.79v76.71c0 12.958 10.542 23.5 23.5 23.5h320c12.958 0 23.5-10.542 23.5-23.5v-76.71c0-24.406-15.65-45.695-38.945-52.975zM159.5 144h-23.645c.574-3.03 1.88-6.05 3.87-9h183.55c1.99 2.95 3.296 5.97 3.87 9H303.5c-4.143 0-7.5 3.357-7.5 7.5v16c0 .275-.225.5-.5.5h-36.687c-.132 0-.26-.054-.353-.146l-16-16c-6.045-6.043-15.877-6.043-21.922 0l-16 16c-.093.093-.22.146-.353.146H167.5c-.275 0-.5-.225-.5-.5v-16c0-4.143-3.357-7.5-7.5-7.5zm-2.536-24c1.508-.877 3.067-1.74 4.717-2.567C180.207 108.125 205 103 231.5 103s51.294 5.125 69.818 14.433c1.65.83 3.21 1.69 4.717 2.567h-149.07zm-21.168 39H152v8.5c0 8.547 6.953 15.5 15.5 15.5h36.687c4.14 0 8.032-1.612 10.96-4.54l16-16c.193-.194.514-.194.707 0l16 16c2.928 2.928 6.82 4.54 10.96 4.54H295.5c8.547 0 15.5-6.953 15.5-15.5V159h16.204c-.964 9.334-2.79 18.335-5.37 26.88l-43.825 17.393-37.253-15.965c-5.884-2.52-12.633-2.52-18.515 0L185.23 203.17l-44.132-17.516c-2.543-8.477-4.346-17.402-5.302-26.654zM183 247.64v-21.59c0-3.405 2.022-6.472 5.15-7.814l40.003-17.143c2.126-.913 4.567-.91 6.695 0l40 17.143c3.13 1.342 5.15 4.408 5.15 7.813v21.59C265.742 258.033 249.17 264 231.5 264s-34.24-5.966-48.5-16.36zm112-13.484v-8.106c0-4.347-1.205-8.487-3.34-12.057l22.825-9.06C309.25 215.917 302.66 225.78 295 234.156zM163.02 41.64C181.817 24.46 206.137 15 231.5 15s49.684 9.46 68.48 26.64C317.786 57.913 328 79.003 328 99.5v18.162C309.054 99.8 273.32 88 231.5 88s-77.554 11.8-96.5 29.662V99.5c0-20.496 10.213-41.586 28.02-57.86zM148.4 204.69l23.037 9.143C169.24 217.44 168 221.638 168 226.05v8.106c-7.717-8.44-14.348-18.385-19.6-29.467zM231.5 279c14.783 0 28.9-3.523 41.82-9.9.684 2.848 1.624 5.708 2.806 8.495C263.388 284.32 247.672 288 231.5 288c-15.627 0-30.795-3.436-43.29-9.727 1.094-2.784 1.884-5.712 2.337-8.74C203.23 275.64 217.05 279 231.5 279zm-51.343 11.997C194.987 298.753 213.03 303 231.5 303c18.894 0 37.377-4.45 52.395-12.558 3.585 4.28 7.902 7.81 12.836 10.052C284.704 317.004 259.31 328 231.5 328c-27.777 0-53.148-10.972-65.193-27.45 5.348-2.22 10.037-5.498 13.85-9.553zM63 439.5v-76.71c0-17.81 11.42-33.346 28.42-38.658l60.086-18.777c7.06 11.605 18.613 21.16 32.894 27.742-.256.755-.4 1.562-.4 2.403V448H71.5c-4.687 0-8.5-3.813-8.5-8.5zm337 0c0 4.687-3.813 8.5-8.5 8.5H199V338.5c10.115 2.913 21.098 4.5 32.5 4.5 35.033 0 66.154-14.893 79.994-37.645l60.086 18.777c17 5.313 28.42 20.848 28.42 38.657v76.71z"/><path d="M215.5 352c-1.98 0-3.91.8-5.3 2.2-1.4 1.39-2.2 3.32-2.2 5.3s.8 3.91 2.2 5.3c1.39 1.4 3.32 2.2 5.3 2.2s3.91-.8 5.3-2.2c1.4-1.39 2.2-3.33 2.2-5.3 0-1.98-.8-3.91-2.2-5.3-1.39-1.4-3.32-2.2-5.3-2.2zM215.5 384c-1.98 0-3.91.8-5.3 2.2-1.4 1.39-2.2 3.32-2.2 5.3 0 1.97.8 3.9 2.2 5.3 1.39 1.4 3.33 2.2 5.3 2.2s3.9-.8 5.3-2.2c1.4-1.39 2.2-3.33 2.2-5.3 0-1.98-.8-3.91-2.2-5.3-1.39-1.4-3.32-2.2-5.3-2.2zM215.5 416c-1.98 0-3.91.8-5.3 2.2-1.4 1.39-2.2 3.33-2.2 5.3s.8 3.91 2.2 5.3c1.39 1.4 3.32 2.2 5.3 2.2 1.97 0 3.91-.8 5.3-2.2 1.4-1.39 2.2-3.33 2.2-5.3s-.8-3.91-2.2-5.3c-1.39-1.4-3.33-2.2-5.3-2.2z"/></svg>