<svg xmlns="http://www.w3.org/2000/svg" viewBox="0 0 463 463"><path d="M231.5 176c-30.603 0-55.5 24.897-55.5 55.5s24.897 55.5 55.5 55.5 55.5-24.897 55.5-55.5-24.897-55.5-55.5-55.5zm0 96c-22.332 0-40.5-18.168-40.5-40.5s18.168-40.5 40.5-40.5 40.5 18.168 40.5 40.5-18.168 40.5-40.5 40.5z"/><path d="M231.5 208c-4.142 0-7.5 3.358-7.5 7.5s3.358 7.5 7.5 7.5c4.687 0 8.5 3.813 8.5 8.5 0 4.142 3.358 7.5 7.5 7.5s7.5-3.358 7.5-7.5c0-12.958-10.542-23.5-23.5-23.5z"/><path d="M463 231.5c0-24.777-25.068-47.375-70.585-63.63-1.307-.468-2.628-.928-3.96-1.382.62-1.263 1.23-2.523 1.823-3.777 20.69-43.68 22.438-77.385 4.917-94.905-17.52-17.52-51.226-15.774-94.906 4.917-1.255.594-2.515 1.203-3.778 1.824-.454-1.333-.914-2.654-1.38-3.96C278.874 25.067 256.276 0 231.5 0s-47.375 25.068-63.63 70.585c-.468 1.307-.928 2.628-1.382 3.96-1.263-.62-2.523-1.23-3.777-1.823-43.682-20.69-77.385-22.438-94.905-4.917s-15.773 51.225 4.917 94.906c.594 1.255 1.203 2.515 1.824 3.778-1.333.454-2.654.914-3.96 1.38C25.067 184.126 0 206.724 0 231.5s25.068 47.375 70.585 63.63c1.307.468 2.628.928 3.96 1.382-.62 1.263-1.23 2.523-1.823 3.777-20.69 43.68-22.438 77.385-4.917 94.905 7.997 7.997 19.364 11.98 33.514 11.98 16.85 0 37.647-5.65 61.392-16.898 1.254-.594 2.514-1.203 3.777-1.824.453 1.333.913 2.654 1.38 3.96C184.125 437.934 206.723 463 231.5 463s47.375-25.068 63.63-70.585c.468-1.307.928-2.628 1.382-3.96 1.263.62 2.523 1.23 3.777 1.823 23.746 11.25 44.54 16.898 61.39 16.897 14.148 0 25.52-3.984 33.515-11.98 17.52-17.52 15.774-51.224-4.917-94.905-.594-1.254-1.203-2.514-1.824-3.777 1.333-.454 2.654-.914 3.96-1.38C437.933 278.874 463 256.276 463 231.5zM306.71 86.278c21.786-10.32 40.59-15.554 54.92-15.554 9.995 0 17.816 2.546 22.958 7.688 12.516 12.516 9.648 40.9-7.867 77.878-.887 1.874-1.817 3.763-2.768 5.66-18.397-5.302-38.74-9.504-60.4-12.5-2.998-21.663-7.2-42.004-12.5-60.4 1.896-.954 3.784-1.884 5.658-2.772zM304 231.5c0 10.036-.242 19.962-.707 29.737-6.583 7.24-13.43 14.43-20.528 21.528-7.096 7.096-14.287 13.945-21.528 20.528-9.774.465-19.7.707-29.737.707s-19.963-.242-29.738-.707c-7.24-6.583-14.43-13.43-21.528-20.528-7.096-7.096-13.945-14.287-20.528-21.528-.464-9.775-.706-19.7-.706-29.737s.242-19.962.707-29.738c6.583-7.24 13.43-14.43 20.528-21.528 7.096-7.096 14.287-13.945 21.528-20.528 9.775-.465 19.702-.707 29.738-.707s19.964.24 29.74.706c7.24 6.583 14.43 13.43 21.527 20.528 7.096 7.096 13.945 14.287 20.528 21.528.463 9.776.705 19.702.705 29.738zm-10.628-61.872c-2.814-2.814-5.643-5.59-8.485-8.328 5.147.453 10.234.972 15.257 1.555.583 5.023 1.102 10.11 1.555 15.257-2.74-2.84-5.515-5.67-8.328-8.484zm-26.046-24.62c-7.82-6.985-15.695-13.665-23.58-19.996 14.812-11.03 29.516-20.697 43.77-28.747 4.386 15.772 7.947 33.005 10.623 51.277-10.054-1.1-20.346-1.944-30.814-2.535zm-23.938-.897c-3.946-.072-7.91-.11-11.888-.11s-7.942.04-11.888.11c3.96-3.318 7.924-6.548 11.888-9.688 3.964 3.14 7.93 6.37 11.888 9.69zm-47.714.897c-10.468.59-20.76 1.436-30.812 2.535 2.676-18.272 6.236-35.506 10.623-51.277 14.254 8.05 28.957 17.72 43.77 28.747-7.886 6.33-15.762 13.01-23.58 19.995zm-17.56 16.294c-2.842 2.74-5.672 5.515-8.486 8.33s-5.59 5.642-8.328 8.484c.453-5.146.972-10.234 1.555-15.257 5.024-.584 10.11-1.103 15.258-1.556zm-33.107 34.374c-6.984 7.82-13.664 15.695-19.995 23.58-11.03-14.812-20.697-29.516-28.747-43.77 15.772-4.386 33.005-7.947 51.277-10.623-1.1 10.054-1.944 20.346-2.535 30.814zm-.896 23.938c-.072 3.946-.11 7.91-.11 11.888 0 3.98.04 7.942.11 11.888-3.318-3.96-6.548-7.924-9.688-11.888 3.14-3.964 6.37-7.93 9.69-11.888zm.897 47.714c.59 10.468 1.436 20.76 2.535 30.813-18.272-2.677-35.506-6.237-51.277-10.624 8.05-14.254 17.72-28.958 28.747-43.77 6.33 7.885 13.01 15.76 19.995 23.58zm16.294 17.56c2.74 2.843 5.515 5.672 8.33 8.486s5.642 5.59 8.484 8.328c-5.147-.453-10.234-.972-15.257-1.555-.584-5.024-1.103-10.112-1.556-15.258zm34.374 33.107c7.82 6.984 15.695 13.664 23.58 19.995-14.812 11.03-29.516 20.697-43.77 28.747-4.386-15.772-7.947-33.005-10.623-51.277 10.054 1.1 20.346 1.944 30.814 2.535zm23.938.896c3.946.072 7.91.11 11.888.11s7.942-.04 11.888-.11c-3.96 3.318-7.924 6.548-11.888 9.688-3.964-3.14-7.93-6.37-11.888-9.69zm47.714-.897c10.468-.59 20.76-1.436 30.812-2.535-2.676 18.272-6.236 35.506-10.623 51.277-14.254-8.05-28.957-17.72-43.77-28.747 7.886-6.33 15.762-13.01 23.58-19.995zm17.56-16.294c2.842-2.74 5.672-5.515 8.486-8.33s5.59-5.642 8.328-8.484c-.453 5.147-.972 10.235-1.555 15.258-5.024.583-10.11 1.102-15.258 1.555zm33.107-34.374c6.984-7.82 13.664-15.695 19.995-23.58 11.03 14.813 20.697 29.516 28.747 43.77-15.772 4.386-33.005 7.947-51.277 10.623 1.1-10.054 1.944-20.346 2.535-30.814zm.896-23.938c.072-3.946.11-7.91.11-11.888 0-3.98-.04-7.942-.11-11.888 3.318 3.96 6.548 7.924 9.688 11.888-3.14 3.964-6.37 7.928-9.69 11.888zm-.897-47.714c-.59-10.468-1.436-20.76-2.535-30.813 18.272 2.677 35.505 6.237 51.277 10.624-8.05 14.254-17.72 28.957-28.747 43.77-6.33-7.886-13.01-15.76-19.995-23.58zM181.995 75.63C195.755 37.1 213.8 15 231.5 15s35.744 22.1 49.505 60.63c.697 1.953 1.375 3.946 2.043 5.96-16.757 9.26-34.112 20.672-51.548 33.87-17.437-13.198-34.79-24.61-51.548-33.87.667-2.013 1.345-4.007 2.043-5.96zm-95.717 80.66C68.763 119.31 65.896 90.926 78.41 78.41c5.144-5.142 12.962-7.687 22.958-7.687 14.332 0 33.138 5.236 54.92 15.554 1.875.888 3.764 1.818 5.66 2.77-5.302 18.396-9.504 38.738-12.502 60.4-21.66 2.997-42.003 7.198-60.4 12.5-.95-1.895-1.88-3.784-2.768-5.658zM75.63 281.004C37.1 267.245 15 249.2 15 231.5s22.1-35.744 60.63-49.505c1.953-.698 3.946-1.375 5.96-2.043 9.26 16.757 20.672 34.112 33.87 51.548-13.198 17.437-24.61 34.79-33.87 51.548-2.013-.667-4.007-1.345-5.96-2.043zm80.66 95.717c-36.977 17.515-65.362 20.382-77.878 7.867-12.516-12.517-9.648-40.902 7.867-77.88.887-1.873 1.817-3.762 2.768-5.657 18.397 5.3 38.74 9.503 60.4 12.5 2.998 21.662 7.2 42.004 12.5 60.4-1.896.95-3.784 1.88-5.658 2.77zm124.715 10.648C267.245 425.9 249.2 448 231.5 448s-35.744-22.1-49.505-60.63c-.697-1.953-1.375-3.946-2.043-5.96 16.757-9.26 34.112-20.672 51.548-33.87 17.437 13.198 34.79 24.61 51.548 33.87-.667 2.013-1.345 4.007-2.043 5.96zm95.717-80.66c17.515 36.977 20.382 65.362 7.867 77.878-12.516 12.516-40.902 9.648-77.88-7.867-1.873-.887-3.762-1.817-5.657-2.768 5.3-18.397 9.503-38.74 12.5-60.4 21.662-2.998 42.004-7.2 60.4-12.5.95 1.896 1.88 3.784 2.77 5.658zM347.54 231.5c13.197-17.437 24.61-34.792 33.87-51.548 2.013.668 4.007 1.345 5.96 2.043C425.9 195.755 448 213.8 448 231.5s-22.1 35.744-60.63 49.505c-1.953.698-3.946 1.375-5.96 2.043-9.26-16.757-20.673-34.11-33.87-51.548z"/></svg>