<svg xmlns="http://www.w3.org/2000/svg" viewBox="0 0 463 463"><path d="M232.026 176c-30.603 0-55.5 24.897-55.5 55.5s24.897 55.5 55.5 55.5 55.5-24.897 55.5-55.5-24.898-55.5-55.5-55.5zm0 96c-22.332 0-40.5-18.168-40.5-40.5s18.168-40.5 40.5-40.5 40.5 18.168 40.5 40.5-18.168 40.5-40.5 40.5z"/><path d="M232.026 208c-4.143 0-7.5 3.357-7.5 7.5s3.357 7.5 7.5 7.5c4.687 0 8.5 3.813 8.5 8.5 0 4.143 3.357 7.5 7.5 7.5s7.5-3.357 7.5-7.5c0-12.958-10.542-23.5-23.5-23.5z"/><path d="M388.06 231.5c6.576-6.863 12.634-13.755 18.115-20.633 30.384-38.126 39.736-71.906 26.335-95.117-13.4-23.21-47.33-32.003-95.54-24.752-8.714 1.31-17.73 3.115-26.978 5.384-5.48-18.897-12.136-35.802-19.82-49.97 3.343-4.06 5.353-9.255 5.353-14.912 0-12.958-10.542-23.5-23.5-23.5-3.85 0-7.485.937-10.696 2.586C251.953 3.563 242.115 0 232.025 0c-26.802 0-51.38 24.99-69.206 70.365-3.216 8.185-6.156 16.88-8.812 26.004-9.23-2.263-18.23-4.064-26.926-5.372-48.21-7.248-82.14 1.54-95.542 24.752-13.4 23.21-4.048 56.99 26.336 95.117 5.492 6.89 11.564 13.797 18.153 20.673-8.117 8.455-15.416 16.925-21.774 25.305-1.986-.547-4.073-.845-6.23-.845-12.958 0-23.5 10.542-23.5 23.5 0 6.448 2.612 12.297 6.832 16.547-7.722 19.95-7.677 37.587.183 51.203 10.34 17.905 32.887 27.23 64.79 27.228 9.452 0 19.733-.82 30.753-2.477 8.696-1.307 17.695-3.107 26.926-5.37 2.655 9.125 5.595 17.818 8.81 26.004C180.647 438.01 205.225 463 232.027 463s51.38-24.99 69.206-70.366c3.22-8.2 6.166-16.908 8.825-26.05 12.23 3.01 24.007 5.198 35.142 6.49C347.71 383.35 356.987 391 368.025 391c11.237 0 20.652-7.93 22.956-18.486 19.723-3.6 34.036-12.287 41.528-25.263 13.4-23.21 4.05-56.99-26.335-95.116-5.48-6.88-11.54-13.772-18.114-20.634zM339.2 105.832c41.084-6.182 70.36.17 80.32 17.418 9.957 17.248.817 45.776-25.076 78.27-5.142 6.45-10.823 12.923-16.987 19.373-15.384-14.784-33.07-29.31-52.48-43.114-2.276-23.712-6.038-46.287-11.114-66.91 8.69-2.12 17.158-3.808 25.336-5.038zm-66.924 195.383c-13.373 7.72-26.836 14.775-40.218 21.113-13.433-6.346-26.93-13.404-40.282-21.113-13.383-7.727-26.234-15.866-38.423-24.294-1.204-14.768-1.827-29.967-1.827-45.42 0-15.44.622-30.624 1.824-45.38 12.22-8.47 25.085-16.633 38.426-24.336 13.383-7.727 26.857-14.786 40.25-21.128 13.393 6.34 26.867 13.4 40.25 21.128 13.375 7.722 26.218 15.855 38.4 24.277 1.214 14.78 1.85 29.994 1.85 45.44 0 15.453-.623 30.652-1.827 45.42-12.19 8.43-25.04 16.568-38.424 24.295zm36.476-4.885c-2.19 18.263-5.31 35.688-9.3 51.9-16-4.65-32.672-10.666-49.596-17.893 9.986-5.01 19.98-10.394 29.92-16.13 9.954-5.75 19.63-11.723 28.976-17.877zm-94.477 34.018c-16.936 7.247-33.61 13.266-49.668 17.923-3.993-16.223-7.117-33.662-9.308-51.94 9.345 6.153 19.02 12.128 28.976 17.875 9.94 5.738 19.966 11.123 30 16.143zm-76.757-64.817c-14.716-11.023-28.24-22.433-40.284-33.99 12.03-11.53 25.574-22.96 40.28-33.998-.654 11.147-.988 22.49-.988 33.958 0 11.494.335 22.86.992 34.03zm17.776-98.822c2.192-18.292 5.317-35.744 9.313-51.98 16.047 4.655 32.712 10.67 49.637 17.91-10.002 5.016-20.015 10.41-29.97 16.156-9.932 5.735-19.61 11.728-28.98 17.914zm94.513-34.07c16.916-7.237 33.572-13.25 49.61-17.9 3.962 16.15 7.09 33.593 9.295 51.906-9.333-6.145-18.996-12.11-28.936-17.85-9.955-5.747-19.967-11.14-29.97-16.156zm76.702 64.812c14.742 11.042 28.29 22.473 40.35 34.05-12.053 11.57-25.593 22.995-40.327 34.032.657-11.17.993-22.537.993-34.03 0-11.49-.348-22.867-1.017-34.052zM280.525 31.5c0 4.687-3.813 8.5-8.5 8.5s-8.5-3.813-8.5-8.5 3.813-8.5 8.5-8.5 8.5 3.813 8.5 8.5zM176.78 75.85C191.973 37.18 212.11 15 232.026 15c6.24 0 12.53 2.173 18.755 6.467-1.443 3.045-2.254 6.445-2.254 10.033 0 12.958 10.542 23.5 23.5 23.5 1.855 0 3.658-.223 5.39-.63 6.99 13.04 13.08 28.54 18.133 45.88-20.48 5.927-41.883 13.972-63.523 23.87-21.644-9.9-43.05-17.945-63.53-23.87 2.502-8.565 5.267-16.72 8.283-24.4zm-132.25 47.4c9.958-17.25 39.235-23.597 80.32-17.418 8.16 1.227 16.605 2.91 25.273 5.023-5.11 20.715-8.85 43.294-11.098 67.007-19.344 13.794-37.03 28.345-52.385 43.08-6.182-6.466-11.88-12.954-17.034-19.423-25.894-32.494-35.034-61.022-25.076-78.27zM48.026 271c4.687 0 8.5 3.813 8.5 8.5s-3.813 8.5-8.5 8.5-8.5-3.813-8.5-8.5 3.813-8.5 8.5-8.5zm76.826 86.168c-41.083 6.177-70.362-.17-80.32-17.418-6.525-11.302-3.875-25.618.315-36.97 1.04.14 2.1.22 3.18.22 12.957 0 23.5-10.542 23.5-23.5 0-5.35-1.8-10.283-4.822-14.237 5.845-7.65 12.52-15.387 19.926-23.12 15.365 14.76 33.022 29.264 52.4 43.047 2.25 23.693 5.986 46.254 11.094 66.954-8.668 2.113-17.114 3.797-25.272 5.024zm162.418 29.98C272.077 425.82 251.942 448 232.026 448c-19.917 0-40.053-22.18-55.245-60.85-3.016-7.68-5.78-15.836-8.284-24.4 20.493-5.93 41.915-13.98 63.573-23.89 21.63 9.87 43.067 17.91 63.502 23.84-2.51 8.58-5.28 16.754-8.302 24.45zM368.026 376c-4.687 0-8.5-3.813-8.5-8.5s3.813-8.5 8.5-8.5 8.5 3.813 8.5 8.5-3.814 8.5-8.5 8.5zm51.494-36.25c-5.18 8.972-15.342 14.946-30.207 17.81-3.752-8.002-11.88-13.56-21.287-13.56-9.626 0-17.915 5.82-21.543 14.125-10.313-1.215-21.218-3.242-32.547-6.013 5.104-20.69 8.837-43.24 11.085-66.92 19.395-13.795 37.066-28.312 52.438-43.084 6.164 6.45 11.845 12.922 16.987 19.374 25.893 32.492 35.033 61.02 25.075 78.268z"/></svg>