<svg xmlns="http://www.w3.org/2000/svg" viewBox="0 0 463 463"><path d="M407.5 88h-352c-4.143 0-7.5 3.358-7.5 7.5v272c0 4.142 3.357 7.5 7.5 7.5h352c4.143 0 7.5-3.358 7.5-7.5v-272c0-4.142-3.357-7.5-7.5-7.5zM400 360H63V103h337v257z"/><path d="M455.5 392H447V79.5c0-12.958-10.542-23.5-23.5-23.5h-384C26.542 56 16 66.542 16 79.5V392H7.5c-4.143 0-7.5 3.358-7.5 7.5s3.357 7.5 7.5 7.5h448c4.143 0 7.5-3.358 7.5-7.5s-3.357-7.5-7.5-7.5zM31 79.5c0-4.687 3.813-8.5 8.5-8.5h384c4.687 0 8.5 3.813 8.5 8.5V392H31V79.5z"/><path d="M215.5 288c4.143 0 7.5-3.358 7.5-7.5v-40c0-4.687 3.813-8.5 8.5-8.5s8.5 3.813 8.5 8.5v40c0 4.142 3.357 7.5 7.5 7.5s7.5-3.358 7.5-7.5v-40c0-4.687 3.813-8.5 8.5-8.5s8.5 3.813 8.5 8.5v40c0 4.142 3.357 7.5 7.5 7.5s7.5-3.358 7.5-7.5v-40c0-12.958-10.542-23.5-23.5-23.5-6.177 0-11.8 2.4-16 6.31-4.2-3.91-9.823-6.31-16-6.31-3.755 0-7.304.89-10.455 2.462-1.372-1.51-3.345-2.462-5.545-2.462-4.143 0-7.5 3.358-7.5 7.5v56c0 4.142 3.357 7.5 7.5 7.5zM95.5 288h48c4.143 0 7.5-3.358 7.5-7.5s-3.357-7.5-7.5-7.5H103v-33h24.5c4.143 0 7.5-3.358 7.5-7.5s-3.357-7.5-7.5-7.5H103v-33h40.5c4.143 0 7.5-3.358 7.5-7.5s-3.357-7.5-7.5-7.5h-48c-4.143 0-7.5 3.358-7.5 7.5v96c0 4.142 3.357 7.5 7.5 7.5zM167.5 240h16c4.143 0 7.5-3.358 7.5-7.5s-3.357-7.5-7.5-7.5h-16c-4.143 0-7.5 3.358-7.5 7.5s3.357 7.5 7.5 7.5zM167.5 272h16c4.143 0 7.5-3.358 7.5-7.5s-3.357-7.5-7.5-7.5h-16c-4.143 0-7.5 3.358-7.5 7.5s3.357 7.5 7.5 7.5zM327.5 288c8.48 0 16.434-3.75 22.4-10.556 2.73-3.115 2.42-7.853-.694-10.583-3.115-2.73-7.854-2.418-10.584.697-3.078 3.51-7.027 5.444-11.122 5.444-9.098 0-16.5-9.195-16.5-20.5s7.402-20.5 16.5-20.5c4.095 0 8.044 1.935 11.122 5.445 2.73 3.115 7.47 3.427 10.584.696 3.114-2.73 3.426-7.468.695-10.582-5.966-6.81-13.92-10.558-22.4-10.558-17.37 0-31.5 15.925-31.5 35.5s14.13 35.5 31.5 35.5zM343.5 216h28c4.143 0 7.5-3.358 7.5-7.5s-3.357-7.5-7.5-7.5H351v-4.5c0-2.48 2.02-4.5 4.5-4.5h4c10.752 0 19.5-8.748 19.5-19.5s-8.748-19.5-19.5-19.5h-8c-8.547 0-15.5 6.953-15.5 15.5 0 4.142 3.357 7.5 7.5 7.5s7.5-3.358 7.5-7.5c0-.276.225-.5.5-.5h8c2.48 0 4.5 2.02 4.5 4.5s-2.02 4.5-4.5 4.5h-4c-10.752 0-19.5 8.748-19.5 19.5v12c0 4.142 3.357 7.5 7.5 7.5z"/></svg>