<svg xmlns="http://www.w3.org/2000/svg" viewBox="0 0 463 463"><path d="M151.245 222.446C148.055 237.04 135.035 248 119.5 248c-4.142 0-7.5 3.357-7.5 7.5s3.358 7.5 7.5 7.5c23.774 0 43.522-17.557 46.966-40.386 14.556-1.574 27.993-8.06 38.395-18.677 2.9-2.96 2.85-7.708-.108-10.606-2.958-2.896-7.707-2.85-10.606.11-9.2 9.39-21.503 14.56-34.646 14.56-26.743 0-48.5-21.757-48.5-48.5 0-4.143-3.358-7.5-7.5-7.5s-7.5 3.357-7.5 7.5c0 32.215 24.12 58.884 55.245 62.946zM183 287.5c0-4.143-3.358-7.5-7.5-7.5-35.014 0-63.5 28.486-63.5 63.5 0 .362.013.725.02 1.088-2.79-.376-5.63-.588-8.52-.588-4.142 0-7.5 3.357-7.5 7.5s3.358 7.5 7.5 7.5c26.743 0 48.5 21.757 48.5 48.5 0 4.143 3.358 7.5 7.5 7.5s7.5-3.357 7.5-7.5c0-26.61-16.462-49.437-39.73-58.867-.18-1.7-.27-3.418-.27-5.133 0-26.743 21.757-48.5 48.5-48.5 4.142 0 7.5-3.357 7.5-7.5z"/><path d="M439 223.5c0-17.075-6.82-33.256-18.875-45.156 1.91-6.108 2.875-12.426 2.875-18.844 0-30.874-22.152-56.66-51.394-62.33C373.84 91.6 375 85.63 375 79.5c0-19.557-11.883-36.387-28.806-43.66C318 13.382 287.162 0 263.5 0c-13.153 0-24.817 6.468-32 16.384C224.317 6.468 212.653 0 199.5 0c-23.662 0-54.5 13.383-82.694 35.84C99.883 43.112 88 59.942 88 79.5c0 6.128 1.16 12.1 3.394 17.67C62.152 102.84 40 128.627 40 159.5c0 6.418.965 12.735 2.875 18.844C30.82 190.244 24 206.424 24 223.5c0 13.348 4.15 25.74 11.213 35.975C27.873 270.087 24 282.465 24 295.5c0 23.088 12.587 44.242 32.516 55.396-.343 2.852-.516 5.73-.516 8.604 0 31.144 20.315 58.68 49.79 68.063C118.61 449.505 141.965 463 167.5 463c27.995 0 52.27-16.18 64-39.674C243.23 446.82 267.505 463 295.5 463c25.535 0 48.89-13.495 61.71-35.437 29.475-9.385 49.79-36.92 49.79-68.063 0-2.874-.173-5.752-.516-8.604C426.414 339.742 439 318.588 439 295.5c0-13.034-3.872-25.413-11.213-36.025C434.85 249.24 439 236.848 439 223.5zM167.5 448c-21.03 0-40.19-11.594-50.01-30.256-.972-1.85-2.67-3.208-4.687-3.75C88.19 407.368 71 384.96 71 359.5c0-3.81.384-7.626 1.14-11.344.703-3.447-1.086-6.92-4.3-8.35C50.32 332.018 39 314.626 39 295.5c0-8.7 2.256-17.014 6.56-24.38C56.758 280.993 71.437 287 87.5 287c4.142 0 7.5-3.357 7.5-7.5s-3.358-7.5-7.5-7.5C60.757 272 39 250.243 39 223.5c0-14.396 6.352-27.964 17.428-37.22 2.5-2.09 3.365-5.556 2.14-8.575C56.2 171.87 55 165.745 55 159.5c0-26.743 21.757-48.5 48.5-48.5s48.5 21.757 48.5 48.5c0 4.143 3.358 7.5 7.5 7.5s7.5-3.357 7.5-7.5c0-33.642-26.302-61.243-59.42-63.355C104.576 91.127 103 85.42 103 79.5c0-13.37 8.116-24.875 19.678-29.86.447-.132.885-.306 1.308-.526C127.568 47.752 131.446 47 135.5 47c12.557 0 23.767 7.02 29.256 18.325 1.81 3.727 6.298 5.28 10.023 3.47 3.725-1.81 5.28-6.296 3.47-10.022-6.267-12.903-18.126-22.177-31.783-25.462C165.61 21.63 184.454 15 199.5 15c13.51 0 24.5 10.99 24.5 24.5v97.05c-6.74-5.345-15.25-8.55-24.5-8.55-4.142 0-7.5 3.357-7.5 7.5s3.358 7.5 7.5 7.5c13.51 0 24.5 10.99 24.5 24.5v180.28c-9.325-12.032-22.47-21.112-37.935-25.267-4-1.07-8.114 1.297-9.19 5.297-1.074 4 1.298 8.115 5.298 9.19C206.8 343.615 224 366.026 224 391.5c0 31.154-25.346 56.5-56.5 56.5zm227.66-108.193c-3.214 1.43-5.003 4.902-4.3 8.35.756 3.718 1.14 7.534 1.14 11.344 0 25.462-17.19 47.87-41.803 54.494-2.017.543-3.716 1.902-4.688 3.75C335.69 436.407 316.53 448 295.5 448c-31.154 0-56.5-25.346-56.5-56.5 0-2.11-.098-4.2-.28-6.27.177-.642.28-1.315.28-2.013V135.5c0-13.51 10.99-24.5 24.5-24.5 4.142 0 7.5-3.357 7.5-7.5s-3.358-7.5-7.5-7.5c-9.25 0-17.76 3.205-24.5 8.55V39.5c0-13.51 10.99-24.5 24.5-24.5 15.046 0 33.89 6.63 53.033 18.31-13.657 3.285-25.516 12.56-31.782 25.463-1.81 3.727-.255 8.214 3.47 10.022 3.727 1.81 8.214.257 10.024-3.47C303.734 54.02 314.944 47 327.5 47c4.053 0 7.933.752 11.514 2.114.422.22.86.393 1.305.526C351.882 54.624 360 66.13 360 79.5c0 5.92-1.577 11.627-4.58 16.645C322.303 98.257 296 125.858 296 159.5c0 4.143 3.358 7.5 7.5 7.5s7.5-3.357 7.5-7.5c0-26.743 21.757-48.5 48.5-48.5s48.5 21.757 48.5 48.5c0 6.244-1.2 12.37-3.567 18.205-1.225 3.02-.36 6.484 2.14 8.574C417.648 195.535 424 209.103 424 223.5c0 26.743-21.757 48.5-48.5 48.5-4.142 0-7.5 3.357-7.5 7.5s3.358 7.5 7.5 7.5c16.064 0 30.743-6.008 41.94-15.88 4.305 7.366 6.56 15.68 6.56 24.38 0 19.126-11.32 36.518-28.84 44.307z"/><path d="M359.5 240c-15.536 0-28.554-10.96-31.745-25.554C358.88 210.384 383 183.716 383 151.5c0-4.143-3.358-7.5-7.5-7.5s-7.5 3.357-7.5 7.5c0 26.743-21.757 48.5-48.5 48.5-13.143 0-25.447-5.17-34.646-14.56-2.898-2.96-7.647-3.008-10.606-.11s-3.008 7.648-.11 10.607c10.403 10.617 23.84 17.103 38.396 18.677C315.978 237.444 335.726 255 359.5 255c4.142 0 7.5-3.357 7.5-7.5s-3.358-7.5-7.5-7.5zM335.5 328c-2.89 0-5.73.212-8.52.588.007-.363.02-.726.02-1.088 0-35.014-28.486-63.5-63.5-63.5-4.142 0-7.5 3.357-7.5 7.5s3.358 7.5 7.5 7.5c26.743 0 48.5 21.757 48.5 48.5 0 1.714-.09 3.434-.27 5.133C288.463 342.063 272 364.89 272 391.5c0 4.143 3.358 7.5 7.5 7.5s7.5-3.357 7.5-7.5c0-26.743 21.757-48.5 48.5-48.5 4.142 0 7.5-3.357 7.5-7.5s-3.358-7.5-7.5-7.5z"/></svg>