<svg xmlns="http://www.w3.org/2000/svg" viewBox="0 0 463 463"><path d="M375.5 416H335v-16.5c0-8.547-6.953-15.5-15.5-15.5H279v-9.91c13.76-3.373 24-15.805 24-30.59 0-15.35-21.59-40.186-25.918-45.01-1.423-1.584-3.452-2.49-5.582-2.49s-4.16.906-5.582 2.49C261.59 303.315 240 328.15 240 343.5c0 14.785 10.24 27.216 24 30.59V384h-40.5c-8.547 0-15.5 6.953-15.5 15.5V416h-73V247h65.236c17.503 19.622 42.963 32 71.264 32s53.76-12.378 71.264-32H367.5c4.143 0 7.5-3.358 7.5-7.5s-3.357-7.5-7.5-7.5h-13.764c8.42-14.224 13.264-30.806 13.264-48.5 0-40.56-26.044-76.818-64-90.092V63h8.5c4.143 0 7.5-3.358 7.5-7.5s-3.357-7.5-7.5-7.5H303V15h.5c4.143 0 7.5-3.358 7.5-7.5S307.643 0 303.5 0h-64c-4.143 0-7.5 3.358-7.5 7.5s3.357 7.5 7.5 7.5h.5v33H135V7.5c0-4.142-3.357-7.5-7.5-7.5h-32C91.357 0 88 3.358 88 7.5V48h-9v-8.5c0-4.142-3.357-7.5-7.5-7.5S64 35.358 64 39.5v32c0 4.142 3.357 7.5 7.5 7.5s7.5-3.358 7.5-7.5V63h9v169h-9v-8.5c0-4.142-3.357-7.5-7.5-7.5s-7.5 3.358-7.5 7.5v32c0 4.142 3.357 7.5 7.5 7.5s7.5-3.358 7.5-7.5V247h9v169h-.5C70.13 416 56 430.13 56 447.5v8c0 4.142 3.357 7.5 7.5 7.5h336c4.143 0 7.5-3.358 7.5-7.5v-8c0-17.37-14.13-31.5-31.5-31.5zM255 343.5c0-5.282 7.814-17.62 16.517-28.43C281.83 327.797 288 339.23 288 343.5c0 6.396-3.666 11.94-9 14.678V351.5c0-4.142-3.357-7.5-7.5-7.5s-7.5 3.358-7.5 7.5v6.678c-5.334-2.737-9-8.282-9-14.678zm-32 56c0-.276.225-.5.5-.5h96c.275 0 .5.224.5.5V416h-97v-16.5zM271.5 264c-18.605 0-35.74-6.36-49.39-17h98.778c-13.647 10.64-30.783 17-49.388 17zm-64.2-32c-8.8-11.622-14.518-25.696-15.94-41H351.64c-1.42 15.304-7.138 29.378-15.94 41H207.3zM288 15v83.9c0 3.354 2.23 6.3 5.456 7.215 32.04 9.075 55.086 37.212 58.177 69.885H191.367c3.09-32.672 26.137-60.81 58.177-69.885 3.228-.915 5.456-3.86 5.456-7.216V15h33zm-48 48v30.408c-37.956 13.274-64 49.53-64 90.092 0 17.694 4.843 34.276 13.264 48.5H135V63h105zM103 15h17v33h-17V15zm0 48h17v169h-17V63zm0 184h17v169h-17V247zm289 201H71v-.5c0-9.098 7.402-16.5 16.5-16.5h288c9.098 0 16.5 7.402 16.5 16.5v.5z"/><path d="M231.5 208c-1.98 0-3.91.8-5.3 2.2-1.4 1.39-2.2 3.32-2.2 5.3s.8 3.91 2.2 5.3c1.39 1.4 3.32 2.2 5.3 2.2s3.91-.8 5.3-2.2c1.4-1.39 2.2-3.33 2.2-5.3 0-1.97-.8-3.91-2.2-5.3-1.39-1.4-3.32-2.2-5.3-2.2zM300.8 202.2c-1.4-1.4-3.33-2.2-5.3-2.2s-3.91.8-5.3 2.2c-1.4 1.39-2.2 3.33-2.2 5.3 0 1.97.8 3.9 2.2 5.3 1.39 1.4 3.32 2.2 5.3 2.2s3.91-.8 5.3-2.2c1.4-1.39 2.2-3.33 2.2-5.3 0-1.97-.8-3.91-2.2-5.3zM287.5 159c1.97 0 3.91-.8 5.3-2.2 1.4-1.39 2.2-3.32 2.2-5.3s-.8-3.91-2.2-5.3c-1.39-1.4-3.32-2.2-5.3-2.2s-3.91.8-5.3 2.2c-1.4 1.39-2.2 3.33-2.2 5.3 0 1.97.8 3.91 2.2 5.3 1.39 1.4 3.32 2.2 5.3 2.2zM263.5 135c1.97 0 3.91-.8 5.3-2.2 1.4-1.39 2.2-3.33 2.2-5.3 0-1.97-.8-3.91-2.2-5.3-1.39-1.4-3.32-2.2-5.3-2.2s-3.91.8-5.3 2.2c-1.4 1.39-2.2 3.33-2.2 5.3 0 1.97.8 3.91 2.2 5.3 1.39 1.4 3.33 2.2 5.3 2.2z"/></svg>