<svg xmlns="http://www.w3.org/2000/svg" viewBox="0 0 463 463"><path d="M399.5 0h-336C32.897 0 8 24.897 8 55.5v352C8 438.103 32.897 463 63.5 463h336c30.603 0 55.5-24.897 55.5-55.5v-352C455 24.897 430.103 0 399.5 0zM440 407.5c0 22.332-18.168 40.5-40.5 40.5h-336C41.168 448 23 429.832 23 407.5v-352C23 33.168 41.168 15 63.5 15h336c22.332 0 40.5 18.168 40.5 40.5v352z"/><path d="M135.5 312h-64C58.542 312 48 322.542 48 335.5v64c0 12.958 10.542 23.5 23.5 23.5h64c12.958 0 23.5-10.542 23.5-23.5v-64c0-12.958-10.542-23.5-23.5-23.5zm8.5 87.5c0 4.687-3.813 8.5-8.5 8.5h-64c-4.687 0-8.5-3.813-8.5-8.5v-64c0-4.687 3.813-8.5 8.5-8.5h64c4.687 0 8.5 3.813 8.5 8.5v64zM135.5 184h-64C58.542 184 48 194.542 48 207.5v64c0 12.958 10.542 23.5 23.5 23.5h64c12.958 0 23.5-10.542 23.5-23.5v-64c0-12.958-10.542-23.5-23.5-23.5zm8.5 87.5c0 4.687-3.813 8.5-8.5 8.5h-64c-4.687 0-8.5-3.813-8.5-8.5v-64c0-4.687 3.813-8.5 8.5-8.5h64c4.687 0 8.5 3.813 8.5 8.5v64zM263.5 312h-64c-12.958 0-23.5 10.542-23.5 23.5v64c0 12.958 10.542 23.5 23.5 23.5h64c12.958 0 23.5-10.542 23.5-23.5v-64c0-12.958-10.542-23.5-23.5-23.5zm8.5 87.5c0 4.687-3.813 8.5-8.5 8.5h-64c-4.687 0-8.5-3.813-8.5-8.5v-64c0-4.687 3.813-8.5 8.5-8.5h64c4.687 0 8.5 3.813 8.5 8.5v64zM263.5 184h-64c-12.958 0-23.5 10.542-23.5 23.5v64c0 12.958 10.542 23.5 23.5 23.5h64c12.958 0 23.5-10.542 23.5-23.5v-64c0-12.958-10.542-23.5-23.5-23.5zm8.5 87.5c0 4.687-3.813 8.5-8.5 8.5h-64c-4.687 0-8.5-3.813-8.5-8.5v-64c0-4.687 3.813-8.5 8.5-8.5h64c4.687 0 8.5 3.813 8.5 8.5v64zM391.5 184h-64c-12.958 0-23.5 10.542-23.5 23.5v192c0 12.958 10.542 23.5 23.5 23.5h64c12.958 0 23.5-10.542 23.5-23.5v-192c0-12.958-10.542-23.5-23.5-23.5zm8.5 215.5c0 4.687-3.813 8.5-8.5 8.5h-64c-4.687 0-8.5-3.813-8.5-8.5v-192c0-4.687 3.813-8.5 8.5-8.5h64c4.687 0 8.5 3.813 8.5 8.5v192zM391.5 40h-320C58.542 40 48 50.542 48 63.5v80c0 12.958 10.542 23.5 23.5 23.5h320c12.958 0 23.5-10.542 23.5-23.5v-80c0-12.958-10.542-23.5-23.5-23.5zm8.5 103.5c0 4.687-3.813 8.5-8.5 8.5h-320c-4.687 0-8.5-3.813-8.5-8.5v-80c0-4.687 3.813-8.5 8.5-8.5h320c4.687 0 8.5 3.813 8.5 8.5v80z"/><path d="M119.5 232H111v-8.5c0-4.142-3.358-7.5-7.5-7.5s-7.5 3.358-7.5 7.5v8.5h-8.5c-4.142 0-7.5 3.358-7.5 7.5s3.358 7.5 7.5 7.5H96v8.5c0 4.142 3.358 7.5 7.5 7.5s7.5-3.358 7.5-7.5V247h8.5c4.142 0 7.5-3.358 7.5-7.5s-3.358-7.5-7.5-7.5zM247.5 232h-32c-4.142 0-7.5 3.358-7.5 7.5s3.358 7.5 7.5 7.5h32c4.142 0 7.5-3.358 7.5-7.5s-3.358-7.5-7.5-7.5zM247.5 360h-32c-4.142 0-7.5 3.358-7.5 7.5s3.358 7.5 7.5 7.5h32c4.142 0 7.5-3.358 7.5-7.5s-3.358-7.5-7.5-7.5zM231.5 351c1.97 0 3.91-.8 5.3-2.2 1.4-1.39 2.2-3.33 2.2-5.3 0-1.97-.8-3.91-2.2-5.3-1.39-1.4-3.33-2.2-5.3-2.2-1.97 0-3.91.8-5.3 2.2-1.4 1.39-2.2 3.32-2.2 5.3s.8 3.91 2.2 5.3c1.39 1.4 3.33 2.2 5.3 2.2zM231.5 384c-1.97 0-3.91.8-5.3 2.2-1.4 1.39-2.2 3.33-2.2 5.3 0 1.97.8 3.91 2.2 5.3 1.39 1.4 3.33 2.2 5.3 2.2 1.98 0 3.91-.8 5.3-2.2 1.4-1.4 2.2-3.33 2.2-5.3 0-1.97-.8-3.91-2.2-5.3-1.39-1.4-3.32-2.2-5.3-2.2zM375.5 312h-32c-4.142 0-7.5 3.358-7.5 7.5s3.358 7.5 7.5 7.5h32c4.142 0 7.5-3.358 7.5-7.5s-3.358-7.5-7.5-7.5zM375.5 280h-32c-4.142 0-7.5 3.358-7.5 7.5s3.358 7.5 7.5 7.5h32c4.142 0 7.5-3.358 7.5-7.5s-3.358-7.5-7.5-7.5zM124.803 346.197c-2.93-2.93-7.678-2.93-10.606 0L103.5 356.894l-10.697-10.697c-2.93-2.93-7.678-2.93-10.606 0-2.93 2.93-2.93 7.678 0 10.606L92.894 367.5l-10.697 10.697c-2.93 2.93-2.93 7.678 0 10.606C83.66 390.268 85.58 391 87.5 391s3.84-.732 5.303-2.197l10.697-10.697 10.697 10.697c1.464 1.464 3.384 2.197 5.303 2.197s3.84-.732 5.303-2.197c2.93-2.93 2.93-7.678 0-10.606L114.106 367.5l10.697-10.697c2.93-2.928 2.93-7.678 0-10.606z"/></svg>