<svg xmlns="http://www.w3.org/2000/svg" viewBox="0 0 463 463"><path d="M431.5 48h-400C14.13 48 0 62.13 0 79.5v288c0 14.785 10.24 27.216 24 30.59v9.41c0 4.142 3.358 7.5 7.5 7.5s7.5-3.358 7.5-7.5V399h385v8.5c0 4.142 3.358 7.5 7.5 7.5s7.5-3.358 7.5-7.5v-9.41c13.76-3.373 24-15.805 24-30.59v-288c0-17.37-14.13-31.5-31.5-31.5zM448 367.5c0 9.098-7.402 16.5-16.5 16.5h-400c-9.098 0-16.5-7.402-16.5-16.5v-288C15 70.402 22.402 63 31.5 63h400c9.098 0 16.5 7.402 16.5 16.5v288z"/><path d="M423.5 80h-384c-4.142 0-7.5 3.358-7.5 7.5v240c0 4.142 3.358 7.5 7.5 7.5h384c4.142 0 7.5-3.358 7.5-7.5v-240c0-4.142-3.358-7.5-7.5-7.5zM416 320H47V95h369v225zM415.5 352h-8c-4.142 0-7.5 3.358-7.5 7.5s3.358 7.5 7.5 7.5h8c4.142 0 7.5-3.358 7.5-7.5s-3.358-7.5-7.5-7.5zM375.5 352h-8c-4.142 0-7.5 3.358-7.5 7.5s3.358 7.5 7.5 7.5h8c4.142 0 7.5-3.358 7.5-7.5s-3.358-7.5-7.5-7.5zM335.5 352h-24c-4.142 0-7.5 3.358-7.5 7.5s3.358 7.5 7.5 7.5h24c4.142 0 7.5-3.358 7.5-7.5s-3.358-7.5-7.5-7.5z"/><path d="M71.5 215h56c3.44 0 6.44-2.342 7.276-5.68l8.503-34.014 24.92 105.912c.797 3.39 3.82 5.782 7.3 5.782h.046c3.498-.022 6.516-2.458 7.275-5.873L197.517 215h73.987c3.44 0 6.44-2.342 7.276-5.68l8.5-34.01 24.918 105.908c.798 3.39 3.822 5.782 7.3 5.782h.047c3.498-.022 6.516-2.458 7.275-5.873L341.52 215h49.98c4.142 0 7.5-3.358 7.5-7.5s-3.358-7.5-7.5-7.5h-55.998c-3.515 0-6.56 2.44-7.32 5.873l-8.89 39.997L294.8 141.783c-.793-3.37-3.788-5.758-7.25-5.782-3.46-.003-6.488 2.325-7.327 5.682L265.647 200H191.5c-3.515 0-6.56 2.44-7.32 5.873l-8.89 39.994-24.49-104.084c-.792-3.37-3.787-5.758-7.248-5.782h-.053c-3.44 0-6.44 2.34-7.276 5.682L121.644 200H71.5c-4.142 0-7.5 3.358-7.5 7.5s3.358 7.5 7.5 7.5z"/></svg>