<svg xmlns="http://www.w3.org/2000/svg" viewBox="0 0 463 463"><path d="M239 96.166v-17.89c18.205-3.514 32-19.56 32-38.776C271 17.72 253.28 0 231.5 0S192 17.72 192 39.5c0 19.216 13.795 35.262 32 38.777v17.89C126.283 100.114 48 180.83 48 279.5 48 380.682 130.318 463 231.5 463S415 380.682 415 279.5c0-98.67-78.283-179.385-176-183.334zM207 39.5c0-13.51 10.99-24.5 24.5-24.5S256 25.99 256 39.5c0 10.894-7.15 20.146-17 23.32V55.5c0-4.142-3.358-7.5-7.5-7.5s-7.5 3.358-7.5 7.5v7.32c-9.85-3.174-17-12.426-17-23.32zM231.5 448C138.59 448 63 372.41 63 279.5S138.59 111 231.5 111 400 186.59 400 279.5 324.41 448 231.5 448z"/><path d="M231.5 128C147.962 128 80 195.962 80 279.5S147.962 431 231.5 431 383 363.038 383 279.5 315.038 128 231.5 128zm0 288C156.234 416 95 354.766 95 279.5S156.234 143 231.5 143 368 204.234 368 279.5 306.766 416 231.5 416z"/><path d="M208 279.5c0 12.958 10.542 23.5 23.5 23.5s23.5-10.542 23.5-23.5-10.542-23.5-23.5-23.5-23.5 10.542-23.5 23.5zm23.5-8.5c4.687 0 8.5 3.813 8.5 8.5s-3.813 8.5-8.5 8.5-8.5-3.813-8.5-8.5 3.813-8.5 8.5-8.5z"/><path d="M308.545 192.606l-97.293 41.697c-11.262 4.826-20.123 13.687-24.95 24.948l-41.696 97.294c-1.208 2.82-.578 6.09 1.59 8.258 1.436 1.436 3.354 2.197 5.305 2.197.997 0 2-.2 2.954-.607l97.293-41.697c11.262-4.826 20.123-13.686 24.95-24.948l41.696-97.294c1.208-2.82.578-6.09-1.59-8.258-2.168-2.167-5.438-2.797-8.258-1.59zM262.91 293.84c-3.303 7.705-9.366 13.767-17.07 17.07l-80.06 34.31 34.31-80.06c3.303-7.706 9.365-13.768 17.07-17.07l80.06-34.31-34.31 80.06zM231.5 191c4.142 0 7.5-3.358 7.5-7.5v-16c0-4.142-3.358-7.5-7.5-7.5s-7.5 3.358-7.5 7.5v16c0 4.142 3.358 7.5 7.5 7.5zM231.5 368c-4.142 0-7.5 3.358-7.5 7.5v16c0 4.142 3.358 7.5 7.5 7.5s7.5-3.358 7.5-7.5v-16c0-4.142-3.358-7.5-7.5-7.5zM135.5 272h-16c-4.142 0-7.5 3.358-7.5 7.5s3.358 7.5 7.5 7.5h16c4.142 0 7.5-3.358 7.5-7.5s-3.358-7.5-7.5-7.5zM343.5 272h-16c-4.142 0-7.5 3.358-7.5 7.5s3.358 7.5 7.5 7.5h16c4.142 0 7.5-3.358 7.5-7.5s-3.358-7.5-7.5-7.5z"/></svg>