<svg xmlns="http://www.w3.org/2000/svg" viewBox="0 0 463.002 463.002"><path d="M348.12 419.308c3.417-2.17 6.24-5.184 8.175-8.864 2.922-5.554 3.508-11.915 1.648-17.91L335.123 319h8.38c4.142 0 7.5-3.358 7.5-7.5s-3.358-7.5-7.5-7.5h-13.036L294.52 188.17C310.307 171.786 319 150.318 319 127.5c0-40.11-27.13-73.998-64-84.29V23.5c0-12.958-10.542-23.5-23.5-23.5s-23.5 10.542-23.5 23.5v19.71c-36.87 10.292-64 44.18-64 84.29 0 22.837 8.69 44.283 24.48 60.665L132.536 304h-13.032c-4.142 0-7.5 3.358-7.5 7.5s3.358 7.5 7.5 7.5h8.377l-22.82 73.536c-1.86 5.994-1.275 12.354 1.647 17.91 1.937 3.68 4.76 6.695 8.175 8.864l-10.542 33.968c-1.228 3.956.984 8.158 4.94 9.386.74.23 1.49.34 2.226.34 3.2 0 6.163-2.064 7.16-5.28l10.8-34.797c9.516-.78 17.606-7.196 20.482-16.46L177.092 319h30.91v8.5c0 12.958 10.543 23.5 23.5 23.5s23.5-10.542 23.5-23.5V319h30.908l27.144 87.465c2.876 9.265 10.966 15.682 20.482 16.46l10.8 34.798c.997 3.216 3.96 5.28 7.16 5.28.736 0 1.485-.11 2.226-.34 3.956-1.228 6.167-5.43 4.94-9.386l-10.542-33.97zM223.003 23.5c0-4.687 3.813-8.5 8.5-8.5s8.5 3.813 8.5 8.5v16.914c-2.798-.27-5.632-.414-8.5-.414s-5.702.143-8.5.414V23.5zM135.62 402.02c-1.11 3.58-4.372 5.988-8.113 5.988-.845 0-1.69-.13-2.525-.39-2.167-.672-3.943-2.148-5-4.158-1.057-2.01-1.27-4.312-.597-6.48l72-232c.674-2.172 2.156-3.952 4.175-5.01 1.233-.65 2.574-.978 3.927-.978.85 0 1.702.13 2.537.39 2.167.673 3.943 2.15 5 4.16 1.057 2.01 1.27 4.31.597 6.478l-72 232zM231.504 336c-4.687 0-8.5-3.813-8.5-8.5v-32c0-4.687 3.813-8.5 8.5-8.5s8.5 3.813 8.5 8.5v32c0 4.687-3.813 8.5-8.5 8.5zm23.5-32v-8.5c0-12.958-10.542-23.5-23.5-23.5s-23.5 10.542-23.5 23.5v8.5h-26.256l40.2-129.536c1.86-5.994 1.275-12.354-1.647-17.91-2.924-5.556-7.836-9.64-13.816-11.494-5.98-1.87-12.337-1.292-17.897 1.627-5.57 2.926-9.665 7.843-11.527 13.847l-3.34 10.76c-9.543-12.535-14.716-27.752-14.716-43.795 0-39.978 32.523-72.5 72.5-72.5s72.5 32.522 72.5 72.5c0 16.026-5.18 31.25-14.722 43.788l-3.337-10.754c-1.862-6.004-5.956-10.922-11.527-13.848-5.56-2.92-11.916-3.498-17.88-1.633-5.996 1.86-10.91 5.943-13.833 11.5-2.922 5.554-3.508 11.915-1.648 17.91L281.255 304h-26.252zm72.378 98.02l-72-232c-.67-2.168-.46-4.47.598-6.48 1.057-2.01 2.833-3.486 5.017-4.163.827-.258 1.673-.386 2.517-.386 1.352 0 2.695.33 3.93.98 2.02 1.06 3.502 2.838 4.176 5.01l72 232c.672 2.168.46 4.47-.597 6.48-1.056 2.01-2.832 3.486-5.01 4.162-.823.256-1.67.386-2.514.386-3.743 0-7.003-2.407-8.115-5.99z"/></svg>