<svg xmlns="http://www.w3.org/2000/svg" viewBox="0 0 463 463"><path d="M265.635 231.492c36.81-35.73 59.34-63.62 74.698-92.34C358.526 105.126 367 68.377 367 23.5 367 10.542 356.458 0 343.5 0S320 10.542 320 23.5c0 .17-.006.33-.006.5H143.006c0-.17-.006-.33-.006-.5C143 10.542 132.458 0 119.5 0S96 10.542 96 23.5c0 47.17 9.465 85.725 29.787 121.336 15.255 26.73 36.633 52.744 71.578 86.672-36.81 35.73-59.34 63.62-74.698 92.34C104.474 357.874 96 394.623 96 439.5c0 12.958 10.542 23.5 23.5 23.5s23.5-10.542 23.5-23.5c0-.17.006-.33.006-.5h176.988c0 .17.006.33.006.5 0 12.958 10.542 23.5 23.5 23.5s23.5-10.542 23.5-23.5c0-47.17-9.465-85.725-29.787-121.336-15.255-26.732-36.633-52.744-71.578-86.672zM343.5 15c4.687 0 8.5 3.813 8.5 8.5 0 86.342-32.73 135.202-97.21 197.618-2.38-2.245-4.804-4.52-7.3-6.836-1.727-1.604-3.43-3.193-5.117-4.775 60.212-58.013 90.16-101.436 92.465-176.46.105-.5.162-1.016.162-1.546 0-.36-.034-.713-.084-1.06.05-2.287.084-4.593.084-6.94 0-4.687 3.813-8.5 8.5-8.5zm-32.262 73H151.776c-1.717-5.51-3.185-11.16-4.384-17h168.203c-1.202 5.853-2.648 11.51-4.357 17zm-5.478 15c-2.426 5.79-5.158 11.44-8.23 17H165.52c-3.09-5.572-5.844-11.223-8.268-17H305.76zm-17.438 32c-3.826 5.678-8.022 11.324-12.58 17h-88.44c-4.538-5.664-8.734-11.315-12.572-17h113.592zm-25.37 32c-9.282 10.307-19.757 20.908-31.474 32.174-11.544-11.1-22.036-21.728-31.413-32.174h62.886zm56.63-128c-.316 5.873-.824 11.528-1.52 17H144.94c-.697-5.488-1.21-11.14-1.526-17h176.17zM119.5 448c-4.687 0-8.5-3.813-8.5-8.5 0-86.342 32.73-135.202 97.21-197.618 2.38 2.245 4.804 4.52 7.3 6.836 1.727 1.604 3.43 3.193 5.117 4.775-60.212 58.013-90.16 101.436-92.465 176.46-.105.5-.162 1.016-.162 1.546 0 .36.034.713.084 1.06-.05 2.287-.084 4.593-.084 6.94 0 4.687-3.813 8.5-8.5 8.5zm32.262-73h159.462c1.717 5.51 3.185 11.16 4.384 17H147.405c1.202-5.853 2.648-11.51 4.357-17zm5.478-15c2.426-5.79 5.158-11.44 8.23-17h132.01c3.09 5.572 5.845 11.223 8.27 17H157.24zm17.438-32c3.826-5.678 8.022-11.324 12.58-17h88.44c4.538 5.664 8.734 11.315 12.572 17H174.678zm25.37-32c9.282-10.307 19.757-20.908 31.474-32.174 11.544 11.1 22.036 21.728 31.413 32.174H200.05zm-56.63 128c.316-5.873.824-11.528 1.52-17H318.06c.697 5.488 1.21 11.14 1.526 17h-176.17zM343.5 448c-4.687 0-8.5-3.813-8.5-8.5 0-2.355-.03-4.676-.078-6.973.046-.337.078-.677.078-1.027 0-.497-.05-.982-.143-1.45-1.132-38.193-9.293-68.595-26.044-97.525-18.33-31.653-46.474-60.79-83.096-94.798-4.19-3.89-8.206-7.67-12.06-11.35l-.048-.056c-.183-.19-.374-.368-.57-.536-36.996-35.386-58.965-61.644-74.223-88.382C119.58 103.692 111 68.564 111 23.5c0-4.687 3.813-8.5 8.5-8.5s8.5 3.813 8.5 8.5c0 2.355.03 4.676.078 6.973-.046.337-.078.678-.078 1.027 0 .497.05.982.143 1.45 1.132 38.193 9.293 68.595 26.044 97.525 18.33 31.653 46.474 60.79 83.096 94.798 4.19 3.89 8.206 7.67 12.06 11.35l.048.056c.186.193.38.374.578.543 36.99 35.382 58.958 61.638 74.215 88.374C343.42 359.307 352 394.437 352 439.5c0 4.687-3.813 8.5-8.5 8.5z"/></svg>