<svg xmlns="http://www.w3.org/2000/svg" viewBox="0 0 463.013 463.013"><path d="M295.007 183.506c0-20.406-13.765-32.116-46.022-48 32.257-15.884 46.022-27.594 46.022-48 0-20.41-13.773-32.122-46.05-48.013C271 28.57 282.248 20.626 288.568 11.91c1.656-2.282 1.89-5.3.61-7.81s-3.862-4.093-6.68-4.093L180.51 0c-2.817 0-5.398 1.58-6.68 4.09-1.28 2.512-1.046 5.53.608 7.81 6.318 8.72 17.57 16.668 39.617 27.593-32.276 15.89-46.05 27.602-46.05 48.013 0 20.406 13.766 32.116 46.023 48-32.257 15.884-46.022 27.594-46.022 48s13.765 32.116 46.022 48c-32.257 15.884-46.022 27.594-46.022 48s13.765 32.116 46.022 48c-32.257 15.884-46.022 27.594-46.022 48 0 20.412 13.773 32.123 46.05 48.013-22.042 10.92-33.29 18.867-39.61 27.58-1.656 2.283-1.89 5.3-.61 7.812s3.862 4.092 6.68 4.092l101.986.008c2.818 0 5.4-1.58 6.68-4.09 1.28-2.512 1.047-5.53-.607-7.81-6.318-8.72-17.57-16.668-39.617-27.594 32.276-15.89 46.05-27.602 46.05-48.013 0-20.406-13.766-32.116-46.023-48 32.257-15.884 46.022-27.594 46.022-48s-13.765-32.116-46.022-48c32.257-15.883 46.022-27.593 46.022-48zm-110.204 200.5c-1.34-2.786-1.796-5.546-1.796-8.5s.456-5.714 1.796-8.5h93.407c1.34 2.786 1.796 5.546 1.796 8.5s-.456 5.714-1.796 8.5h-93.407zm77.558 15c-7.173 4.566-17.134 9.81-30.854 16.228-13.72-6.417-23.68-11.66-30.855-16.228h61.71zm-61.708-47c7.174-4.566 17.135-9.81 30.854-16.228 13.72 6.417 23.68 11.66 30.854 16.228h-61.708zm-15.85-64c-1.34-2.786-1.795-5.546-1.795-8.5s.456-5.714 1.796-8.5h93.407c1.34 2.786 1.796 5.546 1.796 8.5s-.456 5.714-1.796 8.5h-93.407zm77.56 15c-7.175 4.566-17.136 9.81-30.856 16.228-13.72-6.417-23.68-11.66-30.855-16.228h61.71zm-61.71-47c7.174-4.566 17.135-9.81 30.854-16.228 13.72 6.417 23.68 11.66 30.854 16.228h-61.708zm-15.85-64c-1.34-2.786-1.795-5.546-1.795-8.5s.456-5.714 1.796-8.5h93.407c1.34 2.786 1.796 5.546 1.796 8.5s-.456 5.714-1.796 8.5h-93.407zm77.56 15c-7.175 4.566-17.136 9.81-30.856 16.228-13.72-6.417-23.68-11.66-30.855-16.228h61.71zm15.848-128c1.34 2.786 1.796 5.546 1.796 8.5s-.456 5.714-1.796 8.5h-93.407c-1.34-2.786-1.796-5.546-1.796-8.5s.456-5.714 1.796-8.5h93.407zm-77.558-15c7.174-4.566 17.135-9.81 30.854-16.228 13.72 6.417 23.68 11.66 30.854 16.228h-61.708zm61.71 47c-7.175 4.566-17.136 9.81-30.856 16.228-13.72-6.417-23.68-11.66-30.855-16.228h61.71zm-61.71 49c7.174-4.566 17.135-9.81 30.854-16.228 13.72 6.417 23.68 11.66 30.854 16.228h-61.708zm61.754-145c-7.31 4.646-17.355 9.9-30.9 16.23C217.96 24.903 207.914 19.648 200.602 15l61.806.006zm-61.797 433c7.31-4.646 17.353-9.898 30.897-16.23 13.548 6.333 23.594 11.588 30.906 16.236l-61.804-.006z"/></svg>