<svg xmlns="http://www.w3.org/2000/svg" viewBox="0 0 463.002 463.002"><path d="M380.125 121.657C350.807 50.877 271.03 15.97 199.637 41.305l-9.45-22.81v-.004l-.003-.003-5.74-13.854c-1.585-3.827-5.972-5.644-9.798-4.06-3.827 1.586-5.644 5.973-4.06 9.8l2.935 7.084c-40.003 18.562-71.134 50.963-88.114 91.955-17.94 43.31-17.94 91.012 0 134.32s51.67 77.042 94.98 94.98c19.286 7.99 39.444 12.41 59.697 13.284v16.006h-.5c-8.547 0-15.5 6.953-15.5 15.5v32c0 .17.014.334.025.5h-16.525c-12.958 0-23.5 10.542-23.5 23.5v16c0 4.143 3.358 7.5 7.5 7.5h112c4.142 0 7.5-3.357 7.5-7.5v-16c0-12.958-10.542-23.5-23.5-23.5h-16.525c.01-.166.025-.33.025-.5v-32c0-8.547-6.953-15.5-15.5-15.5h-.5v-16.008c17.794-.775 35.512-4.298 52.632-10.566l1.957 4.726c1.196 2.89 3.99 4.632 6.932 4.632.957 0 1.93-.185 2.867-.573 3.828-1.585 5.645-5.972 4.06-9.8l-4.76-11.493-.003-.006-.003-.006-9.448-22.81c68.4-32.568 100.126-113.663 70.81-184.44zm-84.04 317.845v8.5h-97v-8.5c0-4.687 3.812-8.5 8.5-8.5h80c4.686 0 8.5 3.813 8.5 8.5zm-40-56v32c0 .17.013.334.024.5h-17.05c.01-.166.024-.33.024-.5v-32c0-.275.224-.5.5-.5h16c.276 0 .5.224.5.5zM128.83 225.747c-21.783-52.59-5.925-111.533 35.09-146.742L152.813 99.37c-4.176 7.654-4.657 16.665-1.32 24.72l2.78 6.71c.857 2.07 2.597 3.65 4.742 4.304 2.145.655 4.47.314 6.337-.928l9.935-6.602-12.837 21.828c-1.193 2.027-1.365 4.498-.464 6.672l3.122 7.537-2.402 1.31c-8.458 4.603-11.828 15.016-7.672 23.702l3.06 6.396c2.89 6.04 8.805 9.904 15.32 10.26-2.17 5.597-2.152 11.993.447 17.893l1.7 3.864-1.403 16.32c-1.397 16.232 6.163 31.923 19.73 40.947l5.757 3.83c9.472 6.3 21.782 6.406 31.36.276l27.71-17.736 8.938 4.867c8.506 4.632 18.118 6.96 27.8 6.702l.506-.014 4.7 11.348c-1.3.59-2.608 1.166-3.936 1.716-65.46 27.115-140.777-4.082-167.892-69.543zm69.543-167.895c2.787-1.155 5.594-2.197 8.412-3.14l-1.457 6.6-11.438-1.492c1.478-.678 2.968-1.34 4.483-1.968zm176.113 127.372c-2.052-.93-4.413-.886-6.43.117l-5.265 2.618c1.936-2.12 4.003-4.46 6.087-6.948 2.658-3.173 5.008-6.19 7.087-9.07.164 4.68.07 9.347-.277 13.98-.377-.264-.775-.503-1.2-.696zm-8.22-57.827c.03.074.058.148.09.222l-13.158 7.995c-2.46.923-5.493.842-7.073-1.398l-3.36-4.762 20.848-7.99c.923 1.95 1.82 3.92 2.653 5.932zm-9.933-19.204L328.397 118.9c-2.16.826-3.818 2.605-4.49 4.82s-.288 4.614 1.045 6.505l8.916 12.64c3.793 5.377 9.918 8.3 16.468 8.3 3.047 0 6.187-.632 9.226-1.946.317-.138.624-.297.918-.476l10.87-6.607c.368 1.316.72 2.633 1.043 3.953-.89 9.216-15.942 27.516-27.837 39.273l-35.798-30.146c-3.168-2.67-7.9-2.264-10.568.905-2.668 3.168-2.263 7.9.906 10.567l37.633 31.69c8.325 7.014 19.844 8.685 29.766 4.435l3.175 11.945c.07.262.175.503.27.75-9.257 29.02-28.694 54.62-55.945 71.058l-6.148-14.842c-1.188-2.868-4.04-4.71-7.12-4.627l-5.656.143c-7.045.185-14.05-1.508-20.244-4.88l-12.833-6.99c-2.403-1.308-5.327-1.203-7.63.27l-31.446 20.13c-4.572 2.924-10.446 2.873-14.965-.133l-5.758-3.83c-9.002-5.988-14.02-16.4-13.092-27.173l1.57-18.23c.107-1.254-.102-2.515-.61-3.666l-2.475-5.618c-1.683-3.82-.35-8.22 3.17-10.464L218.93 188.7c4.122-2.625 9.03-3.558 13.832-2.626l22.36 4.346c2.267.443 4.607-.187 6.35-1.7l24.772-21.524c.78-.678 1.413-1.51 1.856-2.444l2.603-5.48c2.653-5.59 2.804-12.066.413-17.772s-7.114-10.14-12.958-12.168c-2.45-.85-5.165-.373-7.18 1.26l-18.887 15.306-18.14-6.593c-4.72-1.716-9.856-.58-13.41 2.966-2.426 2.42-3.733 5.583-3.775 8.85l-2.146-.742c-.52-.18-1.056-.3-1.6-.363-10.08-1.137-19.688 4.273-23.916 13.492l-4.4 9.6c-.34.737-.556 1.526-.642 2.334l-1.473 13.892-7.797.953c-1.325.163-2.594-.537-3.168-1.737l-3.06-6.396c-.71-1.486-.135-3.268 1.313-4.056l8.326-4.533c3.368-1.834 4.81-5.914 3.343-9.457l-4.273-10.316 11.485-19.53c1.61-2.742 2.633-5.73 3.037-8.882l1.665-12.984c.374-2.913-.987-5.775-3.48-7.325-2.494-1.55-5.663-1.503-8.11.124l-17.12 11.377c-.88-3.354-.457-6.916 1.23-10.013l17.952-32.905 21.49 2.806c3.435.445 6.832-.485 9.56-2.626 2.598-2.04 4.273-4.933 4.753-8.183l3.096-14.03c.088-.397.133-.793.156-1.186 8.126-1.585 16.29-2.36 24.394-2.36 43.52-.004 85.18 22.265 108.95 60.12zM198.225 184.11l.622-5.87 3.89-8.482c1.42-3.096 4.545-5.014 7.887-4.892l17.034 5.884c-5.917.25-11.69 2.053-16.79 5.303l-12.643 8.057zm38.972-23.952l-2.65-4.678 16.407 5.963c2.473.898 5.24.435 7.284-1.222l18.033-14.613c.41.502.75 1.068 1.01 1.688.756 1.805.71 3.772-.13 5.54l-1.93 4.065-20.828 18.097-18.77-3.648c-.843-.164-1.686-.296-2.53-.396 1.277-.436 2.442-1.217 3.345-2.302 1.996-2.397 2.3-5.78.76-8.494zm-51.07 164.696c-39.607-16.406-70.456-47.254-86.862-86.862-16.406-39.607-16.406-83.233 0-122.84 15.446-37.29 43.695-66.81 80-83.83l6.513 15.723C117.38 79.613 85.654 160.708 114.97 231.487c22.87 55.206 76.424 88.59 132.765 88.586 15.892 0 32.013-2.662 47.723-8.237l6.514 15.725c-37.706 13.638-78.555 12.74-115.845-2.706z"/><path d="M153.37 155.175l-5.24-16.297c-1.27-3.945-5.496-6.116-9.436-4.844-3.943 1.268-6.112 5.492-4.843 9.436l5.242 16.297c1.022 3.18 3.968 5.206 7.138 5.206.76 0 1.535-.116 2.298-.362 3.943-1.267 6.112-5.492 4.843-9.435zM253.926 129.12c.957 0 1.93-.186 2.867-.574l5.274-2.185c3.827-1.584 5.644-5.97 4.06-9.798s-5.974-5.642-9.8-4.06l-5.274 2.186c-3.827 1.585-5.644 5.972-4.06 9.8 1.198 2.888 3.99 4.63 6.933 4.63zM273.61 102.612l22.78 7.556c.784.26 1.58.383 2.362.383 3.145 0 6.074-1.992 7.118-5.14 1.304-3.932-.826-8.176-4.758-9.48l-22.78-7.556c-3.933-1.303-8.177.827-9.48 4.758-1.305 3.93.825 8.175 4.757 9.48z"/></svg>