<svg xmlns="http://www.w3.org/2000/svg" viewBox="0 0 462.992 462.992"><path d="M231.492 127.992c-57.07 0-103.5 46.43-103.5 103.5s46.43 103.5 103.5 103.5 103.5-46.43 103.5-103.5-46.43-103.5-103.5-103.5zm0 192c-48.8 0-88.5-39.7-88.5-88.5s39.7-88.5 88.5-88.5 88.5 39.7 88.5 88.5-39.7 88.5-88.5 88.5z"/><path d="M279.492 223.992h-40.5v-40.5c0-4.142-3.357-7.5-7.5-7.5s-7.5 3.358-7.5 7.5v40.5h-40.5c-4.143 0-7.5 3.358-7.5 7.5s3.357 7.5 7.5 7.5h40.5v40.5c0 4.142 3.357 7.5 7.5 7.5s7.5-3.358 7.5-7.5v-40.5h40.5c4.143 0 7.5-3.358 7.5-7.5s-3.358-7.5-7.5-7.5zM87.492 63.992h-32c-4.143 0-7.5 3.358-7.5 7.5s3.357 7.5 7.5 7.5h32c4.143 0 7.5-3.358 7.5-7.5s-3.358-7.5-7.5-7.5z"/><path d="M120.57 45.618c4.804-2.874 9.72-5.58 14.7-8.06 3.71-1.846 5.22-6.348 3.373-10.056-1.845-3.708-6.347-5.218-10.056-3.373-5.698 2.835-11.327 5.938-16.803 9.254-10.123-10.698-24.437-17.392-40.292-17.392-30.603 0-55.5 24.897-55.5 55.5 0 15.856 6.694 30.17 17.392 40.292-3.375 5.574-6.53 11.306-9.408 17.11-1.84 3.71-.324 8.21 3.386 10.05 1.07.532 2.208.784 3.327.784 2.76 0 5.414-1.53 6.724-4.17 2.52-5.077 5.273-10.093 8.202-14.99 7.732 4.095 16.536 6.424 25.876 6.424 30.603 0 55.5-24.897 55.5-55.5 0-9.34-2.33-18.143-6.422-25.874zm-49.078 66.374c-22.332 0-40.5-18.168-40.5-40.5s18.168-40.5 40.5-40.5c13.208 0 24.957 6.357 32.355 16.17.023.037.04.076.065.113.18.28.376.542.586.79 4.712 6.62 7.495 14.7 7.495 23.427 0 22.332-18.17 40.5-40.5 40.5zM7.502 237.076c4.113 0 7.465-3.317 7.5-7.438.135-16.315 2.104-32.57 5.853-48.317.96-4.028-1.53-8.073-5.56-9.032-4.038-.96-8.073 1.53-9.032 5.56C2.253 194.687.147 212.07 0 229.512c-.033 4.142 3.297 7.528 7.44 7.562H7.5zM20.007 278.046c-.886-4.046-4.88-6.61-8.932-5.72-4.046.885-6.607 4.884-5.72 8.93 3.718 16.975 9.38 33.55 16.826 49.262 1.283 2.706 3.976 4.29 6.783 4.29 1.076 0 2.17-.233 3.207-.725 3.743-1.774 5.34-6.246 3.565-9.99-6.96-14.688-12.252-30.18-15.728-46.047zM95.62 400.058c-12.645-10.206-24.16-21.85-34.222-34.61-2.563-3.25-7.28-3.81-10.533-1.244-3.252 2.565-3.81 7.28-1.244 10.534 10.757 13.638 23.064 26.084 36.58 36.993 1.387 1.12 3.052 1.665 4.705 1.665 2.19 0 4.36-.954 5.84-2.79 2.602-3.223 2.098-7.945-1.125-10.547zM278.093 20.02c15.86 3.478 31.348 8.77 46.032 15.733 1.037.492 2.13.725 3.208.725 2.807 0 5.5-1.583 6.782-4.29 1.774-3.742.18-8.214-3.564-9.99-15.708-7.447-32.276-13.11-49.244-16.83-4.045-.89-8.045 1.672-8.933 5.718-.886 4.046 1.674 8.045 5.72 8.933zM462.99 230.85c-.02-4.13-3.373-7.464-7.498-7.464h-.037c-4.143.02-7.483 3.394-7.464 7.536l.002.57c0 16.128-1.78 32.208-5.29 47.79-.91 4.04 1.627 8.055 5.668 8.965.555.125 1.11.185 1.655.185 3.43 0 6.524-2.367 7.31-5.853 3.754-16.664 5.657-33.852 5.657-51.087v-.643zM179.623 21.05c.574 0 1.158-.066 1.74-.205C197.11 17.1 213.37 15.135 229.686 15c4.142-.034 7.473-3.42 7.438-7.56C237.09 3.316 233.74 0 229.625 0h-.063c-17.443.143-34.827 2.246-51.67 6.25-4.028.96-6.52 5.003-5.56 9.033.82 3.447 3.896 5.767 7.29 5.767zM366.403 400.828c-12.722 10.15-26.587 18.862-41.21 25.894-3.732 1.795-5.303 6.277-3.508 10.01 1.29 2.685 3.972 4.25 6.764 4.25 1.09 0 2.196-.238 3.244-.742 15.637-7.52 30.462-16.834 44.064-27.687 3.237-2.583 3.77-7.302 1.185-10.54-2.582-3.237-7.3-3.77-10.54-1.185zM405.907 98.42c1.653 0 3.318-.543 4.705-1.663 3.224-2.6 3.728-7.323 1.127-10.546-10.908-13.515-23.355-25.823-36.992-36.58-3.254-2.567-7.97-2.01-10.533 1.243-2.565 3.252-2.01 7.968 1.244 10.534 12.758 10.064 24.4 21.58 34.605 34.224 1.482 1.837 3.652 2.79 5.842 2.79zM279.235 442.712c-15.57 3.503-31.633 5.28-47.743 5.28h-.656c-4.135 0-7.49 3.346-7.5 7.482-.01 4.142 3.34 7.507 7.483 7.517l.67.002c17.217 0 34.39-1.9 51.037-5.646 4.04-.91 6.58-4.922 5.67-8.963-.907-4.04-4.913-6.58-8.962-5.67zM182.515 442.432c-15.818-3.658-31.245-9.127-45.852-16.255-3.723-1.816-8.213-.27-10.03 3.45-1.815 3.724-.27 8.214 3.452 10.03 15.624 7.626 32.128 13.477 49.05 17.39.57.13 1.138.194 1.697.194 3.412 0 6.5-2.344 7.3-5.81.934-4.037-1.58-8.065-5.617-8.998zM436.716 321.717c-3.73-1.795-8.214-.226-10.01 3.508-7.03 14.614-15.74 28.472-25.886 41.188-2.584 3.238-2.053 7.957 1.185 10.54 1.382 1.103 3.033 1.638 4.673 1.638 2.203 0 4.387-.966 5.867-2.822 10.85-13.596 20.16-28.414 27.68-44.042 1.795-3.73.225-8.213-3.51-10.01zM449.742 188.375c.56 0 1.127-.063 1.695-.194 4.035-.932 6.552-4.96 5.62-8.995-3.912-16.93-9.76-33.438-17.386-49.068-1.813-3.722-6.304-5.268-10.027-3.452-3.723 1.816-5.27 6.306-3.452 10.03 7.128 14.61 12.596 30.04 16.25 45.866.802 3.47 3.89 5.815 7.302 5.815z"/></svg>