<svg xmlns="http://www.w3.org/2000/svg" viewBox="0 0 461.35 461.35"><path d="M269.116 275.743c6.28-10.533 10.955-21.782 13.952-33.568H295.5c12.958 0 23.5-10.542 23.5-23.5v-16c0-12.958-10.542-23.5-23.5-23.5h-12.432c-2.997-11.786-7.672-23.035-13.952-33.568l8.825-8.825c9.163-9.162 9.163-24.07 0-33.234l-11.313-11.313c-4.438-4.438-10.34-6.883-16.617-6.883s-12.18 2.445-16.617 6.883l-8.824 8.825c-10.534-6.28-21.783-10.956-33.57-13.952V74.675c0-12.958-10.54-23.5-23.5-23.5h-16c-12.957 0-23.5 10.542-23.5 23.5v12.432c-11.785 2.997-23.034 7.672-33.566 13.952l-8.825-8.826c-4.44-4.438-10.34-6.883-16.618-6.883s-12.18 2.446-16.617 6.884L41.06 103.548c-9.162 9.163-9.162 24.072 0 33.234l8.825 8.825c-6.28 10.533-10.955 21.782-13.952 33.568H23.5c-12.958 0-23.5 10.542-23.5 23.5v16c0 12.958 10.542 23.5 23.5 23.5h12.433c2.997 11.786 7.672 23.035 13.952 33.568l-8.825 8.825c-9.162 9.163-9.162 24.07 0 33.234l11.313 11.314c9.164 9.163 24.07 9.162 33.235 0l8.824-8.824c10.532 6.28 21.78 10.955 33.567 13.952v12.432c0 12.958 10.54 23.5 23.5 23.5h16c12.957 0 23.5-10.542 23.5-23.5v-12.432c11.785-2.997 23.034-7.672 33.567-13.952l8.824 8.825c9.164 9.163 24.073 9.164 33.234 0l11.315-11.314c9.16-9.163 9.16-24.07 0-33.234l-8.824-8.827zm-1.78 31.452L256.02 318.51c-3.313 3.312-8.707 3.312-12.02 0l-13.054-13.055c-2.523-2.52-6.47-2.92-9.444-.95-12.128 8.03-25.415 13.552-39.494 16.41-3.495.71-6.008 3.783-6.008 7.35v18.41c0 4.687-3.813 8.5-8.5 8.5h-16c-4.687 0-8.5-3.813-8.5-8.5v-18.41c0-3.567-2.513-6.64-6.008-7.35-14.08-2.858-27.366-8.38-39.493-16.41-1.266-.838-2.706-1.247-4.14-1.247-1.936 0-3.856.748-5.306 2.197L75 318.508c-3.315 3.314-8.708 3.314-12.02 0l-11.313-11.314c-3.314-3.314-3.314-8.707 0-12.02l13.054-13.055c2.522-2.523 2.92-6.472.95-9.445-8.03-12.127-13.552-25.415-16.41-39.493-.71-3.496-3.782-6.008-7.35-6.008H23.5c-4.687 0-8.5-3.813-8.5-8.5v-16c0-4.687 3.813-8.5 8.5-8.5h18.41c3.567 0 6.64-2.512 7.35-6.008 2.858-14.08 8.38-27.366 16.41-39.494 1.97-2.973 1.572-6.922-.95-9.444l-13.053-13.054c-3.314-3.314-3.314-8.707 0-12.02L62.98 102.84c1.605-1.605 3.74-2.49 6.01-2.49s4.405.884 6.01 2.49l13.055 13.054c2.522 2.52 6.473 2.92 9.444.95 12.126-8.03 25.413-13.55 39.492-16.41 3.495-.71 6.008-3.783 6.008-7.35v-18.41c0-4.687 3.813-8.5 8.5-8.5h16c4.687 0 8.5 3.813 8.5 8.5v18.41c0 3.567 2.513 6.64 6.008 7.35 14.08 2.858 27.366 8.38 39.494 16.41 2.974 1.97 6.923 1.57 9.444-.95L244 102.84c1.605-1.604 3.74-2.49 6.01-2.49s4.404.885 6.01 2.49l11.314 11.314c3.314 3.314 3.314 8.707 0 12.02L254.28 139.23c-2.52 2.52-2.92 6.47-.95 9.443 8.03 12.128 13.553 25.416 16.41 39.494.71 3.496 3.783 6.008 7.35 6.008h18.41c4.687 0 8.5 3.813 8.5 8.5v16c0 4.687-3.813 8.5-8.5 8.5h-18.41c-3.566 0-6.64 2.512-7.35 6.008-2.857 14.08-8.38 27.366-16.41 39.493-1.97 2.974-1.57 6.922.95 9.444l13.054 13.054c3.314 3.314 3.314 8.707 0 12.02z"/><path d="M181.423 133.194c5.05 1.426 9.985 3.363 14.667 5.756 1.093.56 2.26.824 3.408.824 2.727 0 5.357-1.493 6.684-4.087 1.886-3.688.425-8.207-3.264-10.092-5.56-2.842-11.42-5.143-17.42-6.836-3.986-1.126-8.128 1.192-9.255 5.18-1.126 3.984 1.194 8.128 5.18 9.254zM71.596 202.054c.458.084.913.125 1.363.125 3.548 0 6.703-2.532 7.367-6.147 1.2-6.53 3.213-12.898 5.984-18.932 1.73-3.763.082-8.216-3.682-9.945-3.763-1.73-8.218-.08-9.946 3.683-3.293 7.166-5.685 14.73-7.11 22.485-.747 4.074 1.95 7.983 6.024 8.73zM144.85 289.846c-32.604-5.99-58.533-31.922-64.52-64.526-.75-4.074-4.665-6.77-8.732-6.02-4.074.747-6.77 4.656-6.022 8.73 7.106 38.69 37.875 69.46 76.564 76.57.458.083.914.124 1.364.124 3.55 0 6.703-2.53 7.368-6.146.747-4.074-1.948-7.983-6.022-8.732zM228.937 145.11c-2.846-3.013-7.593-3.148-10.603-.303-3.01 2.844-3.146 7.59-.302 10.602C232.198 170.406 240 190.033 240 210.674c0 7.462-1.02 14.85-3.03 21.96-1.126 3.987 1.19 8.132 5.178 9.26.682.192 1.368.284 2.044.284 3.27 0 6.28-2.16 7.213-5.462 2.386-8.438 3.596-17.2 3.596-26.042 0-24.488-9.256-47.773-26.063-65.567zM449.604 330.323l-3.912-2.258c.87-4.474 1.308-8.958 1.308-13.39s-.438-8.917-1.308-13.39l3.912-2.258c11.222-6.48 15.08-20.88 8.602-32.102-6.48-11.222-20.88-15.082-32.102-8.6l-3.898 2.25c-6.81-5.87-14.683-10.406-23.206-13.365v-4.535c0-12.958-10.542-23.5-23.5-23.5s-23.5 10.542-23.5 23.5v4.535c-8.523 2.96-16.397 7.494-23.206 13.364l-3.897-2.25c-5.436-3.14-11.77-3.973-17.832-2.348-6.063 1.625-11.132 5.513-14.27 10.95-6.48 11.22-2.62 25.62 8.602 32.1l3.91 2.26c-.868 4.475-1.307 8.958-1.307 13.39s.438 8.914 1.308 13.39l-3.91 2.257c-11.223 6.48-15.08 20.88-8.603 32.102 6.48 11.223 20.88 15.08 32.102 8.602l3.897-2.25c6.81 5.87 14.683 10.404 23.206 13.364v4.536c0 12.958 10.542 23.5 23.5 23.5s23.5-10.542 23.5-23.5v-4.535c8.523-2.958 16.397-7.493 23.206-13.363l3.898 2.25c11.22 6.478 25.622 2.62 32.102-8.602 6.48-11.223 2.62-25.623-8.602-32.102zm-4.388 24.6c-2.345 4.06-7.554 5.454-11.61 3.113l-8.712-5.03c-2.96-1.71-6.705-1.198-9.1 1.24-7.16 7.29-16.21 12.5-26.167 15.07-3.313.853-5.627 3.84-5.627 7.26v10.1c0 4.686-3.813 8.5-8.5 8.5s-8.5-3.814-8.5-8.5v-10.1c0-3.42-2.314-6.407-5.627-7.26-9.958-2.57-19.006-7.78-26.166-15.07-1.45-1.474-3.39-2.244-5.354-2.244-1.283 0-2.576.33-3.747 1.005l-8.71 5.03c-4.06 2.344-9.27.945-11.61-3.112-2.344-4.06-.948-9.27 3.11-11.612l8.734-5.043c2.96-1.71 4.39-5.203 3.478-8.497-1.398-5.052-2.108-10.132-2.108-15.1s.71-10.045 2.108-15.098c.913-3.294-.518-6.788-3.478-8.497l-8.734-5.043c-4.06-2.344-5.454-7.553-3.11-11.612 1.135-1.966 2.967-3.373 5.16-3.96 2.192-.588 4.483-.287 6.45.85l8.71 5.028c2.963 1.712 6.705 1.2 9.1-1.24 7.16-7.29 16.21-12.5 26.167-15.067 3.313-.854 5.627-3.84 5.627-7.262v-10.097c0-4.687 3.813-8.5 8.5-8.5s8.5 3.813 8.5 8.5v10.098c0 3.422 2.314 6.41 5.627 7.263 9.958 2.568 19.006 7.778 26.166 15.068 2.396 2.44 6.14 2.952 9.1 1.24l8.712-5.028c4.058-2.343 9.267-.948 11.61 3.11 2.344 4.06.948 9.27-3.11 11.612l-8.735 5.043c-2.96 1.71-4.39 5.204-3.478 8.498 1.4 5.048 2.108 10.128 2.108 15.098s-.71 10.05-2.108 15.098c-.913 3.295.518 6.79 3.478 8.5l8.735 5.042c4.058 2.345 5.454 7.554 3.11 11.612z"/><path d="M375.5 283.175c-17.37 0-31.5 14.13-31.5 31.5s14.13 31.5 31.5 31.5 31.5-14.13 31.5-31.5-14.13-31.5-31.5-31.5zm0 48c-9.098 0-16.5-7.402-16.5-16.5s7.402-16.5 16.5-16.5 16.5 7.402 16.5 16.5-7.402 16.5-16.5 16.5zM159.5 147.175c-35.014 0-63.5 28.486-63.5 63.5s28.486 63.5 63.5 63.5 63.5-28.486 63.5-63.5-28.486-63.5-63.5-63.5zm0 112c-26.743 0-48.5-21.757-48.5-48.5s21.757-48.5 48.5-48.5 48.5 21.757 48.5 48.5-21.757 48.5-48.5 48.5z"/></svg>