<svg xmlns="http://www.w3.org/2000/svg" viewBox="0 0 463 463"><path d="M395.195 67.805C351.47 24.08 293.335 0 231.5 0S111.53 24.08 67.805 67.805 0 169.665 0 231.5s24.08 119.97 67.805 163.695S169.665 463 231.5 463s119.97-24.08 163.695-67.805S463 293.335 463 231.5s-24.08-119.97-67.805-163.695zM384.59 384.59C343.696 425.48 289.33 448 231.5 448s-112.197-22.52-153.09-63.41C37.52 343.696 15 289.33 15 231.5S37.52 119.303 78.41 78.41C119.304 37.52 173.67 15 231.5 15s112.197 22.52 153.09 63.41C425.48 119.304 448 173.67 448 231.5s-22.52 112.197-63.41 153.09z"/><path d="M231.5 32C121.495 32 32 121.495 32 231.5S121.495 431 231.5 431 431 341.505 431 231.5 341.505 32 231.5 32zm0 384C129.766 416 47 333.234 47 231.5S129.766 47 231.5 47 416 129.766 416 231.5 333.234 416 231.5 416z"/><path d="M136.604 294.403c-1.38-1.382-2.903-2.57-4.535-3.553 1.865-3.367 2.93-7.236 2.93-11.35v-48c0-4.353-1.194-8.43-3.265-11.93 1.573-.963 3.045-2.116 4.38-3.454l32-32c1.35-1.35 2.477-2.834 3.428-4.396 3.506 2.08 7.593 3.28 11.957 3.28h48c12.958 0 23.5-10.542 23.5-23.5 0-.172-.01-.342-.013-.512.17.004.34.012.513.012 6.28 0 12.183-2.446 16.616-6.884l32-32c9.162-9.162 9.162-24.07.003-33.228C299.682 82.446 293.78 80 287.5 80s-12.183 2.446-16.616 6.884l-32 32c-4.712 4.712-6.98 10.942-6.848 17.13-.178-.004-.356-.014-.536-.014h-48c-8.475 0-15.916 4.51-20.05 11.257-3.58-2.123-7.676-3.257-11.95-3.257-6.28 0-12.183 2.446-16.616 6.884l-32 32c-7.73 7.73-8.912 19.54-3.598 28.547C92.524 215.563 88 223.013 88 231.5v48c0 8.55 4.59 16.044 11.434 20.156-4.93 8.93-3.63 20.41 3.935 27.975l32.48 32.482c4.436 4.442 10.338 6.888 16.62 6.888 6.28 0 12.182-2.446 16.615-6.884 9.162-9.162 9.162-24.07 0-33.23l-32.48-32.483zM103 231.5c0-4.687 3.813-8.5 8.5-8.5s8.5 3.813 8.5 8.5v48c0 4.687-3.813 8.5-8.5 8.5s-8.5-3.813-8.5-8.5v-48zm146.49-102.01l32.004-32.002C283.096 95.883 285.23 95 287.5 95s4.404.883 6.01 2.49c1.605 1.607 2.49 3.74 2.49 6.01s-.885 4.403-2.49 6.01l-32.004 32.002c-1.602 1.604-3.735 2.487-6.006 2.487s-4.404-.884-6.01-2.492c-3.313-3.312-3.313-8.704 0-12.017zM183.5 151h48c4.687 0 8.5 3.813 8.5 8.5s-3.813 8.5-8.5 8.5h-48c-4.687 0-8.5-3.813-8.5-8.5s3.813-8.5 8.5-8.5zm-70.01 42.49l32.004-32.002c1.602-1.604 3.735-2.487 6.006-2.487s4.404.884 6.01 2.492c1.605 1.606 2.49 3.74 2.49 6.01s-.885 4.402-2.49 6.008l-32.004 32.003c-1.602 1.604-3.735 2.487-6.006 2.487s-4.404-.883-6.01-2.49c-3.313-3.314-3.313-8.706 0-12.02zm44.985 156.023c-1.602 1.604-3.735 2.487-6.006 2.487s-4.405-.883-6.01-2.49l-32.484-32.485c-3.313-3.313-3.313-8.705.003-12.022 1.6-1.604 3.734-2.487 6.005-2.487s4.404.883 6.01 2.49l32.483 32.485c3.314 3.314 3.314 8.706-.003 12.023z"/><path d="M376.116 254.884l-31.997-31.997c-4.437-4.44-10.34-6.887-16.62-6.887-4.274 0-8.37 1.135-11.95 3.257C311.415 212.51 303.975 208 295.5 208h-48c-8.475 0-15.916 4.51-20.05 11.257-3.58-2.123-7.676-3.257-11.95-3.257-6.28 0-12.183 2.446-16.616 6.884l-32 32c-9.162 9.162-9.162 24.07-.003 33.228 4.437 4.442 10.34 6.888 16.62 6.888s12.183-2.446 16.616-6.884l32-32c1.35-1.35 2.476-2.834 3.427-4.396 3.506 2.08 7.593 3.28 11.957 3.28h48c4.364 0 8.45-1.2 11.957-3.28.952 1.56 2.078 3.046 3.427 4.395l27.728 27.728c-1.328.875-2.58 1.89-3.728 3.04l-32 32c-9.162 9.162-9.162 24.07-.003 33.228 4.437 4.443 10.34 6.89 16.62 6.89s12.183-2.447 16.616-6.885l32-32c7.728-7.728 8.91-19.53 3.605-28.536 1.58-.966 3.056-2.123 4.396-3.465 9.162-9.16 9.162-24.07 0-33.23zM221.51 245.51l-32.004 32.002c-1.602 1.604-3.735 2.487-6.006 2.487s-4.404-.884-6.01-2.492c-3.312-3.313-3.312-8.705 0-12.02l32.004-32.002c1.602-1.604 3.735-2.487 6.006-2.487s4.404.882 6.01 2.49c1.605 1.606 2.49 3.74 2.49 6.01s-.885 4.403-2.49 6.01zM295.5 240h-48c-4.687 0-8.5-3.813-8.5-8.5s3.813-8.5 8.5-8.5h48c4.687 0 8.5 3.813 8.5 8.5s-3.813 8.5-8.5 8.5zm23.5-.5c0-2.27.885-4.403 2.494-6.013 1.602-1.604 3.735-2.487 6.006-2.487s4.404.883 6.01 2.49l32 32c3.312 3.314 3.312 8.706-.004 12.023-1.602 1.604-3.735 2.487-6.006 2.487s-4.404-.883-6.01-2.49l-32-32c-1.605-1.607-2.49-3.74-2.49-6.01zm38.51 70.01l-32.004 32.002c-1.602 1.604-3.735 2.487-6.006 2.487s-4.404-.884-6.01-2.492c-3.312-3.313-3.312-8.705 0-12.02l32.004-32.002c1.602-1.604 3.735-2.487 6.006-2.487s4.404.882 6.01 2.49c1.605 1.606 2.49 3.74 2.49 6.01s-.885 4.403-2.49 6.01zM327.52 175c4.142 0 7.5-3.358 7.5-7.5s-3.358-7.5-7.5-7.5h-.01c-4.142 0-7.495 3.358-7.495 7.5s3.363 7.5 7.505 7.5zM215.52 87c4.142 0 7.5-3.358 7.5-7.5s-3.358-7.5-7.5-7.5h-.01c-4.142 0-7.495 3.358-7.495 7.5s3.363 7.5 7.505 7.5zM167.52 119c4.142 0 7.5-3.358 7.5-7.5s-3.358-7.5-7.5-7.5h-.01c-4.142 0-7.495 3.358-7.495 7.5s3.363 7.5 7.505 7.5zM367.52 207c4.142 0 7.5-3.358 7.5-7.5s-3.358-7.5-7.5-7.5h-.01c-4.142 0-7.495 3.358-7.495 7.5s3.363 7.5 7.505 7.5zM343.52 143c4.142 0 7.5-3.358 7.5-7.5s-3.358-7.5-7.5-7.5h-.01c-4.142 0-7.495 3.358-7.495 7.5s3.363 7.5 7.505 7.5z"/><path d="M271.52 288h-.01c-4.142 0-7.495 3.358-7.495 7.5s3.363 7.5 7.505 7.5 7.5-3.358 7.5-7.5-3.358-7.5-7.5-7.5zM223.52 296h-.01c-4.142 0-7.495 3.358-7.495 7.5s3.363 7.5 7.505 7.5 7.5-3.358 7.5-7.5-3.358-7.5-7.5-7.5zM247.52 344h-.01c-4.142 0-7.495 3.358-7.495 7.5s3.363 7.5 7.505 7.5 7.5-3.358 7.5-7.5-3.358-7.5-7.5-7.5zM207.52 360h-.01c-4.142 0-7.495 3.358-7.495 7.5s3.363 7.5 7.505 7.5 7.5-3.358 7.5-7.5-3.358-7.5-7.5-7.5z"/></svg>