<svg xmlns="http://www.w3.org/2000/svg" viewBox="0 0 463 463"><path d="M446.744 120.138l-17.94-17.942c-2.93-2.928-7.68-2.928-10.607 0-2.93 2.93-2.93 7.678 0 10.607l17.94 17.94c7.65 7.65 11.863 17.82 11.863 28.638v92.12c0 4.687-3.813 8.5-8.5 8.5h-4.262c-4.16-7.706-11.487-13.58-20.548-15.798C392.456 238.76 368.504 236 343.5 236s-48.956 2.76-71.19 8.202c-11.152 2.73-19.682 10.995-22.906 21.4-5.09-3.528-11.257-5.602-17.904-5.602s-12.815 2.075-17.903 5.603c-3.225-10.406-11.754-18.67-22.906-21.4C168.457 238.76 144.505 236 119.5 236s-48.956 2.76-71.19 8.202c-9.06 2.218-16.387 8.092-20.548 15.798H23.5c-4.687 0-8.5-3.813-8.5-8.5v-92.118c0-10.818 4.213-20.988 11.862-28.637l17.94-17.94c2.93-2.93 2.93-7.68 0-10.608-2.928-2.928-7.677-2.928-10.605 0l-17.94 17.94C5.772 130.62 0 144.558 0 159.383V283.5C0 296.458 10.542 307 23.5 307h.5v17.108c0 14.565 9.997 27.186 24.31 30.69C70.544 360.24 94.496 363 119.5 363s48.956-2.76 71.19-8.202c14.313-3.504 24.31-16.124 24.31-30.69V291.5c0-9.098 7.402-16.5 16.5-16.5s16.5 7.402 16.5 16.5v32.608c0 14.565 9.997 27.186 24.31 30.69C294.544 360.24 318.496 363 343.5 363s48.956-2.76 71.19-8.202c14.313-3.504 24.31-16.124 24.31-30.69V307h.5c12.958 0 23.5-10.542 23.5-23.5V159.382c0-14.826-5.773-28.763-16.256-39.244zM23.5 292c-4.687 0-8.5-3.813-8.5-8.5v-10.097c2.638 1.027 5.503 1.597 8.5 1.597h.5v17h-.5zM200 324.108c0 7.635-5.295 14.264-12.876 16.12-21.068 5.157-43.82 7.772-67.624 7.772s-46.556-2.615-67.624-7.772C44.296 338.372 39 331.743 39 324.108V274.89c0-7.634 5.295-14.263 12.876-16.118C72.944 253.615 95.696 251 119.5 251s46.556 2.615 67.624 7.772c7.58 1.855 12.876 8.484 12.876 16.12v49.216zm224 0c0 7.635-5.295 14.264-12.876 16.12-21.068 5.157-43.82 7.772-67.624 7.772s-46.556-2.615-67.624-7.772c-7.58-1.855-12.876-8.484-12.876-16.12v-49.216c0-7.635 5.295-14.264 12.876-16.12 21.068-5.156 43.82-7.77 67.624-7.77s46.556 2.614 67.624 7.77c7.58 1.856 12.876 8.485 12.876 16.12v49.216zM439.5 292h-.5v-17h.5c2.997 0 5.862-.57 8.5-1.597V283.5c0 4.686-3.813 8.5-8.5 8.5z"/><path d="M127.29 315.89c-2.602.072-5.223.11-7.79.11-18.734 0-37.55-1.926-54.417-5.567-4.052-.876-8.04 1.7-8.914 5.748s1.698 8.04 5.747 8.915C79.807 328.958 99.72 331 119.5 331c2.706 0 5.467-.04 8.208-.115 4.14-.115 7.404-3.565 7.288-7.706-.115-4.142-3.602-7.423-7.705-7.29zM173.917 310.433c-4.996 1.08-10.21 2.018-15.502 2.79-4.1.598-6.936 4.405-6.338 8.504.545 3.73 3.75 6.418 7.412 6.418.36 0 .725-.026 1.092-.08 5.624-.82 11.176-1.82 16.5-2.97 4.05-.874 6.623-4.865 5.75-8.914-.875-4.047-4.866-6.622-8.915-5.747zM351.29 315.89c-2.602.072-5.223.11-7.79.11-18.734 0-37.55-1.926-54.417-5.567-4.052-.876-8.04 1.7-8.914 5.748s1.698 8.04 5.747 8.915C303.807 328.957 323.72 331 343.5 331c2.706 0 5.467-.04 8.208-.116 4.14-.115 7.404-3.565 7.288-7.706-.115-4.14-3.595-7.42-7.705-7.288zM397.917 310.433c-4.996 1.08-10.21 2.018-15.502 2.79-4.1.598-6.936 4.405-6.338 8.504.545 3.73 3.75 6.418 7.412 6.418.36 0 .725-.026 1.092-.08 5.624-.82 11.176-1.82 16.5-2.97 4.05-.874 6.623-4.865 5.75-8.914-.875-4.047-4.866-6.622-8.915-5.747z"/></svg>