<svg xmlns="http://www.w3.org/2000/svg" viewBox="0 0 463 463"><path d="M199.5 120c-2.997 0-5.862.57-8.5 1.597V47.5c0-12.958-10.542-23.5-23.5-23.5-2.997 0-5.862.57-8.5 1.597V23.5C159 10.542 148.458 0 135.5 0S112 10.542 112 23.5v2.097C109.362 24.57 106.497 24 103.5 24 90.542 24 80 34.542 80 47.5v10.097C77.362 56.57 74.497 56 71.5 56 58.542 56 48 66.542 48 79.5v196.7c0 9.29 3.618 18.024 10.207 24.613C61.942 304.55 64 309.517 64 314.8v102.435c-9.29 3.138-16 11.93-16 22.266 0 12.96 10.542 23.5 23.5 23.5h128c12.958 0 23.5-10.54 23.5-23.5 0-10.335-6.71-19.127-16-22.265V314.8c0-5.283 2.058-10.25 5.813-14.006C219.383 294.224 223 285.49 223 276.2V143.5c0-12.958-10.542-23.5-23.5-23.5zm0 328h-128c-4.687 0-8.5-3.813-8.5-8.5s3.813-8.5 8.5-8.5h128c4.687 0 8.5 3.813 8.5 8.5s-3.813 8.5-8.5 8.5zm8.5-171.8c0 5.283-2.058 10.25-5.813 14.006C195.617 296.776 192 305.51 192 314.8V416H79V314.8c0-9.29-3.618-18.024-10.207-24.613C65.058 286.45 63 281.483 63 276.2V79.5c0-4.687 3.813-8.5 8.5-8.5s8.5 3.813 8.5 8.5v96c0 4.143 3.358 7.5 7.5 7.5s7.5-3.357 7.5-7.5v-128c0-4.687 3.813-8.5 8.5-8.5s8.5 3.813 8.5 8.5v120c0 4.143 3.358 7.5 7.5 7.5s7.5-3.357 7.5-7.5v-144c0-4.687 3.813-8.5 8.5-8.5s8.5 3.813 8.5 8.5v136c0 4.143 3.358 7.5 7.5 7.5s7.5-3.357 7.5-7.5v-112c0-4.687 3.813-8.5 8.5-8.5s8.5 3.813 8.5 8.5v160c0 4.143 3.358 7.5 7.5 7.5s7.5-3.357 7.5-7.5v-64c0-4.687 3.813-8.5 8.5-8.5s8.5 3.813 8.5 8.5v132.7zM404.813 300.794C411.383 294.224 415 285.49 415 276.2V79.5c0-12.958-10.542-23.5-23.5-23.5-2.997 0-5.862.57-8.5 1.597V47.5c0-12.958-10.542-23.5-23.5-23.5-2.997 0-5.862.57-8.5 1.597V23.5C351 10.542 340.458 0 327.5 0S304 10.542 304 23.5v2.097C301.362 24.57 298.497 24 295.5 24 282.542 24 272 34.542 272 47.5v74.097c-2.638-1.027-5.503-1.597-8.5-1.597-12.958 0-23.5 10.542-23.5 23.5v132.7c0 9.29 3.618 18.024 10.207 24.613 3.736 3.735 5.793 8.703 5.793 13.986v102.434c-9.29 3.138-16 11.93-16 22.266 0 12.958 10.542 23.5 23.5 23.5h128c12.958 0 23.5-10.542 23.5-23.5 0-10.336-6.71-19.128-16-22.266V314.8c0-5.283 2.058-10.25 5.813-14.006zM255 276.2V143.5c0-4.687 3.813-8.5 8.5-8.5s8.5 3.813 8.5 8.5v64c0 4.143 3.358 7.5 7.5 7.5s7.5-3.357 7.5-7.5v-160c0-4.687 3.813-8.5 8.5-8.5s8.5 3.813 8.5 8.5v112c0 4.143 3.358 7.5 7.5 7.5s7.5-3.357 7.5-7.5v-136c0-4.687 3.813-8.5 8.5-8.5s8.5 3.813 8.5 8.5v144c0 4.143 3.358 7.5 7.5 7.5s7.5-3.357 7.5-7.5v-120c0-4.687 3.813-8.5 8.5-8.5s8.5 3.813 8.5 8.5v128c0 4.143 3.358 7.5 7.5 7.5s7.5-3.357 7.5-7.5v-96c0-4.687 3.813-8.5 8.5-8.5s8.5 3.813 8.5 8.5v196.7c0 5.283-2.058 10.25-5.813 14.006C387.617 296.776 384 305.51 384 314.8V416H271V314.8c0-9.29-3.618-18.024-10.207-24.613-3.735-3.736-5.793-8.704-5.793-13.987zM391.5 448h-128c-4.687 0-8.5-3.813-8.5-8.5s3.813-8.5 8.5-8.5h128c4.687 0 8.5 3.813 8.5 8.5s-3.813 8.5-8.5 8.5z"/></svg>