<svg xmlns="http://www.w3.org/2000/svg" viewBox="0 0 463.003 463.003"><path d="M346.777 45.98C313.12 14.043 268.973-2.202 222.482.24c-41.92 2.2-81.372 20.344-111.088 51.087-29.703 30.73-46.522 70.777-47.358 112.763-.637 31.984 7.766 63.24 24.3 90.39 16.05 26.357 39.013 47.766 66.404 61.913 13.115 6.773 21.262 20.398 21.262 35.557v41.83c0 19.942 9.627 35.712 24.313 42.115 2.144 15.297 15.31 27.108 31.187 27.108 15.854 0 29.003-11.775 31.178-27.037 14.268-5.96 24.322-20.06 24.322-36.463v-47.516c0-15.167 8.196-28.832 21.39-35.66C364.28 287.4 399 230.375 399 167.503c0-46.41-18.548-89.567-52.225-121.523zM255.39 304.003h-47.778l-19.96-104.786c6.976.734 10.915 3.344 15.69 6.527 6.51 4.34 13.888 9.26 28.16 9.26s21.65-4.92 28.16-9.26c4.773-3.183 8.712-5.792 15.687-6.527l-19.96 104.786zm-44.92 15h42.063l-3.238 17h-35.587l-3.238-17zm-3.01 32h64.557c-.006.328-.017.655-.017.984v6.704l-81 11.933V351.95c0-.317-.01-.63-.016-.947h16.476zM191 393.778v-7.993l81-11.932v17.183l-80.085 11.798c-.596-2.81-.914-5.836-.914-9.056zm40.5 54.225c-6.395 0-11.94-3.666-14.678-9h29.357c-2.737 5.334-8.282 9-14.68 9zm16-24h-32c-6.702 0-12.394-2.548-16.603-7.036l72.126-10.625c-2.97 10.19-12.386 17.66-23.522 17.66zm53.995-120.997c-13.366 6.918-23.005 18.887-27.183 32.997h-9.748l30.304-159.097c.775-4.07-1.896-7.996-5.964-8.77-4.072-.776-7.996 1.895-8.77 5.963l-1.893 9.93c-13.438.284-20.587 5.024-26.9 9.232-5.65 3.766-10.11 6.74-19.84 6.74s-14.19-2.975-19.84-6.74c-6.313-4.21-13.462-8.948-26.9-9.232l-1.893-9.93c-.775-4.07-4.706-6.74-8.77-5.965-4.07.775-6.74 4.702-5.965 8.77l30.304 159.098h-9.73c-4.157-14.108-13.762-26.057-27.085-32.938-24.944-12.883-45.856-32.38-60.475-56.386-15.047-24.71-22.694-53.166-22.114-82.29.762-38.19 16.084-74.64 43.147-102.638C149.25 33.746 185.15 17.22 223.267 15.22c2.785-.146 5.552-.22 8.314-.22 39.27 0 76.244 14.697 104.872 41.86 30.662 29.096 47.55 68.39 47.55 110.643 0 57.243-31.615 109.164-82.507 135.503z"/><path d="M282.28 41.84c-5.49-2.22-11.178-4.093-16.91-5.567-4.01-1.035-8.1 1.382-9.13 5.394-1.033 4.01 1.382 8.1 5.393 9.132 5.092 1.31 10.146 2.974 15.023 4.946.92.373 1.873.55 2.81.55 2.966 0 5.775-1.772 6.955-4.69 1.554-3.84-.3-8.212-4.14-9.765zM316.197 61.73c-3.233-2.593-7.953-2.072-10.543 1.16-2.59 3.23-2.07 7.95 1.16 10.542 28.717 23.022 45.188 57.31 45.188 94.07 0 7.6-.71 15.204-2.115 22.6-.772 4.07 1.9 7.996 5.97 8.768.474.09.943.133 1.407.133 3.532 0 6.678-2.506 7.36-6.104 1.578-8.317 2.377-16.862 2.377-25.397 0-41.337-18.516-79.89-50.803-105.774z"/></svg>