<svg xmlns="http://www.w3.org/2000/svg" viewBox="0 0 463.001 463.001"><path d="M303.5 0C215.554 0 144 71.55 144 159.5c0 36.188 12.123 69.593 32.508 96.386l-32.31 32.31c-.206.206-.393.422-.57.644-2.645-.55-5.363-.84-8.127-.84-10.55 0-20.47 4.11-27.932 11.572l-96 96C4.11 403.03 0 412.948 0 423.5s4.108 20.47 11.568 27.928C19.03 458.89 28.95 463 39.5 463s20.47-4.11 27.934-11.572l96-96C170.893 347.972 175 338.053 175 327.5c0-2.765-.29-5.484-.84-8.13.222-.175.437-.362.642-.567l32.31-32.31C233.908 306.88 267.314 319 303.5 319c87.95 0 159.5-71.55 159.5-159.5S391.45 0 303.5 0zM56.827 440.822C52.196 445.452 46.046 448 39.5 448s-12.695-2.55-17.325-7.18C17.548 436.197 15 430.046 15 423.5s2.548-12.696 7.176-17.322l86.698-86.698 34.647 34.647-86.694 86.695zm97.25-97.354l-34.53-34.528c4.576-3.936 10.26-5.926 15.955-5.926 6.275 0 12.55 2.39 17.327 7.166 4.627 4.625 7.175 10.776 7.175 17.32 0 5.927-2.096 11.527-5.927 15.968zm13.654-38.803c-1.278-1.796-2.706-3.503-4.296-5.092-1.592-1.59-3.3-3.02-5.098-4.3l27.84-27.84c3 3.26 6.135 6.393 9.394 9.393l-27.84 27.84zM303.5 304C223.824 304 159 239.178 159 159.5S223.824 15 303.5 15 448 79.822 448 159.5 383.18 304 303.5 304z"/><path d="M303.5 32C233.198 32 176 89.196 176 159.5S233.198 287 303.5 287 431 229.804 431 159.5 373.806 32 303.5 32zm0 240C241.47 272 191 221.533 191 159.5S241.47 47 303.5 47 416 97.467 416 159.5 365.534 272 303.5 272z"/><path d="M355.58 79.438c-3.47-2.262-8.116-1.283-10.378 2.188-2.262 3.47-1.282 8.117 2.188 10.378C370.314 106.944 384 132.176 384 159.5c0 18.667-6.534 36.86-18.4 51.226-2.637 3.193-2.186 7.92 1.008 10.56 1.398 1.154 3.09 1.716 4.772 1.716 2.16 0 4.304-.93 5.787-2.724C391.247 203.23 399 181.646 399 159.5c0-32.413-16.23-62.342-43.42-80.062zM320.856 65.575C315.168 64.53 309.33 64 303.5 64c-4.142 0-7.5 3.358-7.5 7.5s3.358 7.5 7.5 7.5c4.923 0 9.85.447 14.646 1.328.46.084.914.125 1.364.125 3.55 0 6.703-2.53 7.368-6.146.748-4.074-1.948-7.983-6.022-8.732z"/></svg>