<svg xmlns="http://www.w3.org/2000/svg" viewBox="0 0 463.001 463.001"><path d="M447 63.5c0-.764-.116-1.5-.328-2.195V23.5c0-12.958-10.542-23.5-23.5-23.5h-96c-12.958 0-23.5 10.542-23.5 23.5v224.328c0 19.87-8.354 39.08-22.92 52.702-14.757 13.8-34.01 20.655-54.21 19.303-37.69-2.526-67.213-35.39-67.213-74.82V23.5c0-12.958-10.543-23.5-23.5-23.5h-96c-12.96 0-23.5 10.542-23.5 23.5v37.805C16.115 62 16 62.735 16 63.5s.116 1.5.328 2.195V243.41c0 56.86 21.442 110.933 60.377 152.26 39.27 41.684 91.932 65.562 148.288 67.234 2.198.065 4.39.098 6.577.098 56.21 0 109.158-21.46 149.717-60.832 42.164-40.93 65.385-95.744 65.385-154.34V65.694c.213-.695.328-1.43.328-2.195zM327.172 15h96c4.687 0 8.5 3.813 8.5 8.5V56h-113V23.5c0-4.687 3.813-8.5 8.5-8.5zM39.83 15h96c4.686 0 8.5 3.813 8.5 8.5V56h-113V23.5c0-4.687 3.812-8.5 8.5-8.5zm47.794 370.385C51.32 346.85 31.33 296.43 31.33 243.41V71h113v174.014c0 46.76 34.873 85.814 79.67 89.644V447.85c-51.806-1.915-100.19-24.055-136.376-62.465zm283.216 6.022c-35.937 34.887-82.332 54.64-131.84 56.445V334.69c19.39-1.63 37.49-9.635 52-23.205 17.586-16.447 27.673-39.65 27.673-63.657V71h113v176.828c0 54.506-21.605 105.497-60.833 143.58z"/><path d="M119.676 136h-.012c-4.136 0-7.493 3.35-7.5 7.488l-.164 104c-.006 4.142 3.346 7.505 7.488 7.512h.012c4.136 0 7.493-3.35 7.5-7.488l.164-104c.007-4.142-3.346-7.506-7.488-7.512zM119.752 87.997c-4.096-.016-7.505 3.346-7.512 7.488l-.025 15.998c-.006 4.142 3.346 7.505 7.488 7.512h.012c4.137 0 7.494-3.35 7.5-7.488l.025-15.998c.007-4.144-3.346-7.507-7.488-7.513zM407.172 200c-4.142 0-7.5 3.357-7.5 7.5v16.003c0 4.142 3.358 7.5 7.5 7.5s7.5-3.358 7.5-7.5V207.5c0-4.144-3.358-7.5-7.5-7.5zM407.33 248.007c-4.15-.168-7.638 3.03-7.816 7.17-1.903 44.077-20.775 85.048-53.14 115.365-3.023 2.832-3.178 7.578-.346 10.6 1.477 1.577 3.473 2.374 5.475 2.374 1.837 0 3.68-.67 5.126-2.026 35.245-33.016 55.797-77.644 57.87-125.666.18-4.14-3.03-7.638-7.17-7.817z"/></svg>