<svg xmlns="http://www.w3.org/2000/svg" viewBox="0 0 463 463"><path d="M431.5 48h-400C14.13 48 0 62.13 0 79.5v288c0 14.785 10.24 27.216 24 30.59v9.41c0 4.142 3.358 7.5 7.5 7.5s7.5-3.358 7.5-7.5V399h385v8.5c0 4.142 3.358 7.5 7.5 7.5s7.5-3.358 7.5-7.5v-9.41c13.76-3.373 24-15.805 24-30.59v-288c0-17.37-14.13-31.5-31.5-31.5zM448 367.5c0 9.098-7.402 16.5-16.5 16.5h-400c-9.098 0-16.5-7.402-16.5-16.5v-288C15 70.402 22.402 63 31.5 63h400c9.098 0 16.5 7.402 16.5 16.5v288z"/><path d="M415.5 352h-8c-4.142 0-7.5 3.358-7.5 7.5s3.358 7.5 7.5 7.5h8c4.142 0 7.5-3.358 7.5-7.5s-3.358-7.5-7.5-7.5zM375.5 352h-8c-4.142 0-7.5 3.358-7.5 7.5s3.358 7.5 7.5 7.5h8c4.142 0 7.5-3.358 7.5-7.5s-3.358-7.5-7.5-7.5zM335.5 352h-24c-4.142 0-7.5 3.358-7.5 7.5s3.358 7.5 7.5 7.5h24c4.142 0 7.5-3.358 7.5-7.5s-3.358-7.5-7.5-7.5zM423.5 80h-384c-4.142 0-7.5 3.358-7.5 7.5v240c0 .036.005.07.005.106 0 .063.007.125.01.187.006.19.016.382.038.57.002.018.006.037.01.056.24 1.967 1.24 3.7 2.7 4.893l.08.06c.164.13.332.256.507.372.033.022.07.04.102.062.174.112.352.22.535.317.028.015.057.027.085.04.194.1.392.195.596.278l.08.03c.207.08.417.156.63.22l.028.008c.04.012.082.018.124.03.186.05.372.097.563.133.106.02.21.033.316.048.132.02.263.042.398.054.165.016.328.02.492.025.066 0 .13.01.198.01H423.49c.025 0 .05-.004.076-.004.295-.003.586-.026.872-.062.077-.01.154-.023.23-.035.295-.047.583-.108.864-.187.02-.006.04-.007.06-.013l.026-.01c.215-.062.424-.136.63-.218l.08-.03c.205-.083.403-.177.597-.277l.085-.04c.184-.1.36-.206.535-.318.033-.02.07-.04.102-.062.174-.116.34-.24.504-.37.028-.022.057-.04.084-.063 1.46-1.192 2.46-2.923 2.7-4.89.004-.02.008-.04.01-.062.02-.187.03-.377.038-.568.002-.063.01-.125.01-.188 0-.036.004-.07.004-.106v-240C431 83.358 427.642 80 423.5 80zM416 95v193.7c-8.12-15.728-18.247-30.43-30.068-43.652l13.528-13.766c2.903-2.954 2.862-7.703-.092-10.606-2.955-2.904-7.703-2.862-10.606.092l-13.22 13.454c-5.828-5.644-11.987-10.955-18.454-15.884-.19-.146-.385-.286-.577-.43L375.8 189.04c2.3-3.444 1.375-8.1-2.07-10.402-3.442-2.302-8.1-1.375-10.4 2.07l-19.095 28.575c-8.014-5.213-16.32-9.833-24.872-13.848l7.07-17.07c1.586-3.826-.23-8.213-4.058-9.798-3.826-1.586-8.214.23-9.8 4.058l-7.01 16.93c-8.062-3.085-16.312-5.648-24.714-7.69l3.272-16.45c.808-4.062-1.83-8.01-5.893-8.818-4.062-.807-8.01 1.83-8.82 5.893l-3.254 16.366c-8.917-1.49-17.98-2.4-27.15-2.722V143.5c0-4.142-3.358-7.5-7.5-7.5s-7.5 3.358-7.5 7.5v32.64c-9.17.32-18.232 1.23-27.15 2.72l-3.256-16.366c-.808-4.063-4.758-6.7-8.82-5.893-4.062.81-6.7 4.758-5.892 8.82l3.272 16.448c-8.637 2.1-17.112 4.753-25.387 7.952l-7.12-17.192c-1.586-3.827-5.974-5.644-9.8-4.06-3.827 1.586-5.644 5.974-4.06 9.8l7.2 17.376c-8.103 3.838-15.982 8.218-23.597 13.134l-19.098-28.582c-2.3-3.444-6.958-4.37-10.403-2.07-3.444 2.302-4.37 6.96-2.07 10.404l19.266 28.832c-.39.293-.784.58-1.172.875-6.467 4.928-12.626 10.24-18.453 15.884l-13.22-13.453c-2.904-2.954-7.652-2.995-10.607-.093-2.955 2.903-2.996 7.652-.093 10.606l13.528 13.766C65.247 258.27 55.12 272.973 47 288.7V95h369zM302.115 216.593c-3.815-1.614-8.216.17-9.83 3.985L250.222 320H49.792c12.387-35.325 35.27-66.91 65.213-89.73 2.072-1.58 4.17-3.112 6.29-4.6.07-.043.145-.074.214-.12.172-.116.334-.24.494-.368C154.23 202.794 191.9 191 231.5 191c42.5 0 82.785 13.58 116.495 39.27 29.944 22.82 52.826 54.405 65.212 89.73H266.51l39.59-93.578c1.613-3.815-.17-8.215-3.985-9.83z"/><path d="M231.5 119c1.98 0 3.91-.8 5.3-2.2 1.4-1.4 2.2-3.33 2.2-5.3 0-1.97-.8-3.91-2.2-5.3-1.39-1.4-3.32-2.2-5.3-2.2-1.97 0-3.91.8-5.3 2.2-1.4 1.39-2.2 3.32-2.2 5.3 0 1.97.8 3.91 2.2 5.3 1.39 1.4 3.33 2.2 5.3 2.2zM386.5 166.33c1.98 0 3.91-.8 5.3-2.19 1.4-1.4 2.2-3.33 2.2-5.31 0-1.97-.8-3.9-2.2-5.3-1.39-1.4-3.33-2.2-5.3-2.2-1.97 0-3.91.8-5.3 2.2-1.4 1.4-2.2 3.33-2.2 5.3 0 1.98.8 3.91 2.2 5.31 1.39 1.39 3.32 2.19 5.3 2.19zM76.5 166.33c1.97 0 3.91-.8 5.3-2.19 1.4-1.4 2.2-3.33 2.2-5.31 0-1.97-.8-3.9-2.2-5.3-1.39-1.4-3.33-2.2-5.3-2.2-1.97 0-3.91.8-5.3 2.2-1.4 1.4-2.2 3.33-2.2 5.3 0 1.98.8 3.91 2.2 5.31 1.39 1.39 3.33 2.19 5.3 2.19z"/></svg>