<svg xmlns="http://www.w3.org/2000/svg" viewBox="0 0 463.783 463.783"><path d="M416.85 306.884l-22.624-22.625c-2.93-2.93-7.678-2.93-10.607 0l-54.626 54.624c-2.93 2.93-2.93 7.678 0 10.606l8.353 8.353-14.01 14.01c-3.102 3.102-7.22 4.816-11.6 4.834l-33.458-.65v-28.26l116.428-116.43c2.93-2.928 2.93-7.677 0-10.605l-22.625-22.625c-2.93-2.93-7.678-2.93-10.607 0l-110.4 110.398c-3.872-1.272-8.004-1.97-12.297-1.97-10.043 0-19.216 3.773-26.193 9.968-34.49-11.28-58.32-43.83-58.32-80.23 0-10.072 1.797-19.924 5.302-29.33 6.452-1.215 12.453-3.727 17.706-7.274l23.626 23.343c.04.04.086.075.128.115.115.108.23.214.353.316.076.063.153.122.23.182.114.087.23.172.348.253.098.065.196.126.295.187.104.064.21.126.317.185.122.067.245.128.37.187.092.043.185.088.28.13.143.06.288.114.434.166.06.02.114.047.173.067l34.426 11.318 15.704 15.705c3.022 3.022 6.99 4.533 10.96 4.533 3.97 0 7.938-1.51 10.96-4.533l20.688-20.687c6.043-6.043 6.043-15.876 0-21.92l-15.67-15.67-10.938-34.757c-.03-.095-.07-.185-.104-.28-.047-.13-.09-.26-.144-.386-.058-.137-.125-.267-.19-.4-.042-.085-.08-.173-.127-.257-.083-.154-.176-.3-.268-.446-.037-.058-.07-.118-.11-.176-.106-.157-.22-.306-.337-.453-.035-.043-.067-.09-.103-.132-.123-.15-.255-.29-.388-.427-.033-.032-.062-.07-.095-.102l-.045-.045-.042-.042-92.826-92.377c-4.438-4.438-10.34-6.883-16.617-6.883-6.12 0-11.878 2.33-16.277 6.56l-30.99-30.99c1.104-2.733 1.69-5.676 1.69-8.71 0-6.21-2.417-12.047-6.81-16.44C101.792 2.42 95.955 0 89.746 0S77.7 2.418 73.308 6.808L51.543 28.574c-4.39 4.39-6.808 10.228-6.808 16.437s2.42 12.047 6.81 16.437c4.53 4.53 10.482 6.795 16.435 6.795 2.96 0 5.92-.563 8.707-1.684l31.006 31.006c-8.83 9.188-8.735 23.835.316 32.886l2.63 2.63c.24.24.496.453.76.654-5.132 7.584-8.132 16.723-8.132 26.55 0 4.75.71 9.336 2.013 13.667-9.29 19.77-14.012 40.727-14.012 62.334 0 33.592 11.063 65.245 31.99 91.538 19.378 24.343 46.245 42.13 76.022 50.44v38.522h-32.486c-17.37 0-31.5 14.13-31.5 31.5v8c0 4.142 3.357 7.5 7.5 7.5h191.974c4.143 0 7.5-3.358 7.5-7.5v-8c0-17.37-14.13-31.5-31.5-31.5H278.28v-25.742l33.245.645h.146c8.415 0 16.325-3.275 22.275-9.225l14.01-14.01 3.666 3.664c1.466 1.464 3.386 2.197 5.305 2.197s3.84-.732 5.304-2.197l54.624-54.625c2.926-2.928 2.926-7.677-.003-10.606zm-50.07-92.858l12.018 12.02-103.943 103.942c-2.378-5.32-5.896-10.02-10.247-13.79l102.17-102.172zm-248.514-53.743c0-17.92 14.58-32.5 32.5-32.5s32.5 14.58 32.5 32.5-14.58 32.5-32.5 32.5-32.5-14.58-32.5-32.5zm141.1 14.82l6.413 20.374-25.522 25.52-20.16-6.627 39.27-39.268zm26.597 45.44l-20.687 20.686c-.192.192-.512.194-.706 0l-11.665-11.666L274.3 208.17l11.663 11.665c.195.195.195.512 0 .707zM158.567 71.388c2.27 0 4.404.883 6.023 2.5l87.6 87.175-46.048 46.046-17.904-17.69c6.276-8.05 10.028-18.16 10.028-29.138 0-26.19-21.31-47.5-47.5-47.5-10.997 0-21.124 3.767-29.184 10.064-.11-.126-.22-.254-.34-.375l-2.63-2.63c-3.313-3.313-3.313-8.706 0-12.02l33.942-33.942c1.608-1.605 3.743-2.49 6.013-2.49zm-56.572-27.523l29.68 29.68L118.28 86.94l-29.68-29.68 13.393-13.393zM62.15 50.84c-1.558-1.558-2.415-3.628-2.415-5.83s.857-4.272 2.415-5.83l21.766-21.766C85.473 15.857 87.543 15 89.746 15s4.27.857 5.83 2.417c1.557 1.557 2.414 3.627 2.414 5.83s-.857 4.272-2.415 5.83L73.808 50.838c-3.214 3.213-8.443 3.213-11.658 0zm72.844 267.64c-18.794-23.61-28.728-52.034-28.728-82.197 0-15.6 2.753-30.83 8.174-45.44 7.268 8.625 17.54 14.64 29.19 16.403-2.885 9.396-4.364 19.127-4.364 29.037 0 41.158 25.862 78.135 63.858 92.776-2.463 5.147-3.845 10.907-3.845 16.985v16.55c-25.14-7.898-47.748-23.34-64.286-44.116zm192.272 129.803v.5H150.293v-.5c0-9.098 7.402-16.5 16.5-16.5h143.974c9.097 0 16.5 7.402 16.5 16.5zm-112.987-31.5v-70.738c0-13.51 10.99-24.5 24.5-24.5s24.5 10.99 24.5 24.5v70.738h-49zm142.643-60.577l-12.02-12.02 44.02-44.018 12.02 12.02-44.02 44.018z"/><path d="M150.786 167.783c4.143 0 7.5-3.358 7.5-7.5s-3.357-7.5-7.5-7.5h-.01c-4.142 0-7.495 3.358-7.495 7.5s3.364 7.5 7.506 7.5zM238.775 344.78c-1.97 0-3.9.8-5.3 2.2-1.39 1.4-2.2 3.33-2.2 5.3 0 1.98.81 3.91 2.2 5.31 1.4 1.39 3.33 2.19 5.3 2.19 1.98 0 3.91-.8 5.31-2.19 1.39-1.4 2.19-3.33 2.19-5.31 0-1.97-.8-3.91-2.19-5.3-1.4-1.4-3.33-2.2-5.31-2.2z"/></svg>