<svg xmlns="http://www.w3.org/2000/svg" viewBox="0 0 464.976 464.976"><path d="M436.488 312c-1.348 0-2.667.12-3.953.34l-34.892-64.802c3.932-4.203 6.346-9.842 6.346-16.038s-2.415-11.835-6.347-16.038l34.893-64.8c1.286.218 2.605.338 3.953.338 12.957 0 23.5-10.542 23.5-23.5s-10.543-23.5-23.5-23.5-23.5 10.542-23.5 23.5c0 6.196 2.413 11.835 6.345 16.038l-34.893 64.8c-1.286-.218-2.605-.338-3.953-.338-10.337 0-19.13 6.71-22.267 16h-75.47c-3.137-9.29-11.93-16-22.265-16-1.348 0-2.667.12-3.953.34l-34.893-64.802c3.932-4.203 6.346-9.842 6.346-16.038s-2.414-11.835-6.346-16.038l34.893-64.8c1.286.218 2.605.338 3.953.338 12.958 0 23.5-10.542 23.5-23.5S273.446 0 260.488 0s-23.5 10.542-23.5 23.5c0 6.196 2.414 11.835 6.346 16.038l-34.893 64.8c-1.285-.218-2.604-.338-3.952-.338-10.336 0-19.128 6.71-22.266 16h-75.47c-3.137-9.29-11.93-16-22.265-16-12.958 0-23.5 10.542-23.5 23.5 0 6.196 2.414 11.835 6.346 16.038l-34.893 64.8c-1.285-.218-2.605-.338-3.952-.338-12.958 0-23.5 10.542-23.5 23.5S15.53 255 28.488 255c1.348 0 2.667-.12 3.953-.34l34.894 64.802c-3.932 4.203-6.346 9.842-6.346 16.038 0 6.548 2.695 12.477 7.03 16.742l-35.576 66.072c-1.286-.22-2.605-.34-3.953-.34-12.96 0-23.5 10.543-23.5 23.5s10.54 23.5 23.5 23.5 23.5-10.54 23.5-23.5c0-6.195-2.415-11.834-6.347-16.037l35.88-66.63c.972.122 1.96.193 2.967.193 10.336 0 19.128-6.71 22.266-16h75.47c3.137 9.29 11.93 16 22.265 16 1.35 0 2.668-.12 3.954-.34l34.893 64.802c-3.932 4.203-6.346 9.842-6.346 16.038 0 12.958 10.543 23.5 23.5 23.5 10.337 0 19.13-6.71 22.267-16h75.47c3.137 9.29 11.93 16 22.265 16 12.958 0 23.5-10.542 23.5-23.5 0-6.196-2.414-11.835-6.346-16.038l34.893-64.8c1.285.218 2.604.338 3.952.338 12.958 0 23.5-10.542 23.5-23.5S449.446 312 436.488 312zm-408 137.976c-4.687 0-8.5-3.813-8.5-8.5s3.813-8.5 8.5-8.5 8.5 3.813 8.5 8.5-3.814 8.5-8.5 8.5zm352-33.976c-10.336 0-19.128 6.71-22.266 16h-75.47c-3.137-9.29-11.93-16-22.265-16-1.348 0-2.667.12-3.953.34l-34.893-64.802c3.933-4.203 6.347-9.842 6.347-16.038s-2.414-11.835-6.346-16.038l34.894-64.8c1.286.218 2.605.338 3.953.338 10.336 0 19.128-6.71 22.266-16h75.47c3.137 9.29 11.93 16 22.265 16 1.348 0 2.667-.12 3.953-.34l34.893 64.802c-3.932 4.203-6.346 9.842-6.346 16.038s2.414 11.835 6.346 16.038l-34.893 64.8c-1.285-.218-2.605-.338-3.952-.338zm-198.266-88h-75.47c-3.137-9.29-11.93-16-22.265-16-1.348 0-2.667.12-3.953.34L45.64 247.537c3.933-4.203 6.347-9.842 6.347-16.038s-2.414-11.835-6.346-16.038l34.894-64.8c1.287.218 2.606.338 3.954.338 10.336 0 19.128-6.71 22.266-16h75.47c3.137 9.29 11.93 16 22.265 16 1.347 0 2.666-.12 3.952-.34l34.893 64.802c-3.932 4.203-6.346 9.842-6.346 16.038s2.413 11.835 6.345 16.038l-34.893 64.8c-1.286-.218-2.605-.338-3.953-.338-10.338 0-19.13 6.71-22.268 16zm254.266-209c4.687 0 8.5 3.813 8.5 8.5s-3.813 8.5-8.5 8.5-8.5-3.813-8.5-8.5 3.813-8.5 8.5-8.5zm-56 104c4.687 0 8.5 3.813 8.5 8.5s-3.813 8.5-8.5 8.5-8.5-3.813-8.5-8.5 3.813-8.5 8.5-8.5zm-111.5 8.5c0 4.687-3.813 8.5-8.5 8.5s-8.5-3.813-8.5-8.5 3.813-8.5 8.5-8.5 8.5 3.813 8.5 8.5zm-8.5-216.5c4.687 0 8.5 3.813 8.5 8.5s-3.813 8.5-8.5 8.5-8.5-3.813-8.5-8.5 3.813-8.5 8.5-8.5zm-56 104c4.687 0 8.5 3.813 8.5 8.5s-3.813 8.5-8.5 8.5-8.5-3.813-8.5-8.5 3.813-8.5 8.5-8.5zm-120 0c4.687 0 8.5 3.813 8.5 8.5s-3.813 8.5-8.5 8.5-8.5-3.813-8.5-8.5 3.813-8.5 8.5-8.5zm-64.5 112.5c0-4.687 3.813-8.5 8.5-8.5s8.5 3.813 8.5 8.5-3.813 8.5-8.5 8.5-8.5-3.813-8.5-8.5zm64.5 112.5c-4.687 0-8.5-3.813-8.5-8.5s3.813-8.5 8.5-8.5 8.5 3.813 8.5 8.5-3.814 8.5-8.5 8.5zm111.5-8.5c0-4.687 3.813-8.5 8.5-8.5s8.5 3.813 8.5 8.5-3.813 8.5-8.5 8.5-8.5-3.813-8.5-8.5zm64.5 112.5c-4.687 0-8.5-3.813-8.5-8.5s3.813-8.5 8.5-8.5 8.5 3.813 8.5 8.5-3.814 8.5-8.5 8.5zm120 0c-4.687 0-8.5-3.813-8.5-8.5s3.813-8.5 8.5-8.5 8.5 3.813 8.5 8.5-3.814 8.5-8.5 8.5zm56-104c-4.687 0-8.5-3.813-8.5-8.5s3.813-8.5 8.5-8.5 8.5 3.813 8.5 8.5-3.814 8.5-8.5 8.5z"/></svg>