<svg xmlns="http://www.w3.org/2000/svg" viewBox="0 0 463 463"><path d="M431.5 400c-5.972 0-11.56 1.67-16.325 4.57L287.71 277.103c-.22-.222-.456-.42-.697-.61C297 264.2 303 248.54 303 231.5c0-17.017-5.985-32.656-15.948-44.946l86.888-86.888C383.268 106.77 394.897 111 407.5 111c30.603 0 55.5-24.897 55.5-55.5S438.103 0 407.5 0 352 24.897 352 55.5c0 12.603 4.23 24.232 11.334 33.56l-86.888 86.887C264.156 165.985 248.516 160 231.5 160s-32.656 5.985-44.946 15.948l-40.123-40.123c2.9-4.764 4.57-10.353 4.57-16.325 0-17.37-14.13-31.5-31.5-31.5S88 102.13 88 119.5s14.13 31.5 31.5 31.5c5.972 0 11.56-1.67 16.325-4.57l40.123 40.124C165.985 198.844 160 214.484 160 231.5c0 9.652 1.933 18.858 5.415 27.266L70.01 310.443C62.76 301.63 51.777 296 39.5 296 17.72 296 0 313.72 0 335.5S17.72 375 39.5 375 79 357.28 79 335.5c0-4.137-.642-8.126-1.827-11.876l95.408-51.68C185.486 290.685 207.078 303 231.5 303c2.74 0 5.44-.17 8.1-.472l9.944 44.743C239.16 352.427 232 363.14 232 375.5c0 17.37 14.13 31.5 31.5 31.5s31.5-14.13 31.5-31.5c0-17.14-13.76-31.115-30.813-31.483l-9.944-44.747c8.174-2.75 15.693-6.93 22.253-12.257.188.24.387.476.61.698l127.463 127.465c-2.9 4.764-4.57 10.353-4.57 16.325 0 17.37 14.13 31.5 31.5 31.5s31.5-14.13 31.5-31.5-14.13-31.5-31.5-31.5zm-392-40C25.99 360 15 349.01 15 335.5S25.99 311 39.5 311 64 321.99 64 335.5 53.01 360 39.5 360zM280 375.5c0 9.098-7.402 16.5-16.5 16.5s-16.5-7.402-16.5-16.5 7.402-16.5 16.5-16.5 16.5 7.402 16.5 16.5zM407.5 15c22.332 0 40.5 18.168 40.5 40.5S429.832 96 407.5 96 367 77.832 367 55.5 385.168 15 407.5 15zM103 119.5c0-9.098 7.402-16.5 16.5-16.5s16.5 7.402 16.5 16.5-7.402 16.5-16.5 16.5-16.5-7.402-16.5-16.5zM231.5 288c-31.154 0-56.5-25.346-56.5-56.5s25.346-56.5 56.5-56.5 56.5 25.346 56.5 56.5-25.346 56.5-56.5 56.5zm200 160c-9.098 0-16.5-7.402-16.5-16.5s7.402-16.5 16.5-16.5 16.5 7.402 16.5 16.5-7.402 16.5-16.5 16.5z"/><path d="M231.5 192c-4.142 0-7.5 3.358-7.5 7.5s3.358 7.5 7.5 7.5c13.51 0 24.5 10.99 24.5 24.5 0 4.142 3.358 7.5 7.5 7.5s7.5-3.358 7.5-7.5c0-21.78-17.72-39.5-39.5-39.5zM407.5 47c4.687 0 8.5 3.813 8.5 8.5 0 4.142 3.358 7.5 7.5 7.5s7.5-3.358 7.5-7.5c0-12.958-10.542-23.5-23.5-23.5-4.142 0-7.5 3.358-7.5 7.5s3.358 7.5 7.5 7.5z"/></svg>