<svg xmlns="http://www.w3.org/2000/svg" viewBox="0 0 463 463"><path d="M215 231.5c0-30.603-24.897-55.5-55.5-55.5-4.142 0-7.5 3.358-7.5 7.5s3.358 7.5 7.5 7.5c22.332 0 40.5 18.168 40.5 40.5 0 4.142 3.358 7.5 7.5 7.5s7.5-3.358 7.5-7.5zM319.5 48.6c12.627 0 22.9 10.273 22.9 22.9 0 4.142 3.358 7.5 7.5 7.5s7.5-3.358 7.5-7.5c0-20.898-17.002-37.9-37.9-37.9-4.142 0-7.5 3.358-7.5 7.5s3.358 7.5 7.5 7.5z"/><path d="M319.5 320c-18.376 0-35.15 6.973-47.83 18.405l-46.648-48.98C238.69 273.98 247 253.694 247 231.5c0-21.43-7.748-41.08-20.584-56.31l48.138-48.138C286.844 137.015 302.484 143 319.5 143c39.425 0 71.5-32.075 71.5-71.5S358.925 0 319.5 0 248 32.075 248 71.5c0 17.017 5.985 32.656 15.948 44.946l-48.138 48.138C200.58 151.748 180.93 144 159.5 144c-48.248 0-87.5 39.252-87.5 87.5s39.252 87.5 87.5 87.5c20.665 0 39.675-7.205 54.662-19.23l47.455 49.83C253.063 361.38 248 375.856 248 391.5c0 39.425 32.075 71.5 71.5 71.5s71.5-32.075 71.5-71.5-32.075-71.5-71.5-71.5zm0-305c31.154 0 56.5 25.346 56.5 56.5S350.654 128 319.5 128 263 102.654 263 71.5 288.346 15 319.5 15zM87 231.5c0-39.977 32.523-72.5 72.5-72.5s72.5 32.523 72.5 72.5-32.523 72.5-72.5 72.5S87 271.477 87 231.5zM319.5 448c-31.154 0-56.5-25.346-56.5-56.5s25.346-56.5 56.5-56.5 56.5 25.346 56.5 56.5-25.346 56.5-56.5 56.5z"/><path d="M319.5 353.6c-4.142 0-7.5 3.358-7.5 7.5s3.358 7.5 7.5 7.5c12.627 0 22.9 10.273 22.9 22.9 0 4.142 3.358 7.5 7.5 7.5s7.5-3.358 7.5-7.5c0-20.898-17.002-37.9-37.9-37.9z"/></svg>