<svg xmlns="http://www.w3.org/2000/svg" viewBox="0 0 463 463"><path d="M439.5 48h-416C10.542 48 0 58.542 0 71.5v256C0 340.458 10.542 351 23.5 351H160v49h-32.5c-4.143 0-7.5 3.358-7.5 7.5s3.357 7.5 7.5 7.5h208c4.143 0 7.5-3.358 7.5-7.5s-3.357-7.5-7.5-7.5H303v-49h136.5c12.958 0 23.5-10.542 23.5-23.5v-256c0-12.958-10.542-23.5-23.5-23.5zM288 400H175v-49h113v49zm160-72.5c0 4.687-3.813 8.5-8.5 8.5h-416c-4.687 0-8.5-3.813-8.5-8.5v-256c0-4.687 3.813-8.5 8.5-8.5h416c4.687 0 8.5 3.813 8.5 8.5v256z"/><path d="M423.5 80h-384c-4.143 0-7.5 3.358-7.5 7.5v224c0 4.142 3.357 7.5 7.5 7.5h384c4.143 0 7.5-3.358 7.5-7.5v-224c0-4.142-3.357-7.5-7.5-7.5zM416 304H47V95h369v209z"/><path d="M151.5 279c17.714 0 34.09-5.828 47.32-15.66.126-.084.26-.148.38-.24.236-.176.454-.366.662-.563C218.777 247.99 231 225.152 231 199.5c0-43.836-35.663-79.5-79.5-79.5S72 155.664 72 199.5s35.663 79.5 79.5 79.5zm-64.05-72h60.3l36.17 48.225c-9.534 5.568-20.606 8.775-32.42 8.775-33.027 0-60.32-24.957-64.05-57zM216 199.5c0 18.367-7.73 34.953-20.092 46.71L159 197v-61.55c32.043 3.73 57 31.023 57 64.05zm-72-64.05V192H87.45c3.443-29.58 26.97-53.107 56.55-56.55zM255.5 143h96c4.143 0 7.5-3.358 7.5-7.5s-3.357-7.5-7.5-7.5h-96c-4.143 0-7.5 3.358-7.5 7.5s3.357 7.5 7.5 7.5zM383.5 192h-88c-4.142 0-7.5 3.358-7.5 7.5s3.358 7.5 7.5 7.5h88c4.143 0 7.5-3.358 7.5-7.5s-3.357-7.5-7.5-7.5zM255.5 207h8c4.144 0 7.5-3.358 7.5-7.5s-3.356-7.5-7.5-7.5h-8c-4.143 0-7.5 3.358-7.5 7.5s3.357 7.5 7.5 7.5zM383.5 224h-88c-4.142 0-7.5 3.358-7.5 7.5s3.358 7.5 7.5 7.5h88c4.143 0 7.5-3.358 7.5-7.5s-3.357-7.5-7.5-7.5zM255.5 239h8c4.144 0 7.5-3.358 7.5-7.5s-3.356-7.5-7.5-7.5h-8c-4.143 0-7.5 3.358-7.5 7.5s3.357 7.5 7.5 7.5zM383.5 256h-88c-4.142 0-7.5 3.358-7.5 7.5s3.358 7.5 7.5 7.5h88c4.143 0 7.5-3.358 7.5-7.5s-3.357-7.5-7.5-7.5zM255.5 271h8c4.144 0 7.5-3.358 7.5-7.5s-3.356-7.5-7.5-7.5h-8c-4.143 0-7.5 3.358-7.5 7.5s3.357 7.5 7.5 7.5zM255.5 175h128c4.143 0 7.5-3.358 7.5-7.5s-3.357-7.5-7.5-7.5h-128c-4.143 0-7.5 3.358-7.5 7.5s3.357 7.5 7.5 7.5z"/></svg>