<svg xmlns="http://www.w3.org/2000/svg" viewBox="0 0 463 463"><path d="M441.988 139.492c-8.437-5.81-19.343-8.896-31.54-8.927h-.183c-7.188 0-14.665 1.04-21.644 2.98C359.074 74.07 298.127 36 231.5 36S103.927 74.07 74.38 133.545c-6.98-1.94-14.456-2.98-21.645-2.98h-.182c-12.198.03-23.104 3.118-31.54 8.928C7.068 149.095 0 165.247 0 187.5c0 53.06 40.403 89.493 76.084 105.227 14.93 28.518 37.294 52.34 64.83 69.028C153.6 399.63 189.412 427 231.5 427c42.098 0 77.918-27.382 90.593-65.27.126-.068.254-.13.378-.206 27.36-16.676 49.592-40.423 64.445-68.798C422.597 276.993 463 240.56 463 187.5c0-22.253-7.07-38.405-21.012-48.008zM299.793 252.867C280.653 226.514 256.398 212 231.5 212s-49.152 14.514-68.293 40.867c-6.675 9.19-12.29 19.292-16.658 29.73-3.95-18.285-10.478-35.167-19.444-49.974-6.944-11.47-9.5-24.688-7.395-38.23 3.718-23.9 23.025-43.115 46.95-46.725 13.72-2.07 27.072.632 38.61 7.813 16.18 10.073 36.28 10.07 52.46 0 11.54-7.18 24.89-9.883 38.61-7.812 23.925 3.61 43.232 22.824 46.95 46.726 2.105 13.54-.452 26.76-7.396 38.23-8.966 14.807-15.494 31.688-19.443 49.974-4.367-10.438-9.982-20.54-16.657-29.73zM231.5 412c-44.388 0-80.5-36.112-80.5-80.5 0-22.393 9.328-49.146 24.343-69.817C197.26 231.506 219.935 227 231.5 227s34.24 4.506 56.157 34.683C302.672 282.353 312 309.107 312 331.5c0 44.388-36.112 80.5-80.5 80.5zm147.098-132.027c-1.656.69-3.01 1.948-3.817 3.55-11.418 22.667-27.95 42.194-48.224 57.172.29-3.027.444-6.093.444-9.194v-6.052c0-32.17 7.512-61.582 21.725-85.055 8.796-14.527 12.042-31.23 9.386-48.303-4.713-30.31-29.195-54.676-59.533-59.253-17.048-2.573-34.37.947-48.773 9.91-11.462 7.133-25.147 7.133-36.608 0-14.402-8.962-31.723-12.48-48.773-9.91-30.338 4.577-54.82 28.942-59.534 59.253-2.657 17.073.588 33.775 9.385 48.303C128.488 263.865 136 293.276 136 325.447v6.053c0 3.103.154 6.17.445 9.197-20.276-14.976-36.8-34.498-48.225-57.174-.807-1.603-2.16-2.86-3.817-3.55C52.387 266.652 15 234.442 15 187.5c0-17.022 4.885-29.02 14.52-35.654 6.844-4.713 24.265-10.463 46.137-2.114.216.082.434.152.653.213.126.06.248.124.378.177 3.56 1.448 5.43 2.697 6.226 3.313 1.366 1.055 2.98 1.565 4.58 1.565 2.244 0 4.463-1.002 5.94-2.914 2.534-3.277 1.93-7.987-1.347-10.52-1.085-.84-2.328-1.652-3.705-2.437C115.61 85.36 170.985 51 231.5 51s115.89 34.36 143.118 88.13c-1.376.784-2.62 1.596-3.704 2.435-3.277 2.533-3.88 7.243-1.35 10.52 1.48 1.913 3.697 2.915 5.94 2.915 1.602 0 3.216-.51 4.582-1.565.798-.617 2.67-1.868 6.234-3.316.13-.054.252-.118.377-.177.216-.06.432-.13.646-.21 21.874-8.348 39.294-2.6 46.137 2.113 9.635 6.636 14.52 18.632 14.52 35.654 0 46.942-37.387 79.153-69.402 92.473z"/><path d="M269.536 343.454c-9.962 2.428-20.22 3.862-30.536 4.335V331.5c0-4.143-3.358-7.5-7.5-7.5s-7.5 3.357-7.5 7.5v16.29c-10.365-.477-20.672-1.92-30.677-4.37-4.027-.985-8.083 1.478-9.068 5.5-.985 4.024 1.478 8.084 5.5 9.07 13.585 3.324 27.63 5.01 41.745 5.01 14.062 0 28.054-1.673 41.59-4.974 4.023-.98 6.49-5.038 5.51-9.063-.982-4.023-5.036-6.49-9.064-5.51zM246.792 379.28c-10.088.956-20.498.956-30.586 0-4.122-.383-7.783 2.635-8.174 6.758-.39 4.124 2.635 7.784 6.76 8.175 5.512.522 11.134.787 16.708.787 5.574 0 11.195-.265 16.707-.787 4.124-.39 7.15-4.05 6.76-8.175-.392-4.124-4.06-7.143-8.175-6.76zM66.037 208.025c-5.316-4.206-9.156-7.246-11.344-14.65-.962-3.256-1.305-7.586 2.524-9.72 2.92-1.627 6.82-1.25 8.693.846 2.762 3.087 7.503 3.353 10.59.59 3.087-2.763 3.35-7.504.588-10.59-6.605-7.385-18.035-9.043-27.176-3.947-7.307 4.073-13.667 13.325-9.606 27.072 3.536 11.966 10.38 17.383 16.42 22.163 6.74 5.333 12.56 9.94 15.4 25.094.677 3.604 3.826 6.12 7.364 6.12.458 0 .923-.043 1.39-.13 4.072-.764 6.753-4.683 5.99-8.754-3.874-20.67-13.278-28.112-20.833-34.093zM421.087 170.553c-9.14-5.097-20.57-3.436-27.176 3.946-2.76 3.086-2.498 7.827.59 10.59 3.084 2.76 7.827 2.498 10.59-.59 1.873-2.093 5.773-2.473 8.692-.846 3.83 2.135 3.487 6.465 2.524 9.72-2.188 7.405-6.028 10.445-11.344 14.65-7.556 5.98-16.96 13.423-20.835 34.094-.763 4.07 1.918 7.99 5.99 8.753.466.09.93.13 1.39.13 3.538 0 6.688-2.514 7.363-6.118 2.84-15.154 8.662-19.76 15.4-25.094 6.04-4.78 12.886-10.197 16.42-22.163 4.064-13.747-2.296-23-9.603-27.072zM175.5 188c-4.142 0-7.5 3.357-7.5 7.5v16c0 4.143 3.358 7.5 7.5 7.5s7.5-3.357 7.5-7.5v-16c0-4.143-3.358-7.5-7.5-7.5zM287.5 188c-4.142 0-7.5 3.357-7.5 7.5v16c0 4.143 3.358 7.5 7.5 7.5s7.5-3.357 7.5-7.5v-16c0-4.143-3.358-7.5-7.5-7.5zM196.146 290.208l16 8c1.077.54 2.22.794 3.348.794 2.75 0 5.4-1.52 6.714-4.147 1.853-3.705.35-8.21-3.354-10.063l-16-8c-3.702-1.854-8.208-.352-10.062 3.354-1.853 3.705-.35 8.21 3.354 10.062zM247.506 299.002c1.127 0 2.27-.256 3.348-.794l16-8c3.705-1.853 5.207-6.357 3.354-10.063-1.852-3.704-6.357-5.206-10.062-3.354l-16 8c-3.705 1.854-5.207 6.358-3.354 10.064 1.314 2.628 3.962 4.148 6.714 4.148z"/></svg>