<svg xmlns="http://www.w3.org/2000/svg" viewBox="0 0 463 463"><path d="M415.5 280c-6.405 0-12.515 1.282-18.095 3.59l-85.35-131.428c4.286-4.26 6.945-10.156 6.945-16.662V127h32.5c8.547 0 15.5-6.953 15.5-15.5v-32c0-8.547-6.953-15.5-15.5-15.5h-336C6.953 64 0 70.953 0 79.5v32c0 8.547 6.953 15.5 15.5 15.5H32v8.5c0 10.336 6.71 19.128 16 22.266v146.832C25.36 308.205 8 327.86 8 351.5 8 377.69 29.31 399 55.5 399c16.782 0 31.548-8.756 40-21.932 8.452 13.176 23.218 21.932 40 21.932s31.548-8.756 40-21.932c8.452 13.176 23.218 21.932 40 21.932 26.19 0 47.5-21.31 47.5-47.5 0-23.64-17.36-43.295-40-46.902V157.766c9.29-3.138 16-11.93 16-22.266V127h33v8.5c0 12.958 10.542 23.5 23.5 23.5 1.01 0 2.005-.07 2.982-.196l86.14 132.646C374.46 300.168 368 313.09 368 327.5c0 26.19 21.31 47.5 47.5 47.5s47.5-21.31 47.5-47.5-21.31-47.5-47.5-47.5zM15 111.5v-32c0-.276.224-.5.5-.5h336c.276 0 .5.224.5.5v32c0 .276-.224.5-.5.5h-336c-.276 0-.5-.224-.5-.5zm193 46.266v146.832c-13.628 2.17-25.334 10.162-32.5 21.334-7.166-11.172-18.872-19.163-32.5-21.334V157.766c9.29-3.138 16-11.93 16-22.266V127h33v8.5c0 10.336 6.71 19.128 16 22.266zM95.5 325.932C88.334 314.76 76.628 306.77 63 304.598V157.766c9.29-3.138 16-11.93 16-22.266V127h33v8.5c0 10.336 6.71 19.128 16 22.266v146.832c-13.628 2.17-25.334 10.162-32.5 21.334zM144 127v8.5c0 4.687-3.813 8.5-8.5 8.5s-8.5-3.813-8.5-8.5V127h17zm-97 0h17v8.5c0 4.687-3.813 8.5-8.5 8.5s-8.5-3.813-8.5-8.5V127zm8.5 257C37.58 384 23 369.42 23 351.5S37.58 319 55.5 319 88 333.58 88 351.5 73.42 384 55.5 384zm80 0c-17.92 0-32.5-14.58-32.5-32.5s14.58-32.5 32.5-32.5 32.5 14.58 32.5 32.5-14.58 32.5-32.5 32.5zM248 351.5c0 17.92-14.58 32.5-32.5 32.5S183 369.42 183 351.5s14.58-32.5 32.5-32.5 32.5 14.58 32.5 32.5zm-24-216c0 4.687-3.813 8.5-8.5 8.5s-8.5-3.813-8.5-8.5V127h17v8.5zm63 0V127h17v8.5c0 4.687-3.813 8.5-8.5 8.5s-8.5-3.813-8.5-8.5zM415.5 360c-17.92 0-32.5-14.58-32.5-32.5s14.58-32.5 32.5-32.5 32.5 14.58 32.5 32.5-14.58 32.5-32.5 32.5z"/><path d="M55.5 336c-4.142 0-7.5 3.358-7.5 7.5s3.358 7.5 7.5 7.5c.276 0 .5.224.5.5 0 4.142 3.358 7.5 7.5 7.5s7.5-3.358 7.5-7.5c0-8.547-6.953-15.5-15.5-15.5zM135.5 336c-4.142 0-7.5 3.358-7.5 7.5s3.358 7.5 7.5 7.5c.276 0 .5.224.5.5 0 4.142 3.358 7.5 7.5 7.5s7.5-3.358 7.5-7.5c0-8.547-6.953-15.5-15.5-15.5zM208 343.5c0 4.142 3.358 7.5 7.5 7.5.276 0 .5.224.5.5 0 4.142 3.358 7.5 7.5 7.5s7.5-3.358 7.5-7.5c0-8.547-6.953-15.5-15.5-15.5-4.142 0-7.5 3.358-7.5 7.5zM415.5 312c-4.142 0-7.5 3.358-7.5 7.5s3.358 7.5 7.5 7.5c.276 0 .5.224.5.5 0 4.142 3.358 7.5 7.5 7.5s7.5-3.358 7.5-7.5c0-8.547-6.953-15.5-15.5-15.5z"/></svg>