<svg xmlns="http://www.w3.org/2000/svg" viewBox="0 0 463 463"><path d="M455.5 420H447v-88.5c0-4.143-3.358-7.5-7.5-7.5H423v-72.5c0-38.537-11.453-74.444-31.118-104.518l14.437-14.436c2.645 1.958 5.825 3.033 9.178 3.034h.007c4.14 0 8.032-1.61 10.96-4.54l10.24-10.24c6.04-6.04 6.044-15.87.01-21.912l-52.595-52.68c-2.927-2.93-6.82-4.545-10.963-4.546h-.005c-4.14 0-8.033 1.61-10.96 4.54l-10.24 10.24c-5.503 5.502-5.98 14.14-1.462 20.204l-14.47 14.472c-9.55-6.245-19.684-11.668-30.31-16.15l8.663-23.104c1.454-3.878-.51-8.2-4.388-9.656C284.855 32.78 258.45 28 231.5 28c-59.7 0-115.825 23.248-158.038 65.462C31.248 135.675 8 191.802 8 251.5c0 4.143 3.358 7.5 7.5 7.5H40v65H23.5c-4.142 0-7.5 3.357-7.5 7.5V420H7.5c-4.142 0-7.5 3.357-7.5 7.5s3.358 7.5 7.5 7.5h448c4.142 0 7.5-3.357 7.5-7.5s-3.358-7.5-7.5-7.5zM408 324h-89v-72.5c0-76.582-19.55-141.32-48.563-172.163C349.087 97.115 408 167.553 408 251.5V324zm-249 0v-72.5c0-48.143 8.1-93.287 22.81-127.117C195.454 93 213.566 75 231.5 75s36.046 18 49.69 49.383C295.9 158.213 304 203.357 304 251.5V324H159zM362.557 67.05L372.8 56.81c.035-.038.145-.147.353-.147s.318.11.354.146l52.594 52.677c.196.195.196.512 0 .706l-10.242 10.242c-.036.037-.146.146-.353.146s-.317-.11-.354-.145l-52.594-52.678c-.194-.195-.194-.512 0-.707zm-1.596 20.338l34.625 34.68-12.524 12.522c-10.027-12.97-21.68-24.622-34.65-34.65l12.55-12.552zM231.5 43c22.628 0 44.845 3.61 66.148 10.744l-5.98 15.948C272.737 63.412 252.51 60 231.5 60 128.42 60 44.115 141.87 40.16 244H23.133C27.098 132.495 119.045 43 231.5 43zM55 251.5c0-83.947 58.912-154.385 137.563-172.163C163.55 110.18 144 174.917 144 251.5V324H55v-72.5zM432 339v17H31v-17h401zM31 371h401v49H255v-16.5c0-8.547-6.953-15.5-15.5-15.5h-16c-8.547 0-15.5 6.953-15.5 15.5V420H31v-49zm209 49h-17v-16.5c0-.275.224-.5.5-.5h16c.276 0 .5.225.5.5V420z"/><path d="M175.5 388h-16c-4.142 0-7.5 3.357-7.5 7.5s3.358 7.5 7.5 7.5h16c4.142 0 7.5-3.357 7.5-7.5s-3.358-7.5-7.5-7.5zM127.5 388h-16c-4.142 0-7.5 3.357-7.5 7.5s3.358 7.5 7.5 7.5h16c4.142 0 7.5-3.357 7.5-7.5s-3.358-7.5-7.5-7.5zM79.5 388h-16c-4.142 0-7.5 3.357-7.5 7.5s3.358 7.5 7.5 7.5h16c4.142 0 7.5-3.357 7.5-7.5s-3.358-7.5-7.5-7.5zM383.5 403h16c4.142 0 7.5-3.357 7.5-7.5s-3.358-7.5-7.5-7.5h-16c-4.142 0-7.5 3.357-7.5 7.5s3.358 7.5 7.5 7.5zM335.5 403h16c4.142 0 7.5-3.357 7.5-7.5s-3.358-7.5-7.5-7.5h-16c-4.142 0-7.5 3.357-7.5 7.5s3.358 7.5 7.5 7.5zM287.5 403h16c4.142 0 7.5-3.357 7.5-7.5s-3.358-7.5-7.5-7.5h-16c-4.142 0-7.5 3.357-7.5 7.5s3.358 7.5 7.5 7.5z"/></svg>