<svg xmlns="http://www.w3.org/2000/svg" viewBox="0 0 463 463"><path d="M287.5 184c-4.687 0-8.5-3.813-8.5-8.5v-128C279 21.31 257.69 0 231.5 0S184 21.31 184 47.5v128c0 4.687-3.813 8.5-8.5 8.5-4.142 0-7.5 3.358-7.5 7.5s3.358 7.5 7.5 7.5H192v192.5c0 10.337 6.708 19.136 16 22.273V439.5c0 12.958 10.542 23.5 23.5 23.5s23.5-10.542 23.5-23.5v-25.727c9.292-3.137 16-11.936 16-22.273V199h16.5c4.142 0 7.5-3.358 7.5-7.5s-3.358-7.5-7.5-7.5zm-88.5-8.5v-128c0-17.92 14.58-32.5 32.5-32.5S264 29.58 264 47.5v128c0 2.997.57 5.862 1.597 8.5h-68.195c1.028-2.638 1.598-5.503 1.598-8.5zM247.5 400c-4.142 0-7.5 3.358-7.5 7.5v32c0 4.687-3.813 8.5-8.5 8.5s-8.5-3.813-8.5-8.5v-32c0-4.142-3.358-7.5-7.5-7.5-4.687 0-8.5-3.813-8.5-8.5V351h49v40.5c0 4.687-3.813 8.5-8.5 8.5zm8.5-64h-49V199h49v137z"/><path d="M239.5 167c4.142 0 7.5-3.358 7.5-7.5v-64c0-4.142-3.358-7.5-7.5-7.5s-7.5 3.358-7.5 7.5v64c0 4.142 3.358 7.5 7.5 7.5zM239.5 71c4.142 0 7.5-3.358 7.5-7.5v-16c0-4.142-3.358-7.5-7.5-7.5s-7.5 3.358-7.5 7.5v16c0 4.142 3.358 7.5 7.5 7.5z"/></svg>