<svg xmlns="http://www.w3.org/2000/svg" viewBox="0 0 463 463"><path d="M324.19 20c-34.545 0-67.18 12.548-92.69 35.49C205.99 32.547 173.354 20 138.81 20 62.27 20 0 82.27 0 158.81c0 48.387 26.262 106.055 73.95 162.382 43.865 51.814 100.14 95.958 154.395 121.113 1 .464 2.078.696 3.155.696s2.154-.23 3.155-.695c54.254-25.154 110.53-69.298 154.396-121.113C436.74 264.864 463 207.196 463 158.812 463 82.27 400.73 20 324.19 20zM138.81 35c32.985 0 64.023 12.83 87.396 36.126 2.927 2.917 7.662 2.917 10.59 0C260.165 47.83 291.205 35 324.188 35 392.46 35 448 90.54 448 158.81c0 16.612-3.44 34.512-10.066 53.19H343.5c-3.516 0-6.56 2.44-7.322 5.873l-8.89 39.997-24.49-104.087c-.794-3.37-3.79-5.758-7.25-5.782h-.052c-3.44 0-6.44 2.342-7.276 5.682L273.644 212H183.5c-3.515 0-6.56 2.44-7.32 5.873l-8.89 39.994-24.49-104.084c-.792-3.37-3.787-5.758-7.248-5.782h-.053c-3.44 0-6.44 2.34-7.276 5.682L113.644 212H25.066C18.44 193.322 15 175.42 15 158.81 15 90.54 70.54 35 138.81 35zm238.793 276.5c-41.03 48.465-95.413 91.497-146.103 115.71-50.69-24.213-105.07-67.245-146.103-115.71-24.124-28.496-42.488-57.162-54.402-84.5H119.5c3.44 0 6.44-2.342 7.276-5.68l8.503-34.014 24.92 105.912c.797 3.39 3.82 5.782 7.3 5.782h.046c3.498-.022 6.516-2.458 7.275-5.873L189.518 227H279.5c3.44 0 6.44-2.342 7.276-5.68l8.5-34.01 24.92 105.908c.797 3.39 3.82 5.782 7.3 5.782h.046c3.498-.022 6.516-2.458 7.275-5.873L349.515 227h82.49c-11.914 27.338-30.278 56.004-54.402 84.5z"/></svg>