<svg xmlns="http://www.w3.org/2000/svg" viewBox="0 0 463 463"><path d="M316.23 168.516c-3.858-1.505-8.21.4-9.715 4.258-1.993 5.103-4.527 10.026-7.53 14.632-2.262 3.47-1.283 8.117 2.187 10.38 1.264.823 2.685 1.218 4.09 1.218 2.45 0 4.85-1.2 6.29-3.404 3.562-5.466 6.57-11.31 8.936-17.368 1.506-3.86-.4-8.21-4.26-9.716zM277.787 209.37C264.195 218.94 248.19 224 231.5 224c-11.723 0-23.023-2.462-33.584-7.316-3.764-1.73-8.217-.08-9.947 3.682-1.73 3.764-.083 8.218 3.68 9.947C204.19 236.077 217.6 239 231.5 239c19.797 0 38.79-6.005 54.922-17.365 3.387-2.385 4.2-7.063 1.814-10.45s-7.062-4.2-10.45-1.814z"/><path d="M351.5 136h-20.893l-90.6-90.6C248.77 41.984 255 33.458 255 23.5 255 10.542 244.458 0 231.5 0S208 10.542 208 23.5c0 9.958 6.23 18.484 14.993 21.9l-90.6 90.6H111.5c-4.142 0-7.5 3.357-7.5 7.5 0 30.74 11.108 60.417 31.28 83.563 17.65 20.253 41.184 34.37 67.1 40.44-1.53 3.7-2.38 7.75-2.38 11.996 0 7.934 2.955 15.187 7.815 20.732L185.367 416H167.5c-12.958 0-23.5 10.542-23.5 23.5v16c0 4.143 3.358 7.5 7.5 7.5h160c4.142 0 7.5-3.357 7.5-7.5v-16c0-12.958-10.542-23.5-23.5-23.5h-17.784l-22.53-115.768c4.86-5.545 7.814-12.798 7.814-20.732 0-4.246-.85-8.296-2.38-11.996 25.912-6.07 49.445-20.184 67.095-40.433C347.89 203.925 359 174.245 359 143.5c0-4.143-3.358-7.5-7.5-7.5zm-42.107 0H239V65.607L309.393 136zM231.5 15c4.687 0 8.5 3.813 8.5 8.5s-3.813 8.5-8.5 8.5-8.5-3.813-8.5-8.5 3.813-8.5 8.5-8.5zM224 65.607V136h-70.393L224 65.607zM248 279.5c0 9.098-7.402 16.5-16.5 16.5s-16.5-7.402-16.5-16.5 7.402-16.5 16.5-16.5 16.5 7.402 16.5 16.5zm56 160v8.5H159v-8.5c0-4.687 3.813-8.5 8.5-8.5h128c4.687 0 8.5 3.813 8.5 8.5zM200.646 416l20.69-106.693c3.19 1.092 6.608 1.693 10.164 1.693 3.56 0 6.977-.602 10.17-1.694L262.435 416h-61.79zm115.76-198.785c-17.125 19.648-40.523 32.73-66.078 37.046-5.256-3.93-11.775-6.26-18.828-6.26-7.053 0-13.573 2.33-18.83 6.262-25.556-4.32-48.957-17.402-66.082-37.053-16.144-18.526-25.707-41.797-27.337-66.21h224.5c-1.632 24.416-11.196 47.688-27.344 66.215z"/></svg>