<svg xmlns="http://www.w3.org/2000/svg" viewBox="0 0 461.806 461.806"><path d="M230.903 257.272c26.19 0 47.5-21.31 47.5-47.5s-21.31-47.5-47.5-47.5-47.5 21.31-47.5 47.5 21.31 47.5 47.5 47.5zm0-80c17.92 0 32.5 14.58 32.5 32.5s-14.58 32.5-32.5 32.5-32.5-14.58-32.5-32.5 14.58-32.5 32.5-32.5zM167.388 198.494c2.41-13.633 9.37-26.378 19.597-35.89 8.165-7.59 9.63-20.04 3.484-29.6L125.13 31.367c-3.544-5.513-9.284-9.33-15.747-10.476-6.41-1.136-13.057.46-18.224 4.378C38.234 65.407 5.03 126.238.065 192.16c-.482 6.408 1.764 12.803 6.163 17.547 4.46 4.808 10.772 7.564 17.32 7.564h120.83c11.41.002 21.088-7.896 23.01-18.776zm-150.162 1.012c-1.594-1.718-2.376-3.927-2.204-6.218 4.643-61.64 35.698-118.524 85.204-156.066 1.467-1.112 3.21-1.693 5.024-1.693.503 0 1.01.043 1.52.134 2.395.424 4.436 1.78 5.745 3.816l65.337 101.636c2.18 3.39 1.714 7.906-1.082 10.506-12.6 11.718-21.178 27.437-24.153 44.262-.644 3.643-4.185 6.39-8.237 6.39H23.55c-2.39-.002-4.695-1.01-6.324-2.768zM461.742 192.16c-4.965-65.923-38.17-126.753-91.097-166.89-5.167-3.918-11.807-5.514-18.224-4.378-6.462 1.145-12.202 4.963-15.746 10.476l-65.337 101.636c-6.146 9.56-4.68 22.01 3.484 29.602 10.228 9.51 17.188 22.256 19.598 35.89 1.923 10.88 11.6 18.776 23.01 18.776h120.83c6.548 0 12.86-2.757 17.32-7.564 4.4-4.745 6.647-11.14 6.164-17.547zm-17.16 7.346c-1.63 1.758-3.936 2.766-6.324 2.766h-120.83c-4.053 0-7.594-2.746-8.237-6.39-2.975-16.824-11.552-32.543-24.152-44.26-2.796-2.6-3.26-7.117-1.082-10.507L349.292 39.48c1.31-2.037 3.35-3.393 5.746-3.816 2.344-.417 4.67.14 6.543 1.56 49.507 37.54 80.563 94.425 85.205 156.065.172 2.29-.61 4.498-2.204 6.216zM283.967 278.446c-6.145-9.56-18.12-13.375-28.468-9.074-7.82 3.252-16.096 4.9-24.597 4.9s-16.776-1.648-24.597-4.9c-10.346-4.3-22.32-.487-28.467 9.074l-65.35 101.656c-3.542 5.508-4.638 12.31-3.006 18.658 1.614 6.28 5.792 11.642 11.46 14.71 33.594 18.19 71.616 27.802 109.958 27.802s76.364-9.613 109.957-27.8c5.668-3.07 9.846-8.433 11.46-14.712 1.632-6.35.536-13.15-3.005-18.658l-65.348-101.656zm53.826 116.58c-.587 2.284-2.033 4.15-4.074 5.254-31.407 17.004-66.96 25.992-102.816 25.992s-71.41-8.988-102.816-25.992c-2.04-1.104-3.486-2.97-4.073-5.254-.605-2.354-.217-4.773 1.094-6.813l65.35-101.656c1.615-2.513 4.312-3.94 7.063-3.94 1.02 0 2.045.196 3.026.605 9.653 4.015 19.866 6.05 30.354 6.05s20.7-2.035 30.354-6.05c3.635-1.508 7.878-.107 10.092 3.336l65.35 101.656c1.31 2.038 1.698 4.457 1.093 6.812z"/><path d="M107.953 63.823c-2.24-3.485-6.882-4.494-10.364-2.253-3.485 2.24-4.494 6.88-2.254 10.364l14.067 21.883c1.433 2.23 3.85 3.445 6.315 3.445 1.39 0 2.794-.386 4.05-1.192 3.483-2.24 4.492-6.88 2.252-10.364l-14.067-21.883zM150.514 151.388c1.39 0 2.794-.386 4.05-1.192 3.483-2.24 4.492-6.88 2.252-10.364l-15.59-24.253c-2.24-3.486-6.882-4.495-10.365-2.254-3.483 2.24-4.492 6.88-2.252 10.364l15.59 24.253c1.433 2.23 3.85 3.445 6.316 3.445zM398.556 101.703c-2.247-3.48-6.89-4.475-10.37-2.23-3.478 2.247-4.478 6.89-2.23 10.37 13.67 21.162 22.716 44.437 26.89 69.177.62 3.662 3.794 6.253 7.388 6.253.414 0 .834-.034 1.257-.105 4.085-.69 6.838-4.56 6.148-8.644-4.517-26.76-14.3-51.934-29.082-74.82zM365.214 62.334c-3.06-2.788-7.804-2.57-10.596.492-2.79 3.062-2.57 7.806.492 10.596 4.624 4.213 9.078 8.706 13.24 13.354 1.48 1.654 3.53 2.497 5.59 2.497 1.78 0 3.568-.63 5-1.912 3.086-2.763 3.348-7.504.585-10.59-4.5-5.025-9.313-9.88-14.31-14.436zM263.805 306.26c-2.24-3.486-6.88-4.494-10.364-2.254-3.483 2.24-4.492 6.88-2.252 10.364l12.52 19.475c1.433 2.23 3.85 3.445 6.315 3.445 1.39 0 2.794-.386 4.05-1.192 3.483-2.24 4.492-6.88 2.252-10.364l-12.52-19.475zM293.207 351.996c-2.24-3.485-6.882-4.493-10.364-2.253-3.484 2.24-4.493 6.88-2.253 10.364l19.457 30.267c1.433 2.23 3.85 3.445 6.315 3.445 1.39 0 2.794-.387 4.05-1.193 3.483-2.24 4.492-6.88 2.252-10.364l-19.457-30.267z"/></svg>