<svg xmlns="http://www.w3.org/2000/svg" viewBox="0 0 463.001 463.001"><path d="M151.5 263c4.142 0 7.5-3.357 7.5-7.5v-16c0-4.143-3.358-7.5-7.5-7.5s-7.5 3.357-7.5 7.5v16c0 4.143 3.358 7.5 7.5 7.5zM311.5 263c4.142 0 7.5-3.357 7.5-7.5v-16c0-4.143-3.358-7.5-7.5-7.5s-7.5 3.357-7.5 7.5v16c0 4.143 3.358 7.5 7.5 7.5z"/><path d="M456.188 360.032c-20.397-1.878-38.012-3.04-54.814-3.035.91-1.83 1.788-3.68 2.605-5.57 13.477-31.148 13.907-70.783 1.242-114.618-7.09-24.544-16.3-43.824-20.687-52.323 24.444-28.946 41.484-59.09 49.39-87.44 7.277-26.094 6.728-50.478-1.548-68.66C424.167 10.346 409.27 0 391.5 0c-34.502 0-57.128 23.003-77.09 43.298C299.26 58.7 286.176 72 271.5 72h-80c-14.677 0-27.76-13.3-42.91-28.702C128.63 23.003 106.004 0 71.5 0 53.732 0 38.832 10.346 30.623 28.384c-8.275 18.184-8.825 42.567-1.548 68.66 7.906 28.35 24.946 58.495 49.39 87.44-4.386 8.5-13.596 27.78-20.687 52.323-12.665 43.835-12.234 83.47 1.243 114.618.818 1.89 1.696 3.74 2.606 5.57-16.802-.005-34.417 1.157-54.814 3.036-4.125.38-7.16 4.033-6.78 8.157.38 4.125 4.034 7.168 8.156 6.78 23.95-2.206 43.576-3.41 62.433-2.893 5.956 8.41 13.09 16.052 21.385 22.92-20.995 8.694-41.196 22.194-57.87 39.265-2.895 2.962-2.838 7.71.125 10.604C35.72 446.29 37.61 447 39.5 447c1.95 0 3.896-.755 5.366-2.26 17.653-18.073 39.507-31.75 61.685-39.255 15.52 9.778 34.076 17.496 55.62 23.096C176.244 449.86 202.6 463 231.5 463c29.11 0 55.268-13.095 69.33-34.418 21.545-5.6 40.102-13.32 55.62-23.097 22.177 7.505 44.032 21.18 61.685 39.255 1.47 1.505 3.417 2.26 5.366 2.26 1.89 0 3.782-.71 5.24-2.135 2.964-2.895 3.02-7.643.126-10.605-16.674-17.07-36.876-30.57-57.87-39.266 8.296-6.866 15.43-14.51 21.384-22.92 18.857-.517 38.483.688 62.433 2.895 4.13.387 7.776-2.657 8.156-6.782.38-4.124-2.657-7.777-6.782-8.156zm-383.38-14.514c-29.415-67.887 20.7-157.41 21.208-158.304 1.58-2.77 1.233-6.235-.86-8.64C37.69 114.9 32.16 61.22 44.275 34.598 50.025 21.96 59.695 15 71.5 15c19.273 0 34.437 9.21 48.095 21.127.122.17.246.337.384.498 13.024 15.233 16.95 34.548 11.672 57.406-1.2 5.19-2.793 10.203-4.615 14.957-7.794-12.152-21.79-19.754-30.546-20.92-4.108-.55-7.877 2.337-8.424 6.442-.547 4.105 2.337 7.877 6.443 8.425 7.098.946 23.24 11.303 23.24 24.815 0 .234.014.465.035.694-4.756 8.382-9.428 14.85-12.224 18.476-2.528 3.28-1.92 7.99 1.36 10.52 1.365 1.052 2.976 1.56 4.575 1.56 2.246 0 4.467-1.003 5.945-2.92 6.558-8.504 22.494-31.245 28.828-58.673 2.714-11.752 3.306-22.953 1.833-33.4C161.363 76.783 174.814 87 191.5 87h80c16.688 0 30.14-10.218 43.4-22.993-1.474 10.447-.882 21.648 1.832 33.4 6.334 27.428 22.27 50.17 28.828 58.674 1.478 1.917 3.7 2.92 5.945 2.92 1.6 0 3.21-.508 4.574-1.56 3.28-2.53 3.888-7.24 1.36-10.52-2.797-3.626-7.47-10.094-12.225-18.476.02-.23.035-.46.035-.694 0-13.513 16.142-23.87 23.24-24.815 4.106-.548 6.99-4.32 6.444-8.426-.547-4.106-4.315-6.994-8.425-6.444-8.758 1.168-22.754 8.77-30.547 20.92-1.822-4.753-3.416-9.764-4.615-14.955-5.28-22.857-1.352-42.172 11.673-57.405.14-.16.263-.33.385-.498C357.065 24.21 372.227 15 391.5 15c11.805 0 21.473 6.96 27.225 19.598 12.116 26.622 6.584 80.303-48.88 143.977-2.094 2.404-2.44 5.87-.86 8.64.51.895 50.65 90.255 21.228 158.256-1.797 4.155-3.866 8.147-6.193 11.982-20.856 1.11-41.507 4.354-65.926 10.67-2.08-4.63-5.036-9.213-9.02-13.638-2.77-3.08-7.513-3.327-10.59-.558-3.08 2.77-3.33 7.514-.56 10.593 14.448 16.05 9.805 34.58-1.206 45.822-17.005 17.364-39.62 14.097-55.533 3.168C258.02 408.313 271 390.504 271 375.5c0-17.37-17.72-31.5-39.5-31.5S192 358.13 192 375.5c0 15.004 12.98 32.813 29.815 38.01-15.912 10.927-38.527 14.195-55.533-3.17-11.01-11.24-15.654-29.77-1.207-45.822 2.77-3.08 2.52-7.82-.558-10.593-3.08-2.77-7.82-2.52-10.592.558-3.983 4.426-6.94 9.01-9.02 13.637-24.418-6.315-45.068-9.558-65.925-10.67-2.317-3.82-4.38-7.796-6.172-11.932zM231.5 400c-13.288 0-24.5-15.05-24.5-24.5 0-8.944 11.22-16.5 24.5-16.5s24.5 7.556 24.5 16.5c0 9.452-11.212 24.5-24.5 24.5zM90.988 373.354c15.665 1.56 31.693 4.51 50.142 9.28-.04.47-.08.938-.104 1.405-10.45.236-21.238 1.965-32.013 5.02-6.757-4.764-12.765-10.004-18.025-15.706zm51.79 25.658c.898 3.135 2.117 6.15 3.583 9.015-6.53-2.356-12.686-4.958-18.456-7.808 5.02-.765 9.993-1.17 14.873-1.208zm50.04 38.515c.834.038 1.668.072 2.5.072 12.59 0 24.945-4.285 36.182-12.522 11.237 8.236 23.59 12.52 36.18 12.52.78 0 1.563-.033 2.345-.066C259.067 444.182 245.6 448 231.5 448c-14.283 0-27.744-3.78-38.683-10.473zm123.823-29.5c1.467-2.864 2.685-5.88 3.585-9.015 4.88.037 9.85.443 14.873 1.207-5.77 2.85-11.927 5.45-18.457 7.807zm37.347-18.965c-10.775-3.057-21.563-4.785-32.013-5.022-.024-.467-.064-.936-.104-1.404 18.45-4.77 34.477-7.72 50.142-9.28-5.26 5.7-11.268 10.94-18.025 15.706z"/></svg>