<svg xmlns="http://www.w3.org/2000/svg" viewBox="0 0 463 463"><path d="M367.5 32h-57.734c-3.138-9.29-11.93-16-22.266-16h-24.416c-7.41-9.965-19.148-16-31.584-16-12.435 0-24.174 6.035-31.585 16H175.5c-10.336 0-19.128 6.71-22.266 16H95.5C78.13 32 64 46.13 64 63.5v368c0 17.37 14.13 31.5 31.5 31.5h272c17.37 0 31.5-14.13 31.5-31.5v-368c0-17.37-14.13-31.5-31.5-31.5zm-192 55h112c7.023 0 13.332-3.1 17.64-8H352v337H111V79h46.86c4.308 4.9 10.617 8 17.64 8zm0-56h28.438c2.67 0 5.14-1.42 6.482-3.727C214.893 19.588 222.773 15 231.5 15c8.728 0 16.607 4.588 21.08 12.272C253.92 29.58 256.39 31 259.06 31h28.44c4.687 0 8.5 3.813 8.5 8.5v24c0 4.687-3.813 8.5-8.5 8.5h-112c-4.687 0-8.5-3.813-8.5-8.5v-24c0-4.687 3.813-8.5 8.5-8.5zM384 431.5c0 9.098-7.402 16.5-16.5 16.5h-272c-9.098 0-16.5-7.402-16.5-16.5v-368C79 54.402 86.402 47 95.5 47H152v16.5c0 .168.01.333.013.5H103.5c-4.143 0-7.5 3.358-7.5 7.5v352c0 4.142 3.357 7.5 7.5 7.5h256c4.143 0 7.5-3.358 7.5-7.5v-352c0-4.142-3.357-7.5-7.5-7.5h-48.513c.004-.167.013-.332.013-.5V47h56.5c9.098 0 16.5 7.402 16.5 16.5v368z"/><path d="M231.5 47c1.98 0 3.91-.8 5.3-2.2 1.4-1.39 2.2-3.33 2.2-5.3 0-1.97-.8-3.91-2.2-5.3-1.39-1.4-3.32-2.2-5.3-2.2s-3.91.8-5.3 2.2c-1.4 1.39-2.2 3.32-2.2 5.3s.8 3.91 2.2 5.3c1.39 1.4 3.32 2.2 5.3 2.2zM183.5 159h136c4.143 0 7.5-3.358 7.5-7.5s-3.357-7.5-7.5-7.5h-136c-4.143 0-7.5 3.358-7.5 7.5s3.357 7.5 7.5 7.5zM183.5 239h136c4.143 0 7.5-3.358 7.5-7.5s-3.357-7.5-7.5-7.5h-136c-4.143 0-7.5 3.358-7.5 7.5s3.357 7.5 7.5 7.5zM183.5 319h24c4.143 0 7.5-3.358 7.5-7.5s-3.357-7.5-7.5-7.5h-24c-4.143 0-7.5 3.358-7.5 7.5s3.357 7.5 7.5 7.5zM183.5 199h136c4.143 0 7.5-3.358 7.5-7.5s-3.357-7.5-7.5-7.5h-136c-4.143 0-7.5 3.358-7.5 7.5s3.357 7.5 7.5 7.5zM183.5 279h32c4.143 0 7.5-3.358 7.5-7.5s-3.357-7.5-7.5-7.5h-32c-4.143 0-7.5 3.358-7.5 7.5s3.357 7.5 7.5 7.5zM183.5 359h32c4.143 0 7.5-3.358 7.5-7.5s-3.357-7.5-7.5-7.5h-32c-4.143 0-7.5 3.358-7.5 7.5s3.357 7.5 7.5 7.5zM143.5 159h8c4.143 0 7.5-3.358 7.5-7.5s-3.357-7.5-7.5-7.5h-8c-4.143 0-7.5 3.358-7.5 7.5s3.357 7.5 7.5 7.5zM143.5 239h8c4.143 0 7.5-3.358 7.5-7.5s-3.357-7.5-7.5-7.5h-8c-4.143 0-7.5 3.358-7.5 7.5s3.357 7.5 7.5 7.5zM143.5 319h8c4.143 0 7.5-3.358 7.5-7.5s-3.357-7.5-7.5-7.5h-8c-4.143 0-7.5 3.358-7.5 7.5s3.357 7.5 7.5 7.5zM143.5 199h8c4.143 0 7.5-3.358 7.5-7.5s-3.357-7.5-7.5-7.5h-8c-4.143 0-7.5 3.358-7.5 7.5s3.357 7.5 7.5 7.5zM143.5 279h8c4.143 0 7.5-3.358 7.5-7.5s-3.357-7.5-7.5-7.5h-8c-4.143 0-7.5 3.358-7.5 7.5s3.357 7.5 7.5 7.5zM143.5 359h8c4.143 0 7.5-3.358 7.5-7.5s-3.357-7.5-7.5-7.5h-8c-4.143 0-7.5 3.358-7.5 7.5s3.357 7.5 7.5 7.5zM279.5 264c-26.19 0-47.5 21.31-47.5 47.5s21.31 47.5 47.5 47.5c10.583 0 20.367-3.482 28.272-9.357.074-.052.155-.088.228-.143.2-.15.39-.31.57-.474 11.2-8.697 18.43-22.28 18.43-37.526 0-26.19-21.31-47.5-47.5-47.5zm-7.5 15.883V304h-24.117c2.825-11.906 12.21-21.292 24.117-24.117zM247.883 319h27.867l16.72 22.292c-3.977 1.737-8.36 2.708-12.97 2.708-15.34 0-28.22-10.685-31.617-25zm56.58 13.284L287 309v-29.117c14.315 3.396 25 16.278 25 31.617 0 7.898-2.835 15.146-7.537 20.784z"/></svg>