<svg xmlns="http://www.w3.org/2000/svg" viewBox="0 0 463 463"><path d="M231.5 264c-1.98 0-3.91.8-5.3 2.2-1.4 1.39-2.2 3.32-2.2 5.3s.8 3.91 2.2 5.3c1.39 1.4 3.33 2.2 5.3 2.2s3.9-.8 5.3-2.2 2.2-3.33 2.2-5.3c0-1.97-.8-3.91-2.2-5.3-1.39-1.4-3.33-2.2-5.3-2.2zM199.5 264c-1.98 0-3.91.8-5.3 2.2-1.4 1.39-2.2 3.32-2.2 5.3s.8 3.91 2.2 5.3c1.39 1.4 3.33 2.2 5.3 2.2s3.9-.8 5.3-2.2c1.4-1.39 2.2-3.32 2.2-5.3s-.8-3.91-2.2-5.3c-1.39-1.4-3.33-2.2-5.3-2.2zM268.8 266.2c-1.39-1.4-3.32-2.2-5.3-2.2s-3.91.8-5.3 2.2c-1.4 1.39-2.2 3.32-2.2 5.3s.8 3.91 2.2 5.3c1.39 1.4 3.33 2.2 5.3 2.2s3.91-.8 5.3-2.2c1.4-1.39 2.2-3.33 2.2-5.3 0-1.97-.8-3.91-2.2-5.3z"/><path d="M439.5 144h-80c-12.958 0-23.5 10.542-23.5 23.5V216h-25v-32.5c0-4.143-3.357-7.5-7.5-7.5H295v-22.5c0-3.102-1.5-5.853-3.808-7.588C313.442 128.01 327 100.677 327 71.5c0-4.143-3.357-7.5-7.5-7.5h-44.893L239 28.393V7.5c0-4.143-3.357-7.5-7.5-7.5S224 3.357 224 7.5v20.893L188.393 64H143.5c-4.143 0-7.5 3.357-7.5 7.5 0 29.24 13.538 56.535 35.796 74.42-2.3 1.736-3.796 4.483-3.796 7.58V176h-8.5c-4.143 0-7.5 3.357-7.5 7.5V216h-25v-48.5c0-12.958-10.542-23.5-23.5-23.5h-80C10.542 144 0 154.542 0 167.5v160C0 340.458 10.542 351 23.5 351h80c12.958 0 23.5-10.542 23.5-23.5V279h25v64.5c0 17.37 14.13 31.5 31.5 31.5h.5v56.5c0 17.37 14.13 31.5 31.5 31.5h32c17.37 0 31.5-14.13 31.5-31.5V375h.5c17.37 0 31.5-14.13 31.5-31.5V279h25v48.5c0 12.958 10.542 23.5 23.5 23.5h80c12.958 0 23.5-10.542 23.5-23.5v-160c0-12.958-10.542-23.5-23.5-23.5zM392 240h-41v-33h41v33zm15-33h41v33h-41v-33zm-56 48h41v33h-41v-33zm56 0h41v33h-41v-33zm41-87.5V192h-41v-33h32.5c4.687 0 8.5 3.813 8.5 8.5zm-88.5-8.5H392v33h-41v-24.5c0-4.687 3.813-8.5 8.5-8.5zM167 255h129v33H167v-33zm64.5-212.893L253.393 64h-43.785L231.5 42.107zM151.354 79h160.29c-2.64 27.82-19.824 52.726-45.332 65h-69.62c-25.535-12.283-42.705-37.133-45.338-65zM183 159h11.953l.037.002.027-.002H280v17h-97v-17zm-16 32h129v49H167v-49zm-55 49H71v-33h41v33zm-56 0H15v-33h41v33zm-41 15h41v33H15v-33zm56 0h41v33H71v-33zm41-87.5V192H71v-33h32.5c4.687 0 8.5 3.813 8.5 8.5zM23.5 159H56v33H15v-24.5c0-4.687 3.813-8.5 8.5-8.5zM15 327.5V303h41v33H23.5c-4.687 0-8.5-3.813-8.5-8.5zm88.5 8.5H71v-33h41v24.5c0 4.687-3.813 8.5-8.5 8.5zm23.5-72v-33h25v33h-25zm120.5 184h-32c-9.098 0-16.5-7.402-16.5-16.5V407h65v24.5c0 9.098-7.402 16.5-16.5 16.5zm16.5-56h-65v-17h65v17zm15.5-32h-96c-9.098 0-16.5-7.402-16.5-16.5V303h129v40.5c0 9.098-7.402 16.5-16.5 16.5zm31.5-96v-33h25v33h-25zm40 63.5V303h41v33h-32.5c-4.687 0-8.5-3.813-8.5-8.5zm88.5 8.5H407v-33h41v24.5c0 4.687-3.813 8.5-8.5 8.5z"/></svg>