<svg xmlns="http://www.w3.org/2000/svg" viewBox="0 0 463 463"><path d="M460.387 136.676c-8.356-20.176-34.258-26.56-54.514-28.36-26.138-2.324-60.227 1.072-98.59 9.825-.378.087-.737.21-1.087.346C284.008 103.78 258.226 96 231.46 96c-65.41 0-120.145 46.59-132.762 108.328-72.986 45.64-108.924 91.193-96.164 121.996 7.946 19.186 32.36 29.1 71.13 29.098 6.98 0 14.434-.322 22.332-.97 18.778-1.537 39.28-4.885 60.85-9.856C179.008 359.246 204.756 367 231.46 367c64.423 0 119.957-45.44 132.76-108.307 18.756-11.73 35.61-23.855 49.97-36.04 39.6-33.606 55.575-63.337 46.197-85.977zM231.46 111c24.476 0 48.033 7.293 68.126 21.092 18.82 12.924 33.444 30.697 42.465 51.517-1.355 2.008-7.335 9.015-31.1 22.767-20.04 11.597-46.647 24.433-74.924 36.146-28.275 11.712-56.167 21.45-78.536 27.42-26.586 7.094-35.75 6.35-38.106 5.89-5.584-14.103-8.423-29.012-8.423-44.332 0-66.444 54.056-120.5 120.5-120.5zm0 241c-18.84 0-37.14-4.345-53.737-12.634 27.787-7.503 56.93-17.47 86.164-29.58 29.25-12.117 56.92-25.684 81.886-40.035C329.6 318.245 283.83 352 231.46 352zm173.024-140.783c-35.77 30.354-87.74 60.438-146.337 84.71C199.55 320.2 141.53 335.676 94.772 339.504c-42.724 3.5-72.023-3.575-78.38-18.92-7.352-17.747 14.84-54.048 79.794-96.824-.145 2.562-.226 5.14-.226 7.74 0 2.955.102 5.895.29 8.82-27.98 19.506-58.195 46.508-49.432 67.66 3.244 7.834 11.042 13.032 23.177 15.45.495.1.987.146 1.474.146 3.503 0 6.636-2.468 7.347-6.035.81-4.062-1.827-8.01-5.89-8.82-6.725-1.34-11.075-3.64-12.25-6.48-1.527-3.686 1.48-10.607 8.047-18.517 6.6-7.95 16.762-17.01 29.673-26.494 1.648 8.568 4.125 16.958 7.425 25.106.235.58.55 1.1.902 1.586 2.333 4.83 7.54 7.223 16.588 7.222 7.64 0 18.018-1.704 31.692-5.077 24.065-5.938 54.877-16.48 86.76-29.688 31.885-13.207 61.128-27.54 82.344-40.358 20.775-12.552 31.1-21.678 32.936-29.56.763-1.776.846-3.843.064-5.776-3.59-8.868-8.087-17.257-13.38-25.082 15.79-2.415 29.347-3.195 39.625-2.26 10.296.942 17.357 3.714 18.89 7.414 1.564 3.774-1.398 12.44-14.402 25.438-2.928 2.93-2.93 7.678 0 10.607 1.464 1.465 3.384 2.197 5.304 2.197 1.92 0 3.838-.73 5.303-2.195 16.407-16.4 22.348-30.46 17.655-41.787-8.752-21.133-49.126-18.898-82.78-12.893-3.64-4.14-7.54-8.058-11.68-11.744 66.586-13.612 116.16-9.036 124.888 12.035 6.355 15.346-9.363 41.065-42.046 68.802z"/><path d="M315.85 236.302c-21.203 11.63-44.355 22.666-68.815 32.798-53.976 22.356-106.54 37.043-144.22 40.294-4.126.356-7.183 3.99-6.827 8.117.338 3.91 3.613 6.856 7.464 6.856.216 0 .435-.01.653-.027 39.146-3.38 93.334-18.462 148.67-41.383 24.962-10.34 48.61-21.612 70.29-33.505 3.63-1.992 4.96-6.55 2.968-10.183-1.992-3.63-6.55-4.962-10.183-2.968zM363.06 206.846c-4.704 3.41-9.797 6.898-15.137 10.37-3.474 2.256-4.46 6.9-2.2 10.374 1.436 2.21 3.84 3.414 6.294 3.414 1.4 0 2.818-.393 4.08-1.213 5.553-3.607 10.856-7.24 15.766-10.8 3.354-2.43 4.103-7.12 1.67-10.474-2.43-3.355-7.123-4.1-10.473-1.67zM199.458 148.465c.83 0 1.672-.14 2.5-.43 4.78-1.69 9.74-2.973 14.743-3.812 4.086-.686 6.842-4.553 6.156-8.638-.685-4.085-4.557-6.84-8.638-6.155-5.854.982-11.662 2.483-17.26 4.46-3.905 1.38-5.952 5.665-4.572 9.57 1.09 3.08 3.982 5.005 7.072 5.005zM246.218 144.223c19.878 3.335 38.213 13.545 51.628 28.75 1.482 1.68 3.55 2.537 5.627 2.537 1.763 0 3.533-.618 4.96-1.876 3.105-2.74 3.4-7.48.66-10.586-15.685-17.776-37.133-29.716-60.393-33.618-4.084-.684-7.952 2.07-8.638 6.155s2.07 7.953 6.156 8.638z"/></svg>