<svg xmlns="http://www.w3.org/2000/svg" viewBox="0 0 463 463"><path d="M398.9 325.62l-76.69-19.174c-.737-6.717-4.33-13.04-10.298-17.02l-6.636-4.422C328.396 260.158 343 223.864 343 183.5c0-7.383-.496-14.668-1.46-21.837 1.04-8.15 9.46-76.17 9.46-138.163 0-3.253-2.098-6.136-5.193-7.137C343.74 15.695 294.457 0 231.5 0c-14.523 0-50.23 2.388-74.907 24H153.8c-13.16 0-25.844 5.52-34.805 15.146-8.933 9.595-13.52 22.592-12.583 35.658 2.317 32.335 7.716 71.622 13.806 100.588-.13 2.69-.217 5.39-.217 8.107 0 40.364 14.606 76.657 37.725 101.502l-6.636 4.423c-5.97 3.98-9.562 10.303-10.3 17.02L64.1 325.618c-28.32 7.08-48.1 32.414-48.1 61.606V439.5c0 12.958 10.542 23.5 23.5 23.5h384c12.958 0 23.5-10.542 23.5-23.5v-52.276c0-29.192-19.78-54.525-48.1-61.605zm-56.742 44.484l-24.477 6.12c-2.206.55-4.043 2.074-4.994 4.142-.95 2.066-.912 4.453.106 6.488l14.496 28.99L314.468 448H262.18l-6.896-47.105C260.02 396.593 263 390.388 263 383.5v-4.744c3.63 2.957 7.4 6.3 11.232 10.082 1.415 1.396 3.312 2.162 5.268 2.162.4 0 .802-.032 1.203-.097 3.788-.615 5.043-3.116 6.495-6.013l31.88-63.766 9.785 2.446 13.295 46.534zM148.548 448l-12.835-32.155 14.495-28.99c1.018-2.035 1.057-4.422.106-6.488-.95-2.067-2.788-3.59-4.995-4.143l-24.478-6.12 13.295-46.532 9.786-2.446 31.88 63.765c1.452 2.897 2.707 5.398 6.495 6.014.4.064.803.097 1.203.097 1.957 0 3.854-.765 5.27-2.16 3.832-3.784 7.6-7.126 11.23-10.083v4.744c0 6.89 2.98 13.094 7.716 17.396L200.8 448h-52.252zM231.5 340.893l-25.46-25.46c8.18 2.33 16.703 3.567 25.46 3.567s17.28-1.237 25.46-3.568l-25.46 25.46zm-.002 18.595c3.033 1.208 8.95 3.84 16.502 8.53V383.5c0 4.687-3.813 8.5-8.5 8.5h-16c-4.687 0-8.5-3.813-8.5-8.5v-15.484c7.556-4.693 13.474-7.323 16.498-8.528zm-9.51 47.458c.5.032 1.003.054 1.512.054h16c.508 0 1.01-.022 1.51-.054L247.02 448h-31.06l6.027-41.054zm84.495-94.173c-15.983 31.986-24.677 49.376-29.2 58.413-12.863-11.31-24.586-18.25-32.628-22.235l51.8-51.8 7.135 4.757c3.56 2.373 4.803 7.044 2.893 10.866zM255 173.217c13.507-3.256 27.493-3.256 41 0v24.356c-13.508 3.256-27.492 3.256-41 0v-24.356zm50.706-12.885c-19.76-6.08-40.65-6.08-60.41 0-3.15.968-5.296 3.875-5.296 7.168v2.097c-2.638-1.027-5.503-1.597-8.5-1.597s-5.862.57-8.5 1.597V167.5c0-3.293-2.147-6.2-5.294-7.168-19.76-6.08-40.65-6.08-60.41 0-3.15.968-5.296 3.875-5.296 7.168v.5h-16.205c2.118-20.715 8.486-40.156 18.768-57.063 80.812-.275 138.57 6.682 163.546 19.68 4.705 11.936 7.737 24.454 9.082 37.384H311v-.5c0-3.293-2.147-6.2-5.294-7.168zM167 173.217c13.507-3.256 27.493-3.256 41 0v24.356c-13.508 3.256-27.492 3.256-41 0v-24.356zm-45.626-99.485c-.65-9.058 2.405-17.71 8.6-24.365C136.197 42.682 144.658 39 153.8 39h5.7c1.926 0 3.778-.74 5.172-2.07C185.456 17.138 218.332 15 231.5 15c49.03 0 90.336 10.174 104.477 14.108-.267 33.218-2.83 67.634-5.214 92.912-.65-1.318-1.656-2.43-2.933-3.173-18.64-10.838-64.556-23.608-177.466-22.89-2.517.016-4.858 1.293-6.233 3.4-6.778 10.39-12.174 21.687-16.137 33.635-2.926-19.814-5.29-40.698-6.62-59.26zM135.008 183H152v20.29c0 3.293 2.147 6.2 5.295 7.17 9.88 3.038 20.042 4.558 30.205 4.558s20.325-1.52 30.205-4.56c3.147-.968 5.295-3.875 5.295-7.168V191.5c0-4.687 3.813-8.5 8.5-8.5s8.5 3.813 8.5 8.5v11.79c0 3.293 2.147 6.2 5.295 7.17 9.88 3.038 20.042 4.558 30.205 4.558s20.325-1.52 30.205-4.56c3.147-.968 5.295-3.875 5.295-7.168V183h16.994c0 .167.006.333.006.5 0 66.444-43.29 120.5-96.5 120.5S135 249.944 135 183.5c0-.167.007-.333.008-.5zm24.4 118.907l7.137-4.757 51.8 51.8c-8.042 3.985-19.765 10.926-32.63 22.236-4.52-9.037-13.215-26.427-29.198-58.413-1.91-3.822-.666-8.493 2.892-10.866zM31 439.5v-52.276c0-22.296 15.107-41.645 36.737-47.052l49.6-12.4-13.048 45.668c-.56 1.954-.3 4.052.716 5.812s2.704 3.032 4.676 3.525l22.93 5.732-11.82 23.636c-.957 1.915-1.05 4.147-.257 6.135L132.397 448H39.5c-4.687 0-8.5-3.813-8.5-8.5zm401 0c0 4.687-3.813 8.5-8.5 8.5h-92.884l11.85-29.723c.793-1.987.7-4.218-.258-6.132l-11.818-23.637 22.93-5.732c1.97-.493 3.658-1.766 4.675-3.525s1.275-3.856.717-5.81l-13.048-45.67 49.6 12.4C416.894 345.58 432 364.928 432 387.224V439.5z"/></svg>