<svg xmlns="http://www.w3.org/2000/svg" viewBox="0 0 463 463"><path d="M381.454 332.115l-55.657-23.97c-.9-6.51-4.505-12.414-10.128-16.207C337.33 285.418 383 268.26 383 239.5c0-42.624-5.032-86.58-14.956-130.648-6.94-30.81-24.4-58.63-49.166-78.342C294.158 10.835 263.128 0 231.5 0s-62.658 10.835-87.378 30.51c-24.767 19.71-42.227 47.533-49.166 78.342C85.032 152.92 80 196.876 80 239.5c0 28.76 45.67 45.917 67.33 52.438-5.622 3.794-9.227 9.698-10.127 16.206l-55.657 23.97C61.166 340.895 48 360.9 48 383.09v56.41c0 12.958 10.542 23.5 23.5 23.5h320c12.958 0 23.5-10.542 23.5-23.5v-56.41c0-22.19-13.167-42.197-33.546-50.975zm-31.296 37.99l-24.477 6.118c-2.206.552-4.043 2.075-4.994 4.143-.95 2.066-.912 4.453.106 6.488l14.484 28.97L322.24 448h-42.59l6.532-78.373c6.324 3.25 13.54 7.285 21.3 12.207 1.222.774 2.618 1.166 4.018 1.166 1.12 0 2.243-.25 3.283-.757 3.712-1.808 4.07-4.98 4.385-7.782l5.6-50.426 13.942 6.005 11.448 40.064zM239 448v-60l27.153-27.527c1.538.606 3.394 1.363 5.548 2.293L264.6 448H239zm-40.6 0l-7.102-85.234c2.493-1.076 4.59-1.923 6.248-2.567L224 387.017V448h-25.6zm-57.882 0l-12.807-32.152 14.498-28.993c1.018-2.035 1.057-4.422.106-6.488-.95-2.067-2.788-3.59-4.995-4.143l-24.54-6.134 11.04-39.85 14.41-6.206 5.6 50.427c.316 2.802.674 5.976 4.386 7.783 1.04.506 2.163.757 3.283.757 1.4 0 2.795-.392 4.016-1.166 7.76-4.922 14.977-8.956 21.3-12.207L183.35 448h-42.832zm11.504-135.687c-.35-3.148 1.083-6.203 3.737-7.973l8.83-5.888 24.48 48.96c-7.013 2.863-18.095 7.87-31.425 15.59-1.176-10.564-3.108-27.977-5.616-50.617l-.01-.07c.002 0 .002 0 .002-.002zM255 173.217c13.507-3.256 27.493-3.256 41 0v24.356c-13.508 3.256-27.492 3.256-41 0v-24.356zm50.706-12.885c-19.76-6.08-40.65-6.08-60.41 0-3.15.968-5.296 3.875-5.296 7.168v2.097c-2.638-1.027-5.503-1.597-8.5-1.597s-5.862.57-8.5 1.597V167.5c0-3.293-2.147-6.2-5.294-7.168-19.76-6.08-40.65-6.08-60.41 0-3.15.968-5.296 3.875-5.296 7.168v.5h-16.203c2.073-20.275 8.215-39.33 18.116-55.982 35.422 16.438 122.862 33.463 170.074 37.873 1.435 6.018 2.476 12.066 3.142 18.11H311v-.5c0-3.293-2.147-6.2-5.294-7.168zM167 173.217c13.507-3.256 27.493-3.256 41 0v24.356c-13.508 3.256-27.492 3.256-41 0v-24.356zM135.008 183H152v20.29c0 3.293 2.147 6.2 5.295 7.17 9.88 3.038 20.042 4.558 30.205 4.558s20.325-1.52 30.205-4.56c3.147-.968 5.295-3.875 5.295-7.168V191.5c0-4.687 3.813-8.5 8.5-8.5s8.5 3.813 8.5 8.5v11.79c0 3.293 2.147 6.2 5.295 7.17 9.88 3.038 20.042 4.558 30.205 4.558s20.325-1.52 30.205-4.56c3.147-.968 5.295-3.875 5.295-7.168V183h16.992c0 .167.008.333.008.5 0 66.444-43.29 120.5-96.5 120.5S135 249.944 135 183.5c0-.167.007-.333.008-.5zm175.97 129.313v.005l-.008.067c-2.508 22.64-4.44 40.055-5.616 50.62-13.33-7.72-24.412-12.728-31.426-15.59l24.48-48.96 8.833 5.888c2.655 1.767 4.087 4.822 3.738 7.97zm-78.993 61.44l-26.31-26.67L185.636 307c13.996 7.707 29.526 12 45.865 12s31.868-4.293 45.865-12l-20.573 41.146c-.13.263-.244.533-.342.806l-24.465 24.802zM95 239.5c0-41.517 4.91-84.364 14.59-127.354 6.19-27.485 21.77-52.31 43.873-69.9C175.54 24.676 203.253 15 231.5 15s55.96 9.676 78.037 27.246c22.102 17.59 37.683 42.415 43.873 69.9C363.09 155.136 368 197.983 368 239.5c0 9.214-11.16 19.367-31.422 28.59-9 4.096-18.096 7.218-24.737 9.267C331.127 252.987 343 219.9 343 183.5c0-14.177-1.965-28.515-5.84-42.615-.84-3.05-3.5-5.245-6.654-5.49-64.764-5.014-151.348-26.94-173.55-38.592-1.087-.57-2.333-.844-3.522-.86l-3.07.015c-2.518.017-4.858 1.294-6.233 3.4C128.345 123.554 120 152.65 120 183.5c0 36.436 11.9 69.555 31.22 93.93C128.215 270.353 95 255.638 95 239.5zm-32 200v-56.41c0-16.192 9.61-30.793 24.48-37.197l18.666-8.04-9.875 35.645c-.54 1.948-.27 4.032.75 5.78 1.02 1.746 2.7 3.008 4.66 3.498l22.93 5.732-11.818 23.637c-.957 1.913-1.05 4.143-.26 6.13L124.372 448H71.5c-4.687 0-8.5-3.813-8.5-8.5zm337 0c0 4.687-3.813 8.5-8.5 8.5h-53.076l12.027-29.684c.81-1.996.72-4.244-.242-6.17l-11.818-23.638 22.93-5.732c1.97-.493 3.658-1.766 4.675-3.525s1.275-3.856.717-5.81L356.5 337.7l19.02 8.193c14.87 6.404 24.48 21.004 24.48 37.196v56.41z"/></svg>