<svg xmlns="http://www.w3.org/2000/svg" viewBox="0 0 463 463"><path d="M398.9 293.62l-76.69-19.174c-.738-6.717-4.33-13.04-10.3-17.02l-5.417-3.61C328.26 241.544 343 218.216 343 191.5v-79.82V71.5C343 32.075 310.925 0 271.5 0h-80C152.075 0 120 32.075 120 71.5v120c0 26.717 14.74 50.044 36.506 62.316l-5.417 3.61c-5.97 3.98-9.562 10.303-10.3 17.02L64.097 293.62C35.778 300.7 16 326.032 16 355.224V439.5c0 12.958 10.542 23.5 23.5 23.5h384c12.958 0 23.5-10.542 23.5-23.5v-84.276c0-29.192-19.78-54.525-48.1-61.605zm-56.742 44.484l-24.478 6.12c-2.207.55-4.044 2.074-4.994 4.142-.95 2.066-.912 4.453.105 6.488l14.812 29.622L313.552 448H271.6l6.852-89.083c.347.05.696.083 1.05.083.398 0 .8-.032 1.2-.097 3.79-.615 5.044-3.116 6.496-6.013l31.88-63.765 9.786 2.447 13.294 46.532zM239 448V330.925c6.472 3.3 15.623 8.778 25.76 17.29-.4.827-.663 1.74-.738 2.71L256.555 448H239zm-32.555 0l-7.467-97.075c-.075-.97-.337-1.883-.74-2.71 10.142-8.514 19.293-13.992 25.762-17.29V448h-17.555zm-57.006 0l-14.043-63.523 14.812-29.622c1.017-2.035 1.056-4.422.104-6.488-.95-2.067-2.787-3.59-4.994-4.143l-24.478-6.12 13.294-46.53 9.786-2.448 31.88 63.765c1.453 2.897 2.708 5.398 6.496 6.014.4.064.803.097 1.202.097.353 0 .702-.032 1.05-.082L191.4 448h-41.96zm157.043-167.227c-6.096 12.198-21.54 43.104-29.2 58.413-12.862-11.31-24.586-18.25-32.628-22.235l51.8-51.8 7.136 4.757c3.56 2.373 4.803 7.044 2.893 10.866zM255 133.217c13.507-3.256 27.49-3.256 41 0v24.356c-13.51 3.256-27.493 3.254-41 0v-24.356zm50.705-12.885c-19.76-6.08-40.65-6.08-60.41 0-3.148.968-5.295 3.875-5.295 7.168v2.097c-2.638-1.027-5.503-1.597-8.5-1.597s-5.862.57-8.5 1.597V127.5c0-3.293-2.147-6.2-5.295-7.168-19.76-6.08-40.65-6.08-60.41 0-3.148.968-5.295 3.875-5.295 7.168v.5h-17v-15.34c1.44-4.32 8.408-23.13 24-35.388 10.168-7.995 16-19.56 16-31.73v-11.75C185.443 46.492 206.573 55 231.5 55s46.057-8.51 56.5-21.208v11.75c0 12.17 5.832 23.735 16 31.73 15.594 12.26 22.56 31.072 24 35.388V128h-17v-.5c0-3.293-2.147-6.2-5.295-7.168zM167 133.217c13.507-3.256 27.49-3.256 41 0v24.356c-13.51 3.256-27.493 3.254-41 0v-24.356zM328 71.5v9.28c-3.95-5.31-8.81-10.645-14.73-15.298-6.526-5.133-10.27-12.4-10.27-19.94V24.62C318.07 34.776 328 52 328 71.5zM271.5 15c2.886 0 5.722.22 8.492.64C279.832 28.632 257.245 40 231.5 40s-48.33-11.367-48.492-24.36c2.77-.42 5.606-.64 8.492-.64h80zM160 24.62v20.923c0 7.538-3.744 14.806-10.27 19.938-5.92 4.654-10.78 9.988-14.73 15.3V71.5c0-19.5 9.93-36.723 25-46.88zM135 191.5V143h17v20.29c0 3.293 2.147 6.2 5.295 7.17 9.88 3.038 20.04 4.558 30.205 4.558 10.16 0 20.326-1.52 30.205-4.56 3.147-.968 5.295-3.875 5.295-7.168V151.5c0-4.687 3.813-8.5 8.5-8.5s8.5 3.813 8.5 8.5v11.79c0 3.293 2.147 6.2 5.295 7.17 9.88 3.038 20.04 4.558 30.205 4.558 10.16 0 20.326-1.52 30.205-4.56 3.147-.968 5.295-3.875 5.295-7.168V143h17v48.5c0 31.154-25.346 56.5-56.5 56.5h-80c-31.154 0-56.5-25.346-56.5-56.5zm56.5 71.5h80c2.082 0 4.14-.11 6.177-.284L231.5 308.893l-46.177-46.177c2.038.175 4.095.284 6.177.284zm-32.09 6.907l7.134-4.756 51.8 51.8c-8.04 3.985-19.765 10.926-32.628 22.236-7.66-15.31-23.104-46.215-29.2-58.412-1.91-3.823-.665-8.494 2.893-10.867zM31 439.5v-84.276c0-22.296 15.106-41.645 36.737-47.052l49.6-12.4-13.048 45.668c-.56 1.954-.3 4.052.716 5.812 1.016 1.76 2.703 3.032 4.675 3.525l22.93 5.732-11.817 23.636c-.77 1.538-.986 3.294-.615 4.974l13.9 62.88H39.5c-4.687 0-8.5-3.813-8.5-8.5zm401 0c0 4.687-3.813 8.5-8.5 8.5h-94.585l13.908-62.88c.37-1.68.154-3.436-.615-4.975l-11.818-23.637 22.93-5.732c1.972-.493 3.66-1.766 4.675-3.525 1.017-1.76 1.275-3.856.717-5.81l-13.048-45.67 49.6 12.4C416.894 313.58 432 332.93 432 355.225V439.5z"/><path d="M230.934 220.18c.2-.213.375-.437.566-.654.192.218.365.44.566.655 5.617 5.98 13.502 9.014 23.434 9.014 11.104 0 20.405-2.327 27.642-6.916 6.182-3.92 10.44-9.372 11.68-14.957.898-4.043-1.65-8.05-5.694-8.947-4.043-.902-8.05 1.65-8.948 5.694-.178.8-1.2 2.563-3.524 4.397-2.76.496-3.87-.337-7.905-7.134-2.312-3.895-4.934-8.31-9.167-11.575-9.828-7.58-20.894-6.547-27.385-3.357-.238.117-.467.24-.696.365-.23-.124-.458-.248-.696-.365-6.49-3.19-17.556-4.227-27.385 3.357-4.232 3.266-6.853 7.68-9.167 11.575-4.037 6.797-5.146 7.63-7.905 7.134-2.325-1.835-3.347-3.6-3.524-4.397-.898-4.042-4.898-6.596-8.948-5.694-4.043.898-6.593 4.904-5.694 8.948 1.24 5.586 5.498 11.038 11.68 14.958 7.236 4.59 16.537 6.916 27.642 6.916 9.928 0 17.812-3.033 23.43-9.013zm19.485-18.548c1.962 1.514 3.647 4.353 5.432 7.357.91 1.533 1.97 3.314 3.248 5.095-1.143.07-2.342.108-3.6.108-5.58 0-9.766-1.418-12.437-4.214-3.098-3.245-3.853-7.843-4.03-10.234 2.03-.885 6.778-1.67 11.386 1.886zm-43.272 7.357c1.784-3.006 3.47-5.845 5.433-7.358 4.608-3.556 9.354-2.772 11.385-1.887-.18 2.378-.928 6.935-3.963 10.165-2.67 2.842-6.876 4.283-12.502 4.283-1.258 0-2.457-.038-3.6-.11 1.28-1.778 2.337-3.56 3.248-5.094z"/></svg>