<svg xmlns="http://www.w3.org/2000/svg" viewBox="0 0 463 463"><path d="M287.5 104H255V15h16.5c4.143 0 7.5-3.358 7.5-7.5S275.643 0 271.5 0h-80c-4.143 0-7.5 3.358-7.5 7.5s3.357 7.5 7.5 7.5h16.348l.304 89H175.5c-4.143 0-7.5 3.358-7.5 7.5s3.357 7.5 7.5 7.5H192v225.233c0 6.24 1.83 12.283 5.29 17.473L224 401.77v53.73c0 4.142 3.357 7.5 7.5 7.5s7.5-3.358 7.5-7.5v-53.73l26.71-40.063c3.46-5.19 5.29-11.233 5.29-17.473V119h16.5c4.143 0 7.5-3.358 7.5-7.5s-3.357-7.5-7.5-7.5zm-64.652-89H240v89h-16.848l-.304-89zm30.38 338.385L231.5 385.98l-21.73-32.595c-1.812-2.72-2.77-5.883-2.77-9.152V287h49v57.233c0 3.27-.958 6.434-2.77 9.152zM256 272h-49V119h49v153z"/><path d="M223.5 304c-1.97 0-3.91.8-5.3 2.2-1.4 1.39-2.2 3.33-2.2 5.3 0 1.97.8 3.91 2.2 5.3 1.39 1.4 3.33 2.2 5.3 2.2s3.91-.8 5.3-2.2c1.4-1.39 2.2-3.33 2.2-5.3 0-1.97-.8-3.91-2.2-5.3-1.39-1.4-3.33-2.2-5.3-2.2zM239.5 328c-1.98 0-3.91.8-5.3 2.2-1.4 1.39-2.2 3.32-2.2 5.3s.8 3.91 2.2 5.3c1.39 1.4 3.32 2.2 5.3 2.2s3.91-.8 5.3-2.2c1.4-1.39 2.2-3.32 2.2-5.3s-.8-3.91-2.2-5.3c-1.39-1.4-3.32-2.2-5.3-2.2z"/></svg>