<svg xmlns="http://www.w3.org/2000/svg" viewBox="0 0 463.002 463.002"><path d="M455.567 52.78c-11.15-26.92-39.543-42.612-67.884-38.455l-4.016-9.695c-.76-1.838-2.22-3.298-4.06-4.06-1.837-.76-3.9-.76-5.74 0l-44.345 18.37c-5.8 2.4-10.316 6.918-12.718 12.717s-2.402 12.187 0 17.986l.192.463-207.41 85.91c-3.825 1.585-6.805 4.564-8.39 8.39-1.583 3.826-1.583 8.04 0 11.863l6.316 15.244-60.052 24.874-.19-.462c-3.272-7.896-12.356-11.66-20.252-8.39l-14.783 6.124c-7.896 3.27-11.66 12.356-8.388 20.25l18.37 44.348c1.583 3.825 4.563 6.805 8.388 8.39 1.913.79 3.922 1.187 5.93 1.187 2.01 0 4.02-.396 5.933-1.188l14.782-6.122c7.896-3.272 11.658-12.357 8.39-20.253l-.192-.462 60.052-24.875 6.315 15.245c1.584 3.825 4.564 6.805 8.39 8.39 1.912.79 3.92 1.187 5.93 1.187s4.02-.396 5.932-1.19l50.982-21.116c2.19 3.148 4.937 5.88 8.102 8.05L125.89 452.865c-1.456 3.88.51 8.202 4.388 9.656.868.325 1.757.48 2.632.48 3.037 0 5.895-1.858 7.023-4.87L165.105 391H292.71l25.175 67.134c1.13 3.01 3.987 4.868 7.023 4.868.875 0 1.765-.154 2.632-.48 3.878-1.453 5.844-5.776 4.39-9.655L246.665 225.5c8.29-5.68 13.74-15.214 13.74-26 0-1.91-.18-3.78-.508-5.597l99.574-41.245.19.462c2.403 5.8 6.92 10.316 12.72 12.72 2.898 1.2 5.945 1.8 8.992 1.8 3.047 0 6.094-.6 8.993-1.802l44.346-18.368c1.838-.76 3.298-2.22 4.06-4.06s.76-3.9 0-5.74l-4.017-9.695c22.98-17.103 31.96-48.277 20.81-75.195zM51.507 246.666l-14.784 6.123c-.047.018-.19.08-.382 0-.19-.08-.25-.225-.27-.272L17.7 208.17c-.104-.254.018-.547.272-.652l14.782-6.122c.063-.026.127-.038.19-.038.196 0 .383.116.463.31l15.305 36.946c0 .003.002.005.003.008l.003.005 3.06 7.385c.105.255-.016.55-.27.654zm8.197-20.713l-6.506-15.707 60.052-24.874 6.506 15.706-60.052 24.875zM245.407 199.5c0 9.098-7.402 16.5-16.5 16.5s-16.5-7.402-16.5-16.5 7.402-16.5 16.5-16.5 16.5 7.402 16.5 16.5zM287.085 376H170.73l54.46-145.227c1.22.144 2.46.227 3.717.227s2.497-.083 3.717-.227L287.084 376zm-33.308-195.798C248.01 172.785 239.01 168 228.907 168c-17.37 0-31.5 14.13-31.5 31.5 0 1.337.093 2.652.256 3.945L146.32 224.71c-.047.02-.19.08-.38 0-.19-.078-.25-.223-.27-.27l-9.185-22.172v-.003l-12.246-29.562-9.186-22.175c-.02-.047-.08-.19 0-.382.08-.19.223-.25.27-.27l207.412-85.913 30.998 74.835-99.957 41.404zm130.85-28.223c-2.096.87-4.407.87-6.504 0-2.098-.87-3.73-2.504-4.6-4.602l-42.86-103.475c-.87-2.098-.87-4.408 0-6.506.868-2.097 2.5-3.73 4.6-4.6l37.416-15.5 49.365 119.183-37.417 15.5zm9.03-123.23C414 27.402 433.693 39.166 441.71 58.52c8.016 19.354 2.408 41.596-12.926 55.03l-35.126-84.8z"/><path d="M228.907 192c-1.97 0-3.9.8-5.3 2.2-1.4 1.39-2.2 3.33-2.2 5.3 0 1.97.8 3.91 2.2 5.3 1.4 1.4 3.33 2.2 5.3 2.2 1.97 0 3.91-.8 5.3-2.2 1.4-1.4 2.2-3.33 2.2-5.3 0-1.97-.8-3.91-2.2-5.3-1.39-1.4-3.33-2.2-5.3-2.2zM306.606 89.046l-16.57 6.864c-3.828 1.585-5.645 5.973-4.06 9.8 1.197 2.888 3.99 4.63 6.932 4.63.957 0 1.93-.184 2.867-.572l16.57-6.864c3.828-1.585 5.645-5.973 4.06-9.8-1.585-3.827-5.972-5.642-9.8-4.058zM258.04 109.163l-64.002 26.51c-3.827 1.586-5.644 5.973-4.06 9.8 1.198 2.89 3.99 4.632 6.933 4.632.958 0 1.93-.185 2.868-.573l64-26.51c3.828-1.586 5.645-5.973 4.06-9.8-1.586-3.827-5.973-5.644-9.8-4.06z"/></svg>