<svg xmlns="http://www.w3.org/2000/svg" viewBox="0 0 463 463"><path d="M231.5 0C200.897 0 176 21.232 176 47.33V359.5c0 18.937 13.115 35.303 32 42.864V439.5c0 12.958 10.542 23.5 23.5 23.5s23.5-10.542 23.5-23.5v-37.136c18.885-7.56 32-23.927 32-42.864V47.33C287 21.232 262.103 0 231.5 0zm8.5 439.5c0 4.687-3.813 8.5-8.5 8.5s-8.5-3.813-8.5-8.5v-33.226c2.772.365 5.61.555 8.5.555s5.728-.19 8.5-.556V439.5zm-1-48.235V55.5c0-4.142-3.357-7.5-7.5-7.5s-7.5 3.358-7.5 7.5v335.765c-18.76-2.817-33-15.984-33-31.765V47.33C191 29.503 209.168 15 231.5 15S272 29.503 272 47.33v8.696c-.166-.01-.33-.025-.5-.025h-16c-4.143 0-7.5 3.36-7.5 7.5s3.357 7.5 7.5 7.5h16c.17 0 .334-.013.5-.024v17.05c-.167-.01-.333-.025-.5-.025-1.97 0-3.91.8-5.3 2.2-1.4 1.39-2.2 3.33-2.2 5.3 0 1.97.8 3.91 2.2 5.3 1.39 1.4 3.32 2.2 5.3 2.2.167 0 .334-.013.5-.024v17.05c-.167-.01-.333-.025-.5-.025-1.97 0-3.91.8-5.3 2.2-1.4 1.39-2.2 3.33-2.2 5.3 0 1.97.8 3.91 2.2 5.3 1.39 1.4 3.32 2.2 5.3 2.2.167 0 .334-.013.5-.024v17.05c-.166-.01-.33-.025-.5-.025h-16c-4.143 0-7.5 3.36-7.5 7.5s3.357 7.5 7.5 7.5h16c.17 0 .334-.013.5-.024v17.05c-.167-.01-.333-.025-.5-.025-1.97 0-3.91.8-5.3 2.2-1.4 1.39-2.2 3.33-2.2 5.3 0 1.97.8 3.91 2.2 5.3 1.39 1.4 3.32 2.2 5.3 2.2.167 0 .333-.013.5-.024v17.05c-.167-.01-.333-.025-.5-.025-1.97 0-3.91.8-5.3 2.2-1.4 1.39-2.2 3.33-2.2 5.3 0 1.97.8 3.91 2.2 5.3 1.39 1.4 3.32 2.2 5.3 2.2.167 0 .333-.013.5-.024v17.05c-.166-.01-.33-.025-.5-.025h-16c-4.143 0-7.5 3.36-7.5 7.5s3.357 7.5 7.5 7.5h16c.17 0 .334-.013.5-.024v17.05c-.166-.01-.333-.025-.5-.025-1.98 0-3.91.8-5.3 2.2-1.4 1.39-2.2 3.33-2.2 5.3 0 1.97.8 3.91 2.2 5.3 1.39 1.4 3.32 2.2 5.3 2.2.167 0 .333-.013.5-.024v17.05c-.166-.01-.333-.025-.5-.025-1.98 0-3.91.8-5.3 2.2-1.4 1.39-2.2 3.33-2.2 5.3 0 1.97.8 3.91 2.2 5.3 1.39 1.4 3.32 2.2 5.3 2.2.167 0 .333-.013.5-.024v17.05c-.166-.01-.33-.025-.5-.025h-16c-4.143 0-7.5 3.36-7.5 7.5s3.357 7.5 7.5 7.5h16c.17 0 .334-.013.5-.024v.525c0 15.78-14.24 28.948-33 31.765z"/></svg>