<svg xmlns="http://www.w3.org/2000/svg" viewBox="0 0 463 463"><path d="M439.5 208c-10.336 0-19.128 6.71-22.266 16H310.636c-.514-5.464-1.576-10.77-3.143-15.86l39.352-16.3c4.473 5.116 10.973 8.054 17.726 8.054 2.992 0 6.032-.575 8.963-1.79 11.972-4.958 17.676-18.732 12.718-30.703-2.4-5.798-6.918-10.315-12.717-12.718-5.8-2.4-12.186-2.4-17.986 0-5.8 2.402-10.316 6.92-12.72 12.718-1.41 3.404-1.967 7.01-1.72 10.582l-39.378 16.31c-2.546-4.783-5.555-9.284-8.986-13.426l75.388-75.388c3.207 1.595 6.762 2.445 10.448 2.445 6.277 0 12.18-2.445 16.616-6.883 4.44-4.44 6.884-10.34 6.884-16.618 0-6.277-2.444-12.178-6.883-16.617-9.164-9.163-24.07-9.162-33.234 0-7.306 7.307-8.767 18.26-4.42 27.047l-75.406 75.406c-4.143-3.43-8.644-6.44-13.428-8.986l16.306-39.37c.52.035 1.042.06 1.562.06 9.225 0 17.997-5.468 21.74-14.508 2.403-5.8 2.403-12.187.002-17.986-2.402-5.8-6.92-10.316-12.72-12.718-11.972-4.96-25.745.747-30.703 12.718-2.402 5.8-2.402 12.187 0 17.986 1.41 3.404 3.565 6.35 6.264 8.7l-16.3 39.353c-5.088-1.568-10.395-2.63-15.86-3.143V45.766c9.29-3.138 16-11.93 16-22.266C255 10.542 244.46 0 231.5 0S208 10.542 208 23.5c0 10.336 6.71 19.128 16 22.266v106.6c-5.464.513-10.77 1.575-15.86 3.142l-16.3-39.352c2.7-2.352 4.855-5.297 6.265-8.7 2.402-5.8 2.402-12.188 0-17.987-4.96-11.973-18.735-17.68-30.705-12.72-11.97 4.96-17.676 18.732-12.718 30.705 3.745 9.04 12.515 14.506 21.74 14.506.52 0 1.042-.023 1.563-.058l16.308 39.37c-4.785 2.545-9.285 5.555-13.428 8.986L105.477 94.87c1.595-3.207 2.445-6.762 2.445-10.45 0-6.276-2.444-12.177-6.883-16.616-9.165-9.163-24.072-9.163-33.234 0-4.44 4.44-6.884 10.34-6.884 16.617 0 6.278 2.444 12.18 6.883 16.618s10.34 6.883 16.617 6.883c3.687 0 7.24-.85 10.448-2.444l75.388 75.388c-3.43 4.143-6.44 8.644-8.986 13.428l-39.377-16.31c.246-3.573-.313-7.18-1.722-10.583-2.402-5.8-6.92-10.317-12.72-12.72-5.8-2.4-12.187-2.4-17.984 0-5.8 2.403-10.317 6.92-12.72 12.72-2.4 5.8-2.4 12.187 0 17.986 2.402 5.8 6.92 10.316 12.72 12.718 2.898 1.2 5.944 1.8 8.99 1.8s6.095-.6 8.994-1.8c3.404-1.41 6.35-3.566 8.7-6.265l39.353 16.3c-1.567 5.088-2.63 10.394-3.143 15.858H45.766c-3.138-9.29-11.93-16-22.266-16C10.542 208 0 218.542 0 231.5S10.542 255 23.5 255c10.336 0 19.128-6.71 22.266-16h106.6c.513 5.464 1.575 10.77 3.142 15.86l-39.352 16.3c-2.352-2.7-5.297-4.855-8.7-6.265-5.798-2.4-12.186-2.4-17.986 0-5.8 2.402-10.316 6.92-12.72 12.718-2.4 5.8-2.4 12.187 0 17.986 2.403 5.798 6.92 10.315 12.72 12.717 2.9 1.2 5.946 1.802 8.993 1.802 3.046 0 6.093-.602 8.992-1.802 5.8-2.402 10.316-6.92 12.72-12.718 1.41-3.404 1.967-7.01 1.722-10.582l39.377-16.31c2.545 4.783 5.555 9.284 8.986 13.427l-75.39 75.388c-3.207-1.595-6.762-2.445-10.448-2.445-6.277 0-12.18 2.445-16.616 6.883-4.44 4.44-6.884 10.34-6.884 16.618s2.444 12.18 6.883 16.617c4.582 4.582 10.6 6.873 16.617 6.872 6.017 0 12.036-2.29 16.616-6.872 4.44-4.44 6.884-10.34 6.884-16.618 0-3.687-.85-7.24-2.445-10.448l75.388-75.39c4.143 3.432 8.644 6.442 13.428 8.987l-16.308 39.37c-9.784-.656-19.348 4.9-23.304 14.448-4.956 11.972.75 25.745 12.72 30.704 2.932 1.213 5.97 1.788 8.962 1.788 9.226 0 17.998-5.467 21.742-14.507 2.402-5.798 2.402-12.186 0-17.985-1.41-3.405-3.564-6.35-6.264-8.702l16.3-39.35c5.09 1.567 10.395 2.63 15.86 3.142v106.6c-9.29 3.137-16 11.93-16 22.265 0 12.958 10.54 23.5 23.5 23.5s23.5-10.542 23.5-23.5c0-10.336-6.71-19.128-16-22.266V310.636c5.463-.514 10.77-1.576 15.86-3.143l16.298 39.35c-2.7 2.353-4.855 5.298-6.265 8.703-2.4 5.8-2.4 12.187 0 17.986 3.745 9.04 12.517 14.507 21.743 14.507 2.99 0 6.03-.576 8.962-1.79 5.8-2.402 10.316-6.92 12.72-12.718 2.4-5.8 2.4-12.187-.002-17.987-3.955-9.548-13.52-15.103-23.303-14.447l-16.307-39.37c4.784-2.545 9.285-5.555 13.428-8.986l75.406 75.406c-4.346 8.787-2.886 19.74 4.42 27.048 4.582 4.582 10.6 6.873 16.617 6.872 6.017 0 12.036-2.29 16.616-6.872 4.44-4.44 6.884-10.34 6.884-16.618s-2.444-12.18-6.883-16.617c-4.438-4.437-10.34-6.882-16.617-6.882-3.687 0-7.24.85-10.448 2.445l-75.39-75.388c3.432-4.143 6.44-8.643 8.986-13.427l39.377 16.31c-.246 3.573.313 7.18 1.722 10.583 2.402 5.8 6.92 10.317 12.72 12.72 2.898 1.2 5.945 1.8 8.992 1.8 3.046 0 6.094-.6 8.993-1.802 5.8-2.402 10.315-6.92 12.717-12.718 4.96-11.97-.745-25.745-12.717-30.705-9.55-3.955-20.24-1.12-26.694 6.26L307.49 254.86c1.567-5.09 2.63-10.396 3.143-15.86h106.6c3.137 9.29 11.93 16 22.265 16 12.958 0 23.5-10.542 23.5-23.5S452.458 208 439.5 208zm-82.814-34.86c.87-2.097 2.503-3.73 4.6-4.6 1.05-.434 2.15-.65 3.254-.65 1.102 0 2.204.216 3.253.65 2.097.87 3.73 2.503 4.6 4.6 1.793 4.33-.27 9.314-4.6 11.107-4.33 1.792-9.313-.27-11.106-4.6-.87-2.098-.87-4.41 0-6.506zM278.753 95.21c1.354-3.27 4.527-5.247 7.865-5.247 1.082 0 2.182.21 3.24.648 2.1.87 3.732 2.502 4.602 4.6.868 2.098.868 4.408 0 6.505-1.794 4.33-6.775 6.395-11.106 4.6-2.098-.87-3.73-2.502-4.6-4.6-.87-2.096-.87-4.407 0-6.505zm-110.212 6.507c-1.793-4.33.27-9.313 4.6-11.106 4.333-1.794 9.314.27 11.107 4.6.868 2.097.868 4.407 0 6.504-.87 2.098-2.503 3.73-4.6 4.6-4.33 1.795-9.313-.27-11.106-4.6zm-66.826 82.532c-2.097.87-4.406.87-6.505 0-2.1-.87-3.732-2.502-4.602-4.6-.868-2.098-.868-4.408 0-6.506.87-2.096 2.503-3.73 4.6-4.6 1.05-.434 2.15-.65 3.254-.65 1.102 0 2.203.216 3.252.65 2.098.87 3.73 2.503 4.6 4.6.87 2.1.87 4.41 0 6.507-.87 2.097-2.502 3.73-4.6 4.6zm4.6 105.612c-.87 2.097-2.503 3.73-4.6 4.6-2.1.868-4.41.866-6.506 0-2.098-.87-3.73-2.503-4.6-4.6-.87-2.1-.87-4.41 0-6.507.868-2.098 2.502-3.73 4.6-4.6 1.05-.435 2.15-.652 3.252-.652 1.103 0 2.204.218 3.253.653 2.098.87 3.73 2.502 4.6 4.6.87 2.098.87 4.41 0 6.506zm77.933 77.932c-1.793 4.33-6.77 6.394-11.106 4.6-4.33-1.793-6.393-6.776-4.6-11.105 1.354-3.27 4.527-5.248 7.865-5.248 1.082 0 2.182.207 3.24.646 2.1.87 3.732 2.502 4.602 4.6.868 2.097.868 4.408 0 6.506zm110.213-6.506c.868 2.098.868 4.408 0 6.506-.87 2.098-2.503 3.73-4.6 4.6-4.333 1.793-9.314-.27-11.107-4.6-.868-2.098-.868-4.408 0-6.506.87-2.098 2.503-3.73 4.6-4.6 4.332-1.79 9.313.27 11.107 4.6zm70.09-83.18c1.082 0 2.182.208 3.242.646 4.33 1.794 6.393 6.776 4.6 11.107-.87 2.096-2.503 3.73-4.6 4.6-2.1.868-4.41.867-6.506 0-2.098-.87-3.73-2.503-4.6-4.6-.87-2.1-.87-4.41 0-6.507 1.354-3.27 4.527-5.247 7.865-5.247zM231.5 296c-35.565 0-64.5-28.935-64.5-64.5s28.935-64.5 64.5-64.5 64.5 28.935 64.5 64.5-28.935 64.5-64.5 64.5zM372.568 78.41c1.656-1.656 3.833-2.484 6.01-2.484s4.354.83 6.01 2.485c1.606 1.606 2.49 3.74 2.49 6.01 0 2.272-.884 4.406-2.49 6.012-1.605 1.605-3.74 2.49-6.01 2.49s-4.404-.884-6.01-2.49c-3.314-3.314-3.314-8.707 0-12.02zM231.5 15c4.687 0 8.5 3.813 8.5 8.5s-3.813 8.5-8.5 8.5-8.5-3.813-8.5-8.5 3.813-8.5 8.5-8.5zM78.41 90.432c-1.604-1.605-2.488-3.74-2.488-6.01 0-2.27.884-4.404 2.49-6.01 1.656-1.657 3.833-2.485 6.01-2.485s4.354.83 6.01 2.486c1.606 1.605 2.49 3.74 2.49 6.01 0 2.27-.884 4.405-2.49 6.01-1.605 1.606-3.74 2.49-6.01 2.49s-4.404-.885-6.01-2.49zM23.5 240c-4.687 0-8.5-3.813-8.5-8.5s3.813-8.5 8.5-8.5 8.5 3.813 8.5 8.5-3.813 8.5-8.5 8.5zm66.932 144.59c-3.313 3.312-8.706 3.313-12.02 0-1.606-1.606-2.49-3.74-2.49-6.01 0-2.27.884-4.406 2.49-6.01 1.605-1.606 3.74-2.49 6.01-2.49s4.404.883 6.01 2.49c0 0 .002 0 .003.002 1.604 1.605 2.487 3.74 2.487 6.008 0 2.27-.884 4.403-2.49 6.01zM231.5 448c-4.687 0-8.5-3.813-8.5-8.5s3.813-8.5 8.5-8.5 8.5 3.813 8.5 8.5-3.813 8.5-8.5 8.5zm153.09-75.432c1.604 1.605 2.488 3.74 2.488 6.01 0 2.27-.884 4.405-2.49 6.01-3.314 3.315-8.707 3.314-12.02 0-3.314-3.313-3.314-8.706 0-12.02 1.605-1.605 3.74-2.49 6.01-2.49s4.404.884 6.01 2.49zM439.5 240c-4.687 0-8.5-3.813-8.5-8.5s3.813-8.5 8.5-8.5 8.5 3.813 8.5 8.5-3.813 8.5-8.5 8.5z"/><path d="M231 207.5c0-12.958-10.542-23.5-23.5-23.5S184 194.542 184 207.5s10.542 23.5 23.5 23.5 23.5-10.542 23.5-23.5zm-23.5 8.5c-4.687 0-8.5-3.813-8.5-8.5s3.813-8.5 8.5-8.5 8.5 3.813 8.5 8.5-3.813 8.5-8.5 8.5zM239.5 240c-12.958 0-23.5 10.542-23.5 23.5s10.542 23.5 23.5 23.5 23.5-10.542 23.5-23.5-10.542-23.5-23.5-23.5zm0 32c-4.687 0-8.5-3.813-8.5-8.5s3.813-8.5 8.5-8.5 8.5 3.813 8.5 8.5-3.813 8.5-8.5 8.5zM247.52 207c4.143 0 7.5-3.358 7.5-7.5s-3.357-7.5-7.5-7.5h-.01c-4.142 0-7.495 3.358-7.495 7.5s3.363 7.5 7.505 7.5zM271.52 224h-.01c-4.142 0-7.495 3.358-7.495 7.5s3.363 7.5 7.505 7.5c4.143 0 7.5-3.358 7.5-7.5s-3.358-7.5-7.5-7.5z"/></svg>