<svg xmlns="http://www.w3.org/2000/svg" viewBox="0 0 463 463"><path d="M380.058 170.01c-14.224-30.79-34.026-61.115-58.86-90.137-42.183-49.297-83.77-77.43-85.52-78.603-2.528-1.694-5.83-1.694-8.356 0-1.75 1.173-43.338 29.306-85.52 78.603-24.835 29.02-44.638 59.348-58.86 90.137C65.063 208.71 56 248.238 56 287.5 56 384.27 134.728 463 231.5 463S407 384.27 407 287.5c0-39.262-9.065-78.79-26.942-117.49zM231.5 448C143 448 71 376 71 287.5c0-37.002 8.566-74.343 25.46-110.985 13.602-29.5 32.603-58.63 56.474-86.58 33.306-38.992 67.018-64.866 78.568-73.25 11.512 8.348 45.02 34.05 78.3 72.94 23.938 27.977 42.994 57.138 56.64 86.677C383.4 213.012 392 250.426 392 287.5 392 376 320 448 231.5 448z"/><path d="M365.462 312.214c-4.028-.975-8.08 1.5-9.054 5.524-8.594 35.495-32.084 65.794-64.448 83.128-3.65 1.955-5.026 6.5-3.07 10.152 1.352 2.524 3.94 3.96 6.618 3.96 1.194 0 2.407-.286 3.534-.89 36.125-19.348 62.348-53.18 71.944-92.82.975-4.026-1.498-8.08-5.524-9.054zM374.387 270.948c-.306-4.13-3.892-7.225-8.033-6.926-4.13.306-7.23 3.902-6.926 8.033.38 5.127.572 10.323.572 15.444 0 4.142 3.357 7.5 7.5 7.5s7.5-3.358 7.5-7.5c0-5.49-.206-11.06-.613-16.552zM199.5 216c-4.143 0-7.5 3.357-7.5 7.5V264h-49v-40.5c0-4.143-3.357-7.5-7.5-7.5s-7.5 3.357-7.5 7.5v96c0 4.143 3.357 7.5 7.5 7.5s7.5-3.357 7.5-7.5V279h49v40.5c0 4.143 3.357 7.5 7.5 7.5s7.5-3.357 7.5-7.5v-96c0-4.143-3.358-7.5-7.5-7.5zM335 287.5v-32c0-21.78-17.72-39.5-39.5-39.5S256 233.72 256 255.5v32c0 21.78 17.72 39.5 39.5 39.5s39.5-17.72 39.5-39.5zm-64 0v-32c0-13.51 10.99-24.5 24.5-24.5s24.5 10.99 24.5 24.5v32c0 13.51-10.99 24.5-24.5 24.5S271 301.01 271 287.5zM235.5 351h4c10.752 0 19.5-8.748 19.5-19.5s-8.748-19.5-19.5-19.5h-8c-8.547 0-15.5 6.953-15.5 15.5 0 4.143 3.357 7.5 7.5 7.5s7.5-3.357 7.5-7.5c0-.275.225-.5.5-.5h8c2.48 0 4.5 2.02 4.5 4.5s-2.02 4.5-4.5 4.5h-4c-10.752 0-19.5 8.748-19.5 19.5v12c0 4.143 3.357 7.5 7.5 7.5h28c4.143 0 7.5-3.357 7.5-7.5s-3.357-7.5-7.5-7.5H231v-4.5c0-2.482 2.018-4.5 4.5-4.5z"/></svg>